<?xml version="1.0" encoding="UTF-8"?>
<svg width="30px" height="30px" viewBox="0 0 30 30" version="1.1" xmlns="http://www.w3.org/2000/svg" xmlns:xlink="http://www.w3.org/1999/xlink">
    <!-- Generator: Sketch 48.2 (47327) - http://www.bohemiancoding.com/sketch -->
    <title>mm_ico_lovelist</title>
    <desc>Created with Sketch.</desc>
    <defs></defs>
    <g id="Assets" stroke="none" stroke-width="1" fill="none" fill-rule="evenodd">
        <g id="mm_ico_lovelist" stroke="#191919" stroke-width="1.5">
            <path d="M22.6758812,16.2104098 C24.4112698,14.5500021 25.25,12.9760794 25.25,11.4835714 C25.25,9.96430575 24.807063,8.81914504 23.9287946,8.00144732 C23.0399562,7.17283541 21.7859745,6.75 20.131268,6.75 C19.7022877,6.75 19.2622482,6.8216456 18.8053834,6.96848154 C18.3355128,7.11684155 17.9033372,7.3153275 17.5038663,7.56576987 C17.0736542,7.83628619 16.7000017,8.09271318 16.3873612,8.33096072 C16.0899148,8.55762957 15.8003588,8.8049721 15.5146984,9.07516354 L14.9981511,9.56373895 L14.4827166,9.07398984 C14.2006776,8.80600555 13.9113852,8.55862025 13.6126388,8.33096072 C13.2987216,8.09174024 12.9250102,7.83549377 12.4947867,7.56576987 C12.0969225,7.31559387 11.6650303,7.11696576 11.192811,6.96747847 C10.7378977,6.82163139 10.297659,6.75 9.86873201,6.75 C8.21402549,6.75 6.9600438,7.17283541 6.07085062,8.00177782 C5.192937,8.81914504 4.75,9.96430575 4.75,11.4835714 C4.75,11.9199089 4.83151666,12.3764292 4.99703171,12.8570723 C5.16962994,13.3559617 5.36638588,13.7796833 5.58093837,14.1206363 C5.80799676,14.4826521 6.0653583,14.8355067 6.35333479,15.1794082 C6.65924849,15.5431528 6.86806027,15.7781983 6.98762131,15.8944671 C7.11256347,16.0171029 7.20284164,16.0986318 7.30707425,16.1814578 L14.9770443,23.2453352 C14.984667,23.2526112 14.9780269,23.25 14.9993265,23.25 C15.0218796,23.25 15.0152619,23.2526024 15.0332393,23.2357022 L16.9286432,21.4933551 L17.7848211,20.7069508 L18.7576345,19.8118143 L22.6758812,16.2104098 Z" id="lovelist-icon-inactive"></path>
        </g>
    </g>
</svg>