<?xml version="1.0" encoding="UTF-8"?>
<svg width="8px" height="11px" viewBox="0 0 8 11" version="1.1" xmlns="http://www.w3.org/2000/svg" xmlns:xlink="http://www.w3.org/1999/xlink">
    <!-- Generator: Sketch 49.1 (51147) - http://www.bohemiancoding.com/sketch -->
    <title>Stroke 1</title>
    <desc>Created with Sketch.</desc>
    <defs></defs>
    <g id="MS-5-(Profile,-Checkout,-Payment)" stroke="none" stroke-width="1" fill="none" fill-rule="evenodd">
        <g id="04_05_ShippingAddress" transform="translate(-15.000000, -325.000000)" fill="#F57C00">
            <g id="Group" transform="translate(15.000000, 323.000000)">
                <path d="M4.00031543,7.5 C3.17640565,7.5 2.5089504,6.8314568 2.5089504,6.00620404 C2.5089504,5.18158318 3.17640565,4.51240809 4.00031543,4.51240809 C4.82422522,4.51240809 5.4910496,5.18158318 5.4910496,6.00620404 C5.4910496,6.8314568 4.82422522,7.5 4.00031543,7.5 Z M4.00031543,2 C1.79102594,2 0,3.79394531 0,6.00620404 C0,7.14740349 0.586073653,8.11799173 1.22261651,9.01970358 C1.83013958,9.88097426 2.43261572,10.7454044 3.034461,11.6110983 C3.35620219,12.0742762 3.67794338,12.5368222 4.00031543,13 C4.32205662,12.5368222 4.64442867,12.0742762 4.96616986,11.6110983 C5.56738428,10.7454044 6.16986042,9.88097426 6.77801435,9.01970358 C7.41455721,8.11799173 8,7.14740349 8,6.00620404 C8,3.79394531 6.20960492,2 4.00031543,2 Z" id="Stroke-1"></path>
            </g>
        </g>
    </g>
</svg>