
<svg width="12px" height="12px" viewBox="0 0 12 12" version="1.1" xmlns="http://www.w3.org/2000/svg" xmlns:xlink="http://www.w3.org/1999/xlink">
    <!-- Generator: Sketch 48.2 (47327) - http://www.bohemiancoding.com/sketch -->
    <desc>Created with Sketch.</desc>
    <defs></defs>
    <g id="Assets" stroke="none" stroke-width="1" fill="none" fill-rule="evenodd">
        <path d="M9.01171875,0.80859375 C9.93359836,1.33984641 10.6621067,2.06640164 11.1972656,2.98828125 C11.7324246,3.91016086 12,4.91405707 12,6 C12,7.08594293 11.7324246,8.08983914 11.1972656,9.01171875 C10.6621067,9.93359836 9.93359836,10.6621067 9.01171875,11.1972656 C8.08983914,11.7324246 7.08594293,12 6,12 C4.91405707,12 3.91016086,11.7324246 2.98828125,11.1972656 C2.06640164,10.6621067 1.3378933,9.93359836 0.802734375,9.01171875 C0.267575449,8.08983914 0,7.08594293 0,6 C0,4.91405707 0.267575449,3.91016086 0.802734375,2.98828125 C1.3378933,2.06640164 2.06640164,1.3378933 2.98828125,0.802734375 C3.91016086,0.267575449 4.91405707,0 6,0 C7.08594293,0 8.08983914,0.269528555 9.01171875,0.80859375 Z M8.40234375,7.81640625 L6.59765625,6 L8.40234375,4.18359375 C8.48828168,4.09765582 8.53125,3.99804744 8.53125,3.88476562 C8.53125,3.77148381 8.49023479,3.67382854 8.40820312,3.59179688 C8.32617146,3.50976521 8.22656309,3.46875 8.109375,3.46875 C7.99218691,3.46875 7.89062543,3.50781211 7.8046875,3.5859375 L6,5.40234375 L4.1953125,3.5859375 C4.10937457,3.50781211 4.00781309,3.46875 3.890625,3.46875 C3.77343691,3.46875 3.67382854,3.50976521 3.59179688,3.59179688 C3.50976521,3.67382854 3.46875,3.77343691 3.46875,3.890625 C3.46875,4.00781309 3.51171832,4.10546836 3.59765625,4.18359375 L5.40234375,6 L3.59765625,7.81640625 C3.51171832,7.89453164 3.46875,7.99218691 3.46875,8.109375 C3.46875,8.22656309 3.50976521,8.32617146 3.59179688,8.40820312 C3.67382854,8.49023479 3.77343691,8.53125 3.890625,8.53125 C4.00781309,8.53125 4.10937457,8.49218789 4.1953125,8.4140625 L6,6.59765625 L7.8046875,8.4140625 C7.89062543,8.49218789 7.99218691,8.53125 8.109375,8.53125 C8.22656309,8.53125 8.32617146,8.49023479 8.40820312,8.40820312 C8.49023479,8.32617146 8.53125,8.22656309 8.53125,8.109375 C8.53125,7.99218691 8.48828168,7.89453164 8.40234375,7.81640625 Z" id="close-circle---anticon" fill="#A4A4A4"></path>
    </g>
</svg>