<?xml version="1.0" encoding="UTF-8"?>
<svg width="14px" height="14px" viewBox="0 0 14 14" version="1.1" xmlns="http://www.w3.org/2000/svg" xmlns:xlink="http://www.w3.org/1999/xlink">
    <!-- Generator: Sketch 48.2 (47327) - http://www.bohemiancoding.com/sketch -->
    <title>mm_ico_pinlocation-black</title>
    <desc>Created with Sketch.</desc>
    <defs></defs>
    <g id="Assets" stroke="none" stroke-width="1" fill="none" fill-rule="evenodd">
        <g id="mm_ico_pinlocation-black" stroke="#191919">
            <path d="M7.00031543,7 C6.17640565,7 5.5089504,6.3314568 5.5089504,5.50620404 C5.5089504,4.68158318 6.17640565,4.01240809 7.00031543,4.01240809 C7.82422522,4.01240809 8.4910496,4.68158318 8.4910496,5.50620404 C8.4910496,6.3314568 7.82422522,7 7.00031543,7 Z M7.00031543,1.5 C4.79102594,1.5 3,3.29394531 3,5.50620404 C3,6.64740349 3.58607365,7.61799173 4.22261651,8.51970358 C4.83013958,9.38097426 5.43261572,10.2454044 6.034461,11.1110983 C6.35620219,11.5742762 6.67794338,12.0368222 7.00031543,12.5 C7.32205662,12.0368222 7.64442867,11.5742762 7.96616986,11.1110983 C8.56738428,10.2454044 9.16986042,9.38097426 9.77801435,8.51970358 C10.4145572,7.61799173 11,6.64740349 11,5.50620404 C11,3.29394531 9.20960492,1.5 7.00031543,1.5 Z" id="Stroke-1"></path>
        </g>
    </g>
</svg>