<?xml version="1.0" encoding="UTF-8"?>
<svg width="14px" height="14px" viewBox="0 0 14 14" version="1.1" xmlns="http://www.w3.org/2000/svg" xmlns:xlink="http://www.w3.org/1999/xlink">
    <!-- Generator: Sketch 48.2 (47327) - http://www.bohemiancoding.com/sketch -->
    <title>mm_ico_clear</title>
    <desc>Created with Sketch.</desc>
    <defs></defs>
    <g id="Assets" stroke="none" stroke-width="1" fill="none" fill-rule="evenodd">
        <g id="mm_ico_clear" fill="#A4A4A4">
            <path d="M10.0117188,1.80859375 C10.9335984,2.33984641 11.6621067,3.06640164 12.1972656,3.98828125 C12.7324246,4.91016086 13,5.91405707 13,7 C13,8.08594293 12.7324246,9.08983914 12.1972656,10.0117188 C11.6621067,10.9335984 10.9335984,11.6621067 10.0117188,12.1972656 C9.08983914,12.7324246 8.08594293,13 7,13 C5.91405707,13 4.91016086,12.7324246 3.98828125,12.1972656 C3.06640164,11.6621067 2.3378933,10.9335984 1.80273438,10.0117188 C1.26757545,9.08983914 1,8.08594293 1,7 C1,5.91405707 1.26757545,4.91016086 1.80273438,3.98828125 C2.3378933,3.06640164 3.06640164,2.3378933 3.98828125,1.80273438 C4.91016086,1.26757545 5.91405707,1 7,1 C8.08594293,1 9.08983914,1.26952855 10.0117188,1.80859375 Z M9.40234375,8.81640625 L7.59765625,7 L9.40234375,5.18359375 C9.48828168,5.09765582 9.53125,4.99804744 9.53125,4.88476562 C9.53125,4.77148381 9.49023479,4.67382854 9.40820312,4.59179688 C9.32617146,4.50976521 9.22656309,4.46875 9.109375,4.46875 C8.99218691,4.46875 8.89062543,4.50781211 8.8046875,4.5859375 L7,6.40234375 L5.1953125,4.5859375 C5.10937457,4.50781211 5.00781309,4.46875 4.890625,4.46875 C4.77343691,4.46875 4.67382854,4.50976521 4.59179688,4.59179688 C4.50976521,4.67382854 4.46875,4.77343691 4.46875,4.890625 C4.46875,5.00781309 4.51171832,5.10546836 4.59765625,5.18359375 L6.40234375,7 L4.59765625,8.81640625 C4.51171832,8.89453164 4.46875,8.99218691 4.46875,9.109375 C4.46875,9.22656309 4.50976521,9.32617146 4.59179688,9.40820312 C4.67382854,9.49023479 4.77343691,9.53125 4.890625,9.53125 C5.00781309,9.53125 5.10937457,9.49218789 5.1953125,9.4140625 L7,7.59765625 L8.8046875,9.4140625 C8.89062543,9.49218789 8.99218691,9.53125 9.109375,9.53125 C9.22656309,9.53125 9.32617146,9.49023479 9.40820312,9.40820312 C9.49023479,9.32617146 9.53125,9.22656309 9.53125,9.109375 C9.53125,8.99218691 9.48828168,8.89453164 9.40234375,8.81640625 Z" id="close-circle---anticon"></path>
        </g>
    </g>
</svg>