
<svg width="22px" height="18px" viewBox="0 0 22 18" version="1.1" xmlns="http://www.w3.org/2000/svg" xmlns:xlink="http://www.w3.org/1999/xlink">
	<!-- Generator: Sketch 48.2 (47327) - http://www.bohemiancoding.com/sketch -->
	<desc>Created with Sketch.</desc>
	<defs></defs>
	<g id="00_01_Lovelist" stroke="none" stroke-width="1" fill="none" fill-rule="evenodd">
		<g id="00_01_Lovelist-Empty" transform="translate(-106.000000, -116.000000)" fill="#FFFFFF" stroke="#191919">
			<path d="M127,121.875 C127,123.40973 126.148074,124.972214 124.444196,126.5625 L117.491071,132.8125 C117.357142,132.937501 117.193453,133 117,133 C116.806547,133 116.642858,132.937501 116.508929,132.8125 L109.544643,126.541667 C109.470238,126.486111 109.367932,126.395834 109.237723,126.270833 C109.107514,126.145833 108.901043,125.918404 108.618304,125.588542 C108.335564,125.258679 108.08259,124.920141 107.859375,124.572917 C107.63616,124.225693 107.437129,123.805558 107.262277,123.3125 C107.087425,122.819442 107,122.34028 107,121.875 C107,120.347215 107.472466,119.152782 108.417411,118.291667 C109.362356,117.430551 110.668146,117 112.334821,117 C112.796133,117 113.266739,117.074652 113.746652,117.223958 C114.226565,117.373265 114.672989,117.574652 115.085938,117.828125 C115.498886,118.081598 115.854165,118.319443 116.151786,118.541667 C116.449406,118.76389 116.732142,118.999999 117,119.25 C117.267858,118.999999 117.550594,118.76389 117.848214,118.541667 C118.145835,118.319443 118.501114,118.081598 118.914062,117.828125 C119.327011,117.574652 119.773435,117.373265 120.253348,117.223958 C120.733261,117.074652 121.203867,117 121.665179,117 C123.331854,117 124.637644,117.430551 125.582589,118.291667 C126.527534,119.152782 127,120.347215 127,121.875 Z" id="heart-o---FontAwesome"></path>
		</g>
	</g>
</svg>
