<svg width="20px" height="20px" viewBox="0 0 20 20" version="1.1" xmlns="http://www.w3.org/2000/svg" xmlns:xlink="http://www.w3.org/1999/xlink">
	<!-- Generator: Sketch 48.2 (47327) - http://www.bohemiancoding.com/sketch -->
	<desc>Created with Sketch.</desc>
	<defs></defs>
	<g id="04_Profile" stroke="none" stroke-width="1" fill="none" fill-rule="evenodd">
		<g id="04_01_Profile" transform="translate(-287.000000, -31.000000)" stroke="#191919" stroke-width="1.5">
			<path d="M305.621494,39.8443776 L305.589195,39.838027 L303.533577,39.3867939 L303.420831,38.935808 C303.379354,38.7699016 303.325386,38.6131375 303.258977,38.4649951 C303.178644,38.2857898 303.095274,38.1097865 303.008867,37.9369727 L302.825614,37.5704657 L303.035036,37.218256 L303.91023,35.7475087 C304.014752,35.5867052 304.080422,35.3979043 304.106506,35.1718444 C304.119122,35.0625063 304.095463,34.9959674 304.008732,34.9092363 L303.129826,34.0303301 C303.033585,33.9340885 302.942224,33.8993316 302.803321,33.9070484 C302.578494,33.9195388 302.399274,33.9748301 302.247542,34.0734284 L300.482697,35.200968 L300.10209,35.0106641 C299.935754,34.9274962 299.766435,34.850263 299.594096,34.7789501 C299.421632,34.7075858 299.246118,34.6421401 299.067517,34.5826062 L298.661098,34.4471335 L298.571336,34.0282406 L298.221775,32.3966846 C298.185846,32.2385963 298.095945,32.0724736 297.940326,31.8952415 C297.847928,31.7900108 297.7601,31.75 297.625,31.75 L296.375,31.75 C296.251948,31.75 296.191012,31.7790511 296.126393,31.8618438 C295.985664,32.0421525 295.89841,32.2228927 295.851553,32.4360683 L295.337659,34.442701 L294.93855,34.5674225 C294.752711,34.625497 294.569772,34.6922843 294.389654,34.7678177 C294.209309,34.8434466 294.031727,34.9278703 293.856847,35.0211397 L293.470968,35.2269423 L293.101803,34.9924732 L291.635081,34.0603867 C291.506743,33.9725768 291.336419,33.919465 291.109542,33.9070899 C290.968183,33.8993794 290.886848,33.930662 290.786189,34.0361255 L289.907746,34.8947147 C289.825945,34.9810597 289.801736,35.0536882 289.815369,35.1718444 C289.842533,35.4072682 289.906817,35.6044057 290.005673,35.7691677 L291.128794,37.6330702 L290.96222,37.9939811 C290.887023,38.1569074 290.81169,38.3264064 290.736234,38.5024707 C290.670442,38.6559857 290.615991,38.8084466 290.572705,38.9599471 L290.4497,39.3904647 L290.012368,39.4864645 L288.378506,39.8443776 C288.22503,39.8710691 288.069039,39.9517538 287.902864,40.1017167 C287.79252,40.2012957 287.75,40.2956687 287.75,40.4335938 L287.75,41.6835938 C287.75,41.7911259 287.777005,41.8464541 287.861844,41.9126694 C288.049953,42.0594866 288.241156,42.1561867 288.425694,42.2044631 L290.472061,42.6975635 L290.592237,43.1181779 C290.635107,43.2682251 290.685459,43.4086785 290.743127,43.5397429 C290.809816,43.6913082 290.879464,43.8396895 290.95207,43.9849023 L291.136604,44.3539688 L290.923642,44.7073948 L290.006401,46.2296218 C289.906817,46.3955943 289.842533,46.5927318 289.815369,46.8281556 C289.801736,46.9463118 289.825945,47.0189403 289.887752,47.0849682 L290.806183,47.9841915 C290.886848,48.069338 290.968183,48.1006206 291.109542,48.0929101 C291.336419,48.080535 291.506743,48.0274232 291.656491,47.9254956 L293.470968,46.7730577 L293.856847,46.9788603 C294.029107,47.0707319 294.20734,47.154099 294.391658,47.2289782 C294.580907,47.3058607 294.769705,47.3737098 294.958081,47.4325775 L295.362593,47.5589873 L295.463015,47.9707204 L295.850713,49.5606836 C295.902407,49.7588442 295.999107,49.9500467 296.145924,50.1381562 C296.21214,50.2229946 296.267468,50.25 296.375,50.25 L297.625,50.25 C297.762925,50.25 297.857298,50.2074803 297.956877,50.097136 C298.10684,49.9309609 298.187525,49.7749704 298.220163,49.5910444 L298.664258,47.5432722 L299.080981,47.4130463 C299.265524,47.3553767 299.436926,47.2925294 299.595186,47.2247037 C299.763883,47.152405 299.932848,47.0739568 300.10209,46.9893359 L300.482697,46.799032 L300.841292,47.0281341 L302.252491,47.929761 C302.399274,48.0251699 302.578494,48.0804612 302.803321,48.0929516 C302.942224,48.1006684 303.033585,48.0659115 303.129826,47.9696699 L304.008732,47.0907637 C304.095463,47.0040326 304.119122,46.9374937 304.106506,46.8281556 C304.080422,46.6020957 304.014752,46.4132948 303.894411,46.2270565 L302.818011,44.4167483 L303.019334,44.0428626 C303.097828,43.8970887 303.167778,43.7487949 303.229259,43.5978867 C303.294601,43.4375023 303.357338,43.2672148 303.417394,43.0870479 L303.548906,42.6925112 L303.953212,42.5950881 L305.560684,42.2078808 C305.758844,42.1561867 305.950047,42.0594866 306.138156,41.9126694 C306.222995,41.8464541 306.25,41.7911259 306.25,41.6835938 L306.25,40.4335938 C306.25,40.2956687 306.20748,40.2012957 306.097136,40.1017167 C305.930961,39.9517538 305.77497,39.8710691 305.621494,39.8443776 Z M297,44.25 C296.110945,44.25 295.331003,43.9268196 294.702092,43.2979082 C294.07318,42.6689968 293.75,41.8890548 293.75,41 C293.75,40.1109452 294.07318,39.3310032 294.702092,38.7020918 C295.331003,38.0731804 296.110945,37.75 297,37.75 C297.889055,37.75 298.668997,38.0731804 299.297908,38.7020918 C299.92682,39.3310032 300.25,40.1109452 300.25,41 C300.25,41.8890548 299.92682,42.6689968 299.297908,43.2979082 C298.668997,43.9268196 297.889055,44.25 297,44.25 Z" id="settings---simple-line-icons"></path>
		</g>
	</g>
</svg>
