
<svg width="19px" height="19px" viewBox="0 0 19 19" version="1.1" xmlns="http://www.w3.org/2000/svg" xmlns:xlink="http://www.w3.org/1999/xlink">
	<!-- Generator: Sketch 48.2 (47327) - http://www.bohemiancoding.com/sketch -->
	<desc>Created with Sketch.</desc>
	<defs></defs>
	<g id="04_Profile" stroke="none" stroke-width="1" fill="none" fill-rule="evenodd">
		<g id="04_01_Profile" transform="translate(-15.000000, -492.000000)" stroke="#191919">
			<g id="icon-contact-us" transform="translate(15.000000, 492.000000)">
				<g id="Page-1" transform="translate(1.000000, 1.000000)">
					<path d="M0.447368421,8.28803684 C0.447368421,9.71514211 1.01821053,12.2848263 3.01705263,14.2827737 C5.015,16.2816158 7.58378947,16.8524579 9.01089474,16.8524579 C10.7243158,16.8524579 11.866,15.4253526 11.866,14.5681947 C11.0097368,13.7137211 9.58173684,12.8556684 8.72547368,12.5702474 C7.58378947,13.4291947 7.01294737,14.8536158 4.72957895,12.5702474 C2.44531579,10.2859842 3.87331579,9.71514211 4.72957895,8.57345789 C4.44415789,7.71719474 3.587,6.29008947 2.73073684,5.43382632 C1.87447368,5.43382632 0.447368421,6.57551053 0.447368421,8.28803684 Z" id="Stroke-1"></path>
					<path d="M12.8234579,14.4053526 C15.3564579,13.2565105 17.1244579,10.7100895 17.1244579,7.75298421 C17.1244579,3.72487895 13.8470368,0.447457895 9.81893158,0.447457895 C6.86182632,0.447457895 4.3163,2.21545789 3.16745789,4.74756316" id="Stroke-3"></path>
					<polyline id="Stroke-5" points="12.3118474 8.07535789 10.1456895 8.07535789 10.1456895 4.69056842"></polyline>
				</g>
			</g>
		</g>
	</g>
</svg>
