<?xml version="1.0" encoding="UTF-8"?>
<svg width="16px" height="14px" viewBox="0 0 16 14" version="1.1" xmlns="http://www.w3.org/2000/svg" xmlns:xlink="http://www.w3.org/1999/xlink">
    <!-- Generator: Sketch 49.1 (51147) - http://www.bohemiancoding.com/sketch -->
    <title>lovelist-icon-inactive</title>
    <desc>Created with Sketch.</desc>
    <defs></defs>
    <g id="MS-5-(Profile,-Checkout,-Payment)" stroke="none" stroke-width="1" fill="none" fill-rule="evenodd">
        <g id="04_01_Profile_login-user" transform="translate(-18.000000, -415.000000)" stroke="#191919">
            <path d="M31.5979813,423.013939 C32.8744697,421.707601 33.4959999,420.460091 33.4959999,419.265 C33.4959999,418.054866 33.1639261,417.136478 32.5088304,416.484043 C31.8538339,415.830862 30.9365592,415.5 29.7288982,415.5 C29.4157454,415.5 29.0944124,415.555965 28.7606665,415.670709 C28.416982,415.786791 28.1004287,415.94231 27.807322,416.138879 C27.4934561,416.349996 27.2206657,416.550254 26.9921315,416.736549 C26.7743306,416.914095 26.5622935,417.107846 26.3531287,417.319476 L25.9966993,417.680106 L25.6410922,417.318665 C25.4345191,417.108703 25.2226392,416.914886 25.0038684,416.736549 C24.7743938,416.549488 24.5015429,416.349357 24.1876986,416.138879 C23.8957894,415.942532 23.5794341,415.786897 23.2341086,415.669959 C22.9016869,415.555954 22.580213,415.5 22.2671017,415.5 C21.0594407,415.5 20.142166,415.830862 19.48694,416.484272 C18.8320738,417.136478 18.5,418.054866 18.5,419.265 C18.5,419.617543 18.5613362,419.984992 18.6853222,420.370137 C18.8130845,420.765174 18.9591142,421.101578 19.1188411,421.3731 C19.2859227,421.658061 19.4751487,421.935585 19.6868092,422.20597 C19.9106389,422.490667 20.0636091,422.674859 20.1523461,422.767167 C20.2448925,422.864337 20.3121694,422.929329 20.3860249,422.991813 L25.9620036,428.485151 C25.975891,428.499331 25.9774812,428.5 25.9975103,428.5 C26.0184035,428.5 26.0199625,428.499344 26.0406462,428.478488 L27.4187595,427.123346 L28.0413177,426.51166 L28.7486174,425.815466 L31.5979813,423.013939 Z" id="lovelist-icon-inactive"></path>
        </g>
    </g>
</svg>