
<svg width="50px" height="50px" viewBox="0 0 50 50" version="1.1" xmlns="http://www.w3.org/2000/svg" xmlns:xlink="http://www.w3.org/1999/xlink">
	<!-- Generator: Sketch 48.2 (47327) - http://www.bohemiancoding.com/sketch -->
	<desc>Created with Sketch.</desc>
	<defs></defs>
	<g id="MS-3-(Hashtags,-Lovelist,-Shopping-Bag,-Promo)" stroke="none" stroke-width="1" fill="none" fill-rule="evenodd">
		<g id="00_01_Lovelist-NotLoggedin" transform="translate(-135.000000, -211.000000)" fill="#FFFFFF">
			<path d="M159.999767,211 C146.214777,211 135,222.21501 135,235.9993 C135,249.784524 146.214777,260.999534 159.999767,260.999534 C165.456631,260.999534 170.640664,259.273466 174.991512,256.007649 C177.769497,253.922236 180.088099,251.253617 181.788982,248.243142 C181.669356,248.250371 181.548564,248.257366 181.427772,248.257366 C178.251966,248.257366 175.668461,245.673628 175.668461,242.498522 C175.668461,242.135446 175.702973,241.770971 175.770364,241.415124 C175.780392,241.360091 175.793917,241.306457 175.81024,241.253523 L177.825462,232.897649 C177.98543,232.233059 177.896585,231.641457 177.573851,231.231744 C177.271404,230.848613 176.787303,230.645272 176.173082,230.645272 C174.572937,230.645272 172.88931,232.01456 172.498717,233.634061 L170.168922,243.293231 C169.995196,244.01332 169.351594,244.496721 168.642465,244.496721 C168.52004,244.496721 168.39645,244.48273 168.272626,244.452882 C167.428481,244.249307 166.909868,243.400498 167.113209,242.556586 L169.443237,232.897182 C169.603671,232.233059 169.514593,231.641457 169.191393,231.231744 C168.889645,230.848613 168.405311,230.645272 167.791557,230.645272 C166.189546,230.645272 164.507084,232.01456 164.116259,233.634061 L161.787163,243.293231 C161.76641,243.375314 161.739126,243.452266 161.708345,243.527586 C161.703448,243.540179 161.698551,243.553704 161.692022,243.565829 C161.661474,243.636719 161.624864,243.702712 161.584522,243.766839 C161.575661,243.78013 161.567732,243.792723 161.558638,243.805082 C161.515964,243.869442 161.469559,243.929372 161.418258,243.984871 C161.413361,243.991633 161.406598,243.99723 161.401002,244.003059 C161.349933,244.056227 161.296533,244.106129 161.238702,244.151135 C161.231007,244.156964 161.224011,244.16396 161.216549,244.16979 C161.156153,244.215728 161.092725,244.257236 161.026266,244.293847 C161.015073,244.300609 161.002714,244.307372 160.991055,244.313901 C160.923197,244.349346 160.854406,244.38036 160.781884,244.405778 C160.773722,244.409042 160.765094,244.411374 160.756233,244.414172 C160.604427,244.465008 160.443993,244.49299 160.279361,244.495089 C160.273065,244.495089 160.266302,244.496721 160.260006,244.496721 C160.254176,244.496721 160.248113,244.496022 160.241351,244.496022 C160.197511,244.495089 160.153439,244.492291 160.109133,244.487627 C160.095141,244.486927 160.08045,244.485995 160.065526,244.484362 C160.007229,244.4769 159.949165,244.46664 159.890401,244.452882 C159.046255,244.249307 158.527642,243.400498 158.731683,242.556586 L161.061245,232.897182 C161.221679,232.233059 161.131901,231.642157 160.8094,231.232443 C160.506254,230.848613 160.022386,230.645272 159.408632,230.645272 C157.80732,230.645272 156.125092,232.01456 155.7338,233.634061 L153.404005,243.293231 C153.384417,243.375314 153.356668,243.452266 153.325654,243.527819 C153.32099,243.540179 153.315393,243.55347 153.310263,243.565829 C153.279249,243.636719 153.241939,243.703877 153.20183,243.767538 C153.193435,243.780364 153.18574,243.792489 153.176879,243.804848 C153.133972,243.868742 153.087567,243.929605 153.035566,243.98627 C153.030669,243.9914 153.025306,243.995597 153.020875,244.001194 C152.968641,244.056227 152.913375,244.106829 152.854844,244.1537 C152.848082,244.15813 152.842019,244.16466 152.835023,244.169323 C152.774627,244.215728 152.7098,244.257702 152.643108,244.295246 C152.632148,244.301542 152.621655,244.307372 152.610462,244.312968 C152.542604,244.349346 152.472181,244.380826 152.399192,244.406477 C152.391031,244.409275 152.383802,244.411374 152.375873,244.413939 C152.223367,244.465008 152.062234,244.49299 151.896436,244.495089 C151.89014,244.495089 151.884077,244.496721 151.877781,244.496721 C151.871485,244.496721 151.865888,244.496022 151.859359,244.496022 C151.815519,244.495089 151.771446,244.492291 151.72714,244.487627 C151.713149,244.486927 151.697992,244.485995 151.683534,244.484362 C151.625237,244.4769 151.566706,244.46664 151.507709,244.452882 C150.664496,244.249307 150.144951,243.400498 150.348991,242.556586 L152.678553,232.897182 C152.838987,232.233059 152.749676,231.642157 152.427408,231.232443 C152.124962,230.848613 151.640627,230.645272 151.02594,230.645272 C149.426028,230.645272 147.743566,232.013394 147.351808,233.633128 L147.351808,233.633827 L147.351808,233.63476 L145.021547,243.293231 C144.818439,244.137143 143.969629,244.657156 143.12595,244.452882 C142.282271,244.249307 141.762958,243.400498 141.966999,242.556586 L144.296328,232.898348 L144.296328,232.897649 L144.567527,231.773676 C144.651942,231.417362 144.614631,231.112351 144.459327,230.916238 C144.283969,230.692377 143.983621,230.645272 143.762091,230.645272 C142.784794,230.645272 141.71632,231.519732 141.475669,232.515918 C141.301943,233.23554 140.658807,233.718942 139.948978,233.718942 C139.827253,233.718942 139.703197,233.704484 139.579373,233.675102 C138.735227,233.470828 138.216614,232.622019 138.420888,231.778806 C138.998731,229.38092 141.345083,227.503279 143.762091,227.503279 C145.03717,227.503279 146.190059,228.037049 146.924838,228.968174 C148.112705,228.057803 149.558013,227.503279 151.02594,227.503279 C152.592273,227.503279 154.002602,228.152944 154.896417,229.288343 C154.898749,229.292074 154.902014,229.296039 154.905045,229.300236 C156.159371,228.193752 157.76931,227.503279 159.408632,227.503279 C160.974732,227.503279 162.385061,228.152944 163.277943,229.287877 C163.281674,229.292074 163.284472,229.296039 163.287737,229.300236 C164.542063,228.193752 166.152002,227.503279 167.791557,227.503279 C169.35719,227.503279 170.767986,228.152944 171.659702,229.287877 C171.664133,229.291608 171.666931,229.295572 171.670429,229.300003 C172.924288,228.193752 174.534927,227.503279 176.173082,227.503279 C177.739649,227.503279 179.149512,228.152944 180.043327,229.287877 C180.961393,230.453357 181.266172,232.037413 180.880243,233.634061 L178.851729,242.050098 C178.826078,242.197474 178.811154,242.348114 178.811154,242.498522 C178.811154,243.941264 179.985262,245.11444 181.427772,245.11444 C182.555709,245.11444 183.548163,244.400181 183.907275,243.334039 C184.632027,240.9674 185,238.499557 185,235.9993 C185,222.21501 173.784757,211 159.999767,211" id="Fill-42"></path>
		</g>
	</g>
</svg>
