<?xml version="1.0" encoding="UTF-8"?>
<svg width="118px" height="35px" viewBox="0 0 118 35" version="1.1" xmlns="http://www.w3.org/2000/svg" xmlns:xlink="http://www.w3.org/1999/xlink">
    <!-- Generator: Sketch 49.1 (51147) - http://www.bohemiancoding.com/sketch -->
    <title>Group 5</title>
    <desc>Created with Sketch.</desc>
    <defs></defs>
    <g id="Symbols" stroke="none" stroke-width="1" fill="none" fill-rule="evenodd">
        <g id="Footer" transform="translate(-167.000000, -284.000000)">
            <g id="footer">
                <g id="Group-5" transform="translate(167.000000, 284.000000)">
                    <rect id="Rectangle-2" fill="#000000" x="0" y="0" width="118" height="35" rx="4"></rect>
                    <g id="Group-6" transform="translate(8.740741, 4.375000)" fill="#FFFFFF">
                        <path d="M16.2659941,12.93215 C16.2397719,9.9799 18.6810607,8.54315 18.7929422,8.47665 C17.410157,6.4589 15.2660533,6.1824 14.5134756,6.1614 C12.713757,5.971525 10.967357,7.2394 10.0513274,7.2394 C9.11519407,7.2394 7.70269037,6.179775 6.18267556,6.2104 C4.22474963,6.2419 2.3918163,7.3759 1.38750519,9.13815 C-0.686672593,12.731775 0.860438519,18.013275 2.84633481,20.918275 C3.84015704,22.34015 5.00092741,23.92915 6.52094222,23.87315 C8.00774222,23.811025 8.56277926,22.923775 10.3581274,22.923775 C12.1359941,22.923775 12.6578163,23.87315 14.2084237,23.837275 C15.8036089,23.811025 16.8087941,22.4084 17.7676533,20.97165 C18.9161867,19.341525 19.3776978,17.7359 19.3951793,17.65365 C19.3584681,17.6414 16.2965867,16.471525 16.2659941,12.93215" id="Fill-4"></path>
                        <path d="M13.3373215,4.2504875 C14.1370993,3.2486125 14.6842696,1.8871125 14.5321807,0.5046125 C13.3749067,0.5553625 11.92744,1.3061125 11.0944474,2.2852375 C10.3567289,3.1479875 9.69767704,4.5628625 9.86724741,5.8928625 C11.1678696,5.9891125 12.5025807,5.2366125 13.3373215,4.2504875" id="Fill-6"></path>
                        <path d="M34.2263807,18.585525 L33.1967215,15.402275 C33.0883363,15.076775 32.883803,14.31115 32.5822474,13.1054 L32.5464104,13.1054 C32.4257881,13.62515 32.2334919,14.3899 31.9677733,15.402275 L30.9564696,18.585525 L34.2263807,18.585525 Z M37.7856104,23.669275 L35.7079363,23.669275 L34.5698919,20.0879 L30.6129585,20.0879 L29.5291067,23.669275 L27.5064993,23.669275 L31.4258474,11.478775 L33.8470326,11.478775 L37.7856104,23.669275 Z" id="Fill-8"></path>
                        <path d="M45.8804104,19.2366125 C45.8804104,18.3817375 45.68724,17.6764875 45.3017733,17.1208625 C44.8795956,16.5424875 44.3140696,16.2528625 43.6043215,16.2528625 C43.1218326,16.2528625 42.6847956,16.4129875 42.2932104,16.7323625 C41.9016252,17.0526125 41.6455215,17.4708625 41.5266474,17.9897375 C41.4654622,18.2321125 41.4357437,18.4298625 41.4357437,18.5856125 L41.4357437,20.0512375 C41.4357437,20.6908625 41.6315363,21.2298625 42.0231215,21.6699875 C42.4138326,22.1101125 42.9225437,22.3306125 43.5492548,22.3306125 C44.2843511,22.3306125 44.8559956,22.0471125 45.2659363,21.4801125 C45.675003,20.9131125 45.8804104,20.1658625 45.8804104,19.2366125 M47.8671807,19.1657375 C47.8671807,20.6602375 47.4642326,21.8423625 46.6574622,22.7103625 C45.934603,23.4821125 45.0369289,23.8671125 43.9653141,23.8671125 C42.80804,23.8671125 41.9776696,23.4506125 41.4715807,22.6193625 L41.4357437,22.6193625 L41.4357437,27.2498625 L39.4848104,27.2498625 L39.4848104,17.7727375 C39.4848104,16.8321125 39.4594622,15.8678625 39.4122622,14.8791125 L41.1280696,14.8791125 L41.2373289,16.2712375 L41.2731659,16.2712375 C41.923477,15.2221125 42.9111807,14.6979875 44.235403,14.6979875 C45.2720548,14.6979875 46.1365141,15.1074875 46.8287807,15.9273625 C47.5210474,16.7481125 47.8671807,17.8278625 47.8671807,19.1657375" id="Fill-10"></path>
                        <path d="M55.9800741,19.2366125 C55.9800741,18.3817375 55.7869037,17.6764875 55.400563,17.1208625 C54.9783852,16.5424875 54.4146074,16.2528625 53.7031111,16.2528625 C53.2206222,16.2528625 52.7844593,16.4129875 52.3928741,16.7323625 C52.0012889,17.0526125 51.7460593,17.4708625 51.6263111,17.9897375 C51.566,18.2321125 51.5354074,18.4298625 51.5354074,18.5856125 L51.5354074,20.0512375 C51.5354074,20.6908625 51.7312,21.2298625 52.121037,21.6699875 C52.5126222,22.1101125 53.0222074,22.3306125 53.6497926,22.3306125 C54.3840148,22.3306125 54.9556593,22.0471125 55.3656,21.4801125 C55.7746667,20.9131125 55.9800741,20.1658625 55.9800741,19.2366125 M57.9668444,19.1657375 C57.9668444,20.6602375 57.5638963,21.8423625 56.7562519,22.7103625 C56.0342667,23.4821125 55.1365926,23.8671125 54.0641037,23.8671125 C52.9077037,23.8671125 52.0764593,23.4506125 51.5712444,22.6193625 L51.5354074,22.6193625 L51.5354074,27.2498625 L49.5844741,27.2498625 L49.5844741,17.7727375 C49.5844741,16.8321125 49.5591259,15.8678625 49.5119259,14.8791125 L51.2277333,14.8791125 L51.3369926,16.2712375 L51.3728296,16.2712375 C52.0231407,15.2221125 53.0099704,14.6979875 54.3359407,14.6979875 C55.3708444,14.6979875 56.2353037,15.1074875 56.9293185,15.9273625 C57.6207111,16.7481125 57.9668444,17.8278625 57.9668444,19.1657375" id="Fill-12"></path>
                        <path d="M69.259357,20.2509125 C69.259357,21.2877875 68.9001126,22.1304125 68.1781274,22.7822875 C67.3835941,23.4945375 66.2805126,23.8489125 64.8610163,23.8489125 C63.5507793,23.8489125 62.5001422,23.5960375 61.7038607,23.0902875 L62.1566311,21.4619125 C63.0132237,21.9807875 63.9528533,22.2397875 64.9772681,22.2397875 C65.7114904,22.2397875 66.2840089,22.0735375 66.6939496,21.7419125 C67.1038904,21.4094125 67.3084237,20.9649125 67.3084237,20.4101625 C67.3084237,19.9149125 67.1397274,19.4984125 66.8014607,19.1597875 C66.4658163,18.8220375 65.9046607,18.5079125 65.1223644,18.2174125 C62.9896237,17.4211625 61.9241274,16.2556625 61.9241274,14.7217875 C61.9241274,13.7190375 62.297357,12.8974125 63.0455644,12.2569125 C63.7902756,11.6172875 64.7840978,11.2979125 66.026157,11.2979125 C67.1336089,11.2979125 68.054883,11.4904125 68.7891052,11.8762875 L68.3013719,13.4679125 C67.6152237,13.0942875 66.8390459,12.9070375 65.9702163,12.9070375 C65.2840681,12.9070375 64.7482607,13.0759125 64.3636681,13.4145375 C64.0385126,13.7146625 63.8759348,14.0821625 63.8759348,14.5170375 C63.8759348,14.9991625 64.0621126,15.3972875 64.4353422,15.7105375 C64.7613719,16.0010375 65.3504978,16.3134125 66.2070904,16.6520375 C67.2542311,17.0737875 68.0242904,17.5681625 68.5190163,18.1342875 C69.0128681,18.7012875 69.259357,19.4065375 69.259357,20.2509125" id="Fill-14"></path>
                        <path d="M75.7098489,16.344125 L73.5596267,16.344125 L73.5596267,20.612375 C73.5596267,21.6965 73.9389748,22.239875 74.6976711,22.239875 C75.0464267,22.239875 75.3357452,22.20925 75.5647526,22.14975 L75.6189452,23.632875 C75.2343526,23.77725 74.7282637,23.849 74.1006785,23.849 C73.3306193,23.849 72.7283822,23.6145 72.2939674,23.14375 C71.8621748,22.673875 71.6436563,21.88375 71.6436563,20.77425 L71.6436563,16.344125 L70.3622637,16.344125 L70.3622637,14.8785 L71.6436563,14.8785 L71.6436563,13.2685 L73.5596267,12.690125 L73.5596267,14.8785 L75.7098489,14.8785 L75.7098489,16.344125 Z" id="Fill-16"></path>
                        <path d="M83.3878904,19.2647875 C83.3878904,18.4536625 83.2148237,17.7589125 82.8634459,17.1779125 C82.4552533,16.4770375 81.8704978,16.1261625 81.1118015,16.1261625 C80.327757,16.1261625 79.7325126,16.4770375 79.3234459,17.1779125 C78.9729422,17.7589125 78.7998756,18.4659125 78.7998756,19.3015375 C78.7998756,20.1117875 78.9729422,20.8074125 79.3234459,21.3866625 C79.7447496,22.0884125 80.3347496,22.4384125 81.09432,22.4384125 C81.8399052,22.4384125 82.4237867,22.0822875 82.8459644,21.3682875 C83.206957,20.7767875 83.3878904,20.0741625 83.3878904,19.2647875 M85.4122459,19.2017875 C85.4122459,20.5519125 85.0267793,21.6614125 84.2558459,22.5285375 C83.4482015,23.4219125 82.3757126,23.8672875 81.0383793,23.8672875 C79.7508681,23.8672875 78.7247052,23.4394125 77.9598904,22.5836625 C77.1942015,21.7270375 76.8122311,20.6472875 76.8122311,19.3461625 C76.8122311,17.9837875 77.2055644,16.8681625 77.9957274,16.0010375 C78.7832681,15.1312875 79.8470163,14.6972875 81.1843496,14.6972875 C82.4727348,14.6972875 83.5093867,15.1260375 84.291683,15.9826625 C85.0390163,16.8139125 85.4122459,17.8875375 85.4122459,19.2017875" id="Fill-18"></path>
                        <path d="M91.7539156,16.5962125 C91.5607452,16.5603375 91.3553378,16.5419625 91.1394415,16.5419625 C90.4524193,16.5419625 89.9218563,16.8018375 89.5486267,17.3207125 C89.222597,17.7792125 89.0600193,18.3575875 89.0600193,19.0567125 L89.0600193,23.6688375 L87.1108341,23.6688375 L87.1283156,17.6462125 C87.1283156,16.6329625 87.1038415,15.7098375 87.0548933,14.8785875 L88.7540933,14.8785875 L88.8257674,16.5603375 L88.87996,16.5603375 C89.0853674,15.9828375 89.410523,15.5173375 89.8554267,15.1682125 C90.2898415,14.8549625 90.7600933,14.6974625 91.2653081,14.6974625 C91.4462415,14.6974625 91.6088193,14.7105875 91.7539156,14.7333375 L91.7539156,16.5962125 Z" id="Fill-20"></path>
                        <path d="M98.6184563,18.351375 C98.6315674,17.773 98.5039526,17.2725 98.2391081,16.849875 C97.9025896,16.307375 97.3833896,16.036125 96.6850044,16.036125 C96.0469304,16.036125 95.5286044,16.300375 95.1317748,16.832375 C94.8066193,17.255 94.6134489,17.76075 94.5548859,18.351375 L98.6184563,18.351375 Z M100.47936,18.858 C100.47936,19.208 100.456634,19.502 100.407686,19.7435 L94.5548859,19.7435 C94.5776119,20.612375 94.8599378,21.275625 95.4027378,21.73325 C95.8965896,22.143625 96.5346637,22.348375 97.3178341,22.348375 C98.1840415,22.348375 98.9742044,22.20925 99.6857007,21.93275 L99.9907526,23.289 C99.1603822,23.65125 98.178797,23.8315 97.0477452,23.8315 C95.6859378,23.8315 94.6169452,23.43075 93.8390193,22.628375 C93.0645896,21.826875 92.6738785,20.750625 92.6738785,19.399625 C92.6738785,18.074 93.0348711,16.970625 93.7586044,16.0895 C94.5173007,15.14975 95.5408415,14.679875 96.8292267,14.679875 C98.0948859,14.679875 99.0528711,15.14975 99.7031822,16.0895 C100.21976,16.8385 100.47936,17.76075 100.47936,18.858 Z" id="Fill-22"></path>
                        <path d="M32.5695733,4.0053125 C32.5695733,3.3053125 32.3851437,2.7698125 32.0145363,2.3961875 C31.644803,2.0234375 31.1046252,1.8361875 30.394877,1.8361875 C30.0924474,1.8361875 29.8354696,1.8571875 29.6230696,1.8991875 L29.6230696,6.3774375 C29.7410696,6.3949375 29.9569659,6.4036875 30.2707585,6.4036875 C31.0041067,6.4036875 31.5705067,6.1998125 31.9699585,5.7911875 C32.3694104,5.3816875 32.5695733,4.7875625 32.5695733,4.0053125 M33.5817511,3.9781875 C33.5817511,5.0561875 33.2592178,5.8681875 32.6141511,6.4133125 C32.0154104,6.9164375 31.1675585,7.1684375 30.0670993,7.1684375 C29.521677,7.1684375 29.0549215,7.1448125 28.6633363,7.0966875 L28.6633363,1.2061875 C29.1729215,1.1230625 29.7227141,1.0810625 30.3153363,1.0810625 C31.362477,1.0810625 32.15264,1.3094375 32.6849511,1.7653125 C33.2819437,2.2806875 33.5817511,3.0183125 33.5817511,3.9781875" id="Fill-24"></path>
                        <path d="M37.9480133,4.9511875 C37.9480133,4.5530625 37.86148,4.2118125 37.6901615,3.9265625 C37.4899985,3.5818125 37.2024281,3.4094375 36.8300726,3.4094375 C36.4446059,3.4094375 36.150917,3.5818125 35.9507541,3.9265625 C35.7794356,4.2118125 35.6929022,4.5591875 35.6929022,4.9695625 C35.6929022,5.3676875 35.7794356,5.7080625 35.9507541,5.9933125 C36.1579096,6.3380625 36.4472281,6.5104375 36.8213319,6.5104375 C37.1875689,6.5104375 37.4742652,6.3354375 37.6814207,5.9854375 C37.8588578,5.6940625 37.9480133,5.3493125 37.9480133,4.9511875 M38.9427096,4.9205625 C38.9427096,5.5838125 38.7530356,6.1289375 38.3736874,6.5550625 C37.9768578,6.9934375 37.4515393,7.2130625 36.7942356,7.2130625 C36.1605319,7.2130625 35.6561911,7.0030625 35.2803393,6.5813125 C34.9053615,6.1613125 34.7174356,5.6301875 34.7174356,4.9914375 C34.7174356,4.3220625 34.9097319,3.7743125 35.2986948,3.3473125 C35.6859096,2.9211875 36.2077319,2.7085625 36.8650356,2.7085625 C37.4978652,2.7085625 38.0065763,2.9185625 38.392043,3.3385625 C38.75828,3.7471875 38.9427096,4.2748125 38.9427096,4.9205625" id="Fill-26"></path>
                        <path d="M46.131357,2.79615 L44.7817867,7.11515 L43.9033422,7.11515 L43.3448089,5.240025 C43.2023348,4.7719 43.0878311,4.307275 42.9978015,3.8444 L42.9811941,3.8444 C42.898157,4.31865 42.7827793,4.78415 42.6341867,5.240025 L42.0398163,7.11515 L41.151757,7.11515 L39.8826015,2.79615 L40.868557,2.79615 L41.3562904,4.8489 C41.4742904,5.334525 41.5713126,5.7974 41.6491052,6.235775 L41.6665867,6.235775 C41.7382607,5.8744 41.8553867,5.415025 42.0223348,4.85765 L42.6341867,2.79615 L43.4156089,2.79615 L44.0003644,4.8139 C44.1437126,5.304775 44.2582163,5.779025 44.3473719,6.235775 L44.3735941,6.235775 C44.4382756,5.791275 44.5370459,5.317025 44.667283,4.8139 L45.1908533,2.79615 L46.131357,2.79615 Z" id="Fill-28"></path>
                        <path d="M51.1026533,7.1148 L50.1437941,7.1148 L50.1437941,4.64205 C50.1437941,3.879925 49.8544756,3.498425 49.2740904,3.498425 C48.9900163,3.498425 48.7592607,3.603425 48.5818237,3.813425 C48.4052607,4.023425 48.3161052,4.2693 48.3161052,4.5528 L48.3161052,7.1148 L47.3572459,7.1148 L47.3572459,4.032175 C47.3572459,3.652425 47.3450089,3.241175 47.322283,2.7958 L48.1648904,2.7958 L48.2085941,3.4713 L48.2365644,3.4713 C48.3484459,3.262175 48.5136459,3.08805 48.7330385,2.9498 C48.9935126,2.7888 49.2837052,2.7083 49.6027422,2.7083 C50.0056904,2.7083 50.3395867,2.8378 50.6061793,3.09855 C50.9383274,3.417925 51.1026533,3.8948 51.1026533,4.529175 L51.1026533,7.1148 Z" id="Fill-30"></path>
                        <polygon id="Fill-32" points="52.7888296 7.114625 53.7476889 7.114625 53.7476889 0.814625 52.7888296 0.814625"></polygon>
                        <path d="M58.3982874,4.9511875 C58.3982874,4.5530625 58.3117541,4.2118125 58.1404356,3.9265625 C57.9411467,3.5818125 57.6527022,3.4094375 57.2812207,3.4094375 C56.89488,3.4094375 56.6011911,3.5818125 56.4019022,3.9265625 C56.2305837,4.2118125 56.1440504,4.5591875 56.1440504,4.9695625 C56.1440504,5.3676875 56.2305837,5.7080625 56.4019022,5.9933125 C56.6090578,6.3380625 56.8983763,6.5104375 57.27248,6.5104375 C57.638717,6.5104375 57.9245393,6.3354375 58.1316948,5.9854375 C58.3100059,5.6940625 58.3982874,5.3493125 58.3982874,4.9511875 M59.3938578,4.9205625 C59.3938578,5.5838125 59.2041837,6.1289375 58.8248356,6.5550625 C58.4280059,6.9934375 57.9018133,7.2130625 57.2453837,7.2130625 C56.6108059,7.2130625 56.1064652,7.0030625 55.7314874,6.5813125 C55.3565096,6.1613125 55.1685837,5.6301875 55.1685837,4.9914375 C55.1685837,4.3220625 55.36088,3.7743125 55.749843,3.3473125 C56.1370578,2.9211875 56.65888,2.7085625 57.3153096,2.7085625 C57.9490133,2.7085625 58.4568504,2.9185625 58.8431911,3.3385625 C59.2094281,3.7471875 59.3938578,4.2748125 59.3938578,4.9205625" id="Fill-34"></path>
                        <path d="M63.0391837,5.6305375 L63.0391837,4.9646625 C61.9815541,4.9471625 61.4527393,5.2376625 61.4527393,5.8352875 C61.4527393,6.0601625 61.5130504,6.2299125 61.6371689,6.3419125 C61.7595393,6.4539125 61.9168726,6.5107875 62.1047985,6.5107875 C62.3154504,6.5107875 62.512117,6.4442875 62.6913022,6.3104125 C62.8722356,6.1774125 62.9823689,6.0076625 63.0234504,5.7994125 C63.0339393,5.7530375 63.0391837,5.6961625 63.0391837,5.6305375 M64.0356281,7.1145375 L63.1737911,7.1145375 L63.102117,6.6175375 L63.0750207,6.6175375 C62.7804578,7.0139125 62.3609022,7.2134125 61.81548,7.2134125 C61.4081615,7.2134125 61.0795096,7.0821625 60.8303985,6.8214125 C60.6057615,6.5851625 60.4930059,6.2920375 60.4930059,5.9420375 C60.4930059,5.4152875 60.7123985,5.0119125 61.1538059,4.7336625 C61.5960874,4.4554125 62.2158059,4.3189125 63.0147096,4.3250375 L63.0147096,4.2445375 C63.0147096,3.6766625 62.7157763,3.3914125 62.1187837,3.3914125 C61.6939837,3.3914125 61.3181319,3.4981625 60.9947244,3.7116625 L60.7998059,3.0807875 C61.2001319,2.8322875 61.6957319,2.7080375 62.2804874,2.7080375 C63.408043,2.7080375 63.9718207,3.3030375 63.9718207,4.4939125 L63.9718207,6.0846625 C63.9718207,6.5169125 63.9945467,6.8599125 64.0356281,7.1145375" id="Fill-35"></path>
                        <path d="M68.4910459,5.2938375 L68.4910459,4.5737125 C68.4910459,4.4485875 68.4814311,4.3488375 68.4639496,4.2718375 C68.409757,4.0399625 68.2935052,3.8465875 68.1169422,3.6899625 C67.9386311,3.5324625 67.7236089,3.4537125 67.4753719,3.4537125 C67.1187496,3.4537125 66.8372978,3.5963375 66.6318904,3.8807125 C66.4282311,4.1650875 66.3242163,4.5290875 66.3242163,4.9735875 C66.3242163,5.3997125 66.4229867,5.7470875 66.6187793,6.0130875 C66.8268089,6.2965875 67.1073867,6.4400875 67.4570163,6.4400875 C67.772557,6.4400875 68.0242904,6.3210875 68.2157126,6.0839625 C68.4001422,5.8652125 68.4910459,5.6018375 68.4910459,5.2938375 M69.4848681,7.1147125 L68.63352,7.1147125 L68.5889422,6.4217125 L68.5618459,6.4217125 C68.290883,6.9493375 67.8276237,7.2127125 67.1773126,7.2127125 C66.6563644,7.2127125 66.2245719,7.0088375 65.8819348,6.5993375 C65.5384237,6.1907125 65.3671052,5.6604625 65.3671052,5.0094625 C65.3671052,4.3103375 65.5524089,3.7442125 65.9256385,3.3119625 C66.2875052,2.9085875 66.7297867,2.7082125 67.2577274,2.7082125 C67.8363644,2.7082125 68.2428089,2.9033375 68.4726904,3.2944625 L68.4910459,3.2944625 L68.4910459,0.8147125 L69.4507793,0.8147125 L69.4507793,5.9509625 C69.4507793,6.3709625 69.4612681,6.7594625 69.4848681,7.1147125" id="Fill-36"></path>
                        <path d="M76.6923956,4.9511875 C76.6923956,4.5530625 76.6067363,4.2118125 76.4354178,3.9265625 C76.2335067,3.5818125 75.9468104,3.4094375 75.5735807,3.4094375 C75.1889881,3.4094375 74.8961733,3.5818125 74.6942622,3.9265625 C74.5229437,4.2118125 74.4372844,4.5591875 74.4372844,4.9695625 C74.4372844,5.3676875 74.5229437,5.7080625 74.6942622,5.9933125 C74.9014178,6.3380625 75.1907363,6.5104375 75.56484,6.5104375 C75.931077,6.5104375 76.2186474,6.3354375 76.425803,5.9854375 C76.60324,5.6940625 76.6923956,5.3493125 76.6923956,4.9511875 M77.6862178,4.9205625 C77.6862178,5.5838125 77.4965437,6.1289375 77.1180696,6.5550625 C76.72124,6.9934375 76.1959215,7.2130625 75.5386178,7.2130625 C74.9049141,7.2130625 74.4014474,7.0030625 74.0238474,6.5813125 C73.6488696,6.1613125 73.4618178,5.6301875 73.4618178,4.9914375 C73.4618178,4.3220625 73.6541141,3.7743125 74.042203,3.3473125 C74.4294178,2.9211875 74.9521141,2.7085625 75.6094178,2.7085625 C76.2413733,2.7085625 76.7509585,2.9185625 77.1355511,3.3385625 C77.5026622,3.7471875 77.6862178,4.2748125 77.6862178,4.9205625" id="Fill-37"></path>
                        <path d="M82.8424681,7.1148 L81.884483,7.1148 L81.884483,4.64205 C81.884483,3.879925 81.5942904,3.498425 81.0139052,3.498425 C80.7298311,3.498425 80.4990756,3.603425 80.3225126,3.813425 C80.1450756,4.023425 80.05592,4.2693 80.05592,4.5528 L80.05592,7.1148 L79.0961867,7.1148 L79.0961867,4.032175 C79.0961867,3.652425 79.0856978,3.241175 79.0629719,2.7958 L79.9047052,2.7958 L79.9484089,3.4713 L79.9763793,3.4713 C80.0882607,3.262175 80.2543348,3.08805 80.4728533,2.9498 C80.7333274,2.7888 81.0226459,2.7083 81.342557,2.7083 C81.7446311,2.7083 82.0794015,2.8378 82.3459941,3.09855 C82.6781422,3.417925 82.8424681,3.8948 82.8424681,4.529175 L82.8424681,7.1148 Z" id="Fill-38"></path>
                        <path d="M89.2964563,3.5165375 L88.2397007,3.5165375 L88.2397007,5.6130375 C88.2397007,6.1467875 88.4276267,6.4136625 88.7999822,6.4136625 C88.9713007,6.4136625 89.1137748,6.3987875 89.2265304,6.3690375 L89.2510044,7.0970375 C89.0622044,7.1687875 88.8130933,7.2037875 88.5062933,7.2037875 C88.1269452,7.2037875 87.8323822,7.0882875 87.6199822,6.8572875 C87.4058341,6.6262875 87.3000711,6.2377875 87.3000711,5.6935375 L87.3000711,3.5165375 L86.6689896,3.5165375 L86.6689896,2.7964125 L87.3000711,2.7964125 L87.3000711,2.0054125 L88.2397007,1.7210375 L88.2397007,2.7964125 L89.2964563,2.7964125 L89.2964563,3.5165375 Z" id="Fill-39"></path>
                        <path d="M94.373603,7.1148 L93.4138696,7.1148 L93.4138696,4.65955 C93.4138696,3.88605 93.1245511,3.498425 92.54504,3.498425 C92.1001363,3.498425 91.7968326,3.7233 91.6298844,4.172175 C91.6019141,4.266675 91.5861807,4.382175 91.5861807,4.5178 L91.5861807,7.1148 L90.6281956,7.1148 L90.6281956,0.8148 L91.5861807,0.8148 L91.5861807,3.41705 L91.6036622,3.41705 C91.9060919,2.94455 92.3387585,2.7083 92.89904,2.7083 C93.2967437,2.7083 93.6253956,2.8378 93.8858696,3.09855 C94.2110252,3.42405 94.373603,3.907925 94.373603,4.546675 L94.373603,7.1148 Z" id="Fill-40"></path>
                        <path d="M98.6952874,4.502575 C98.7031541,4.2182 98.6402207,3.972325 98.5091096,3.76495 C98.3439096,3.49895 98.0895541,3.365075 97.746043,3.365075 C97.4339985,3.365075 97.1787689,3.49545 96.9829763,3.7562 C96.8238948,3.96445 96.7294948,4.212075 96.6989022,4.502575 L98.6952874,4.502575 Z M99.610443,4.751075 C99.610443,4.922575 99.5982059,5.067825 99.5746059,5.186825 L96.6989022,5.186825 C96.7111393,5.613825 96.849243,5.939325 97.1149615,6.163325 C97.3588281,6.36545 97.6734948,6.466075 98.0580874,6.466075 C98.4828874,6.466075 98.8701022,6.3987 99.22148,6.2622 L99.3709467,6.928075 C98.96188,7.106575 98.4811393,7.19495 97.92348,7.19495 C97.2556874,7.19495 96.7294948,6.99895 96.3483985,6.60345 C95.9664281,6.2097 95.7767541,5.682075 95.7767541,5.01795 C95.7767541,4.36695 95.953317,3.82445 96.3099393,3.391325 C96.6814207,2.929325 97.1840133,2.698325 97.817717,2.698325 C98.4383096,2.698325 98.9094356,2.929325 99.2275985,3.391325 C99.4837022,3.758825 99.610443,4.212075 99.610443,4.751075 Z" id="Fill-41"></path>
                    </g>
                </g>
            </g>
        </g>
    </g>
</svg>