
<svg width="14px" height="15px" viewBox="0 0 14 15" version="1.1" xmlns="http://www.w3.org/2000/svg" xmlns:xlink="http://www.w3.org/1999/xlink">
    <!-- Generator: Sketch 48.2 (47327) - http://www.bohemiancoding.com/sketch -->
    <desc>Created with Sketch.</desc>
    <defs></defs>
    <g id="05_Login-Register" stroke="none" stroke-width="1" fill="none" fill-rule="evenodd">
        <g id="05_01_Login" transform="translate(-185.000000, -169.000000)">
            <g id="Page-1" transform="translate(185.000000, 169.000000)">
                <g id="Group-3" transform="translate(0.000000, 3.991956)" fill="#FBBE00">
                    <path d="M3.13490127,3.30939512 C3.13490127,2.90852317 3.19001519,2.51737683 3.29474937,2.14426707 L0.768901266,0.128943902 C0.266141772,1.10663293 -3.5443038e-05,2.18953537 -3.5443038e-05,3.30939512 C-3.5443038e-05,4.4299622 0.266318987,5.51339512 0.769787342,6.4914378 L3.35074937,4.65701098 C3.20933165,4.22979146 3.13490127,3.77622439 3.13490127,3.30939512" id="Fill-1"></path>
                </g>
                <g id="Group-6" transform="translate(0.708861, 0.101712)" fill="#ED412D">
                    <path d="M3.61531392,4.25520183 C4.38318734,3.47467744 5.41706076,3.04498232 6.52625063,3.04498232 C7.62161772,3.04498232 8.54349114,3.40942744 9.34468101,4.15918354 L9.76414937,4.55174451 L11.8620228,2.45843963 L11.4223519,2.03970793 C10.0345797,0.717732317 8.43308608,0.0751347561 6.52625063,0.0751347561 C4.61906076,0.0751347561 2.81164304,0.815695732 1.43698481,2.16048232 C0.870605063,2.71448841 0.408427848,3.341525 0.0600227848,4.01913476 L2.58587089,6.03445793 C2.77371899,5.36586646 3.12318734,4.75562866 3.61531392,4.25520183" id="Fill-4"></path>
                </g>
                <path d="M12.2248886,12.4147232 C13.7198759,10.9194549 13.9431671,8.89865 13.9431671,7.82635732 C13.9431671,7.36306463 13.906838,6.94857683 13.8354203,6.59474146 L13.7391924,6.11942439 L6.64136962,6.11942439 L6.64136962,9.0883878 L10.7945848,9.0883878 C10.6533443,9.60579024 10.4304076,10.0132049 10.1204582,10.3230098 C10.0079266,10.4349427 9.87714177,10.5555402 9.72367342,10.6747232 L11.7451671,12.8679366 C11.9098,12.72665 12.0696481,12.5758146 12.2248886,12.4147232" id="Fill-7" fill="#3E82F8"></path>
                <path d="M7.23516456,11.4550354 C6.12579747,11.4550354 5.09192405,11.0251634 4.32422785,10.2448159 C3.87711392,9.79071829 3.54820253,9.24573049 3.35078481,8.64893171 L0.769822785,10.4833585 C1.11822785,11.160261 1.57987342,11.7865902 2.14589873,12.3400659 C3.52055696,13.6844988 5.32797468,14.4248829 7.23516456,14.4248829 C9.04524051,14.4248829 10.5272911,13.9142 11.7451139,12.8679012 L9.72362025,10.6746878 C9.21058228,11.0723768 8.44164557,11.4550354 7.23516456,11.4550354" id="Fill-9" fill="#2CA94F"></path>
            </g>
        </g>
    </g>
</svg>