
<svg width="18px" height="14px" viewBox="0 0 18 14" version="1.1" xmlns="http://www.w3.org/2000/svg" xmlns:xlink="http://www.w3.org/1999/xlink">
	<!-- Generator: Sketch 48.2 (47327) - http://www.bohemiancoding.com/sketch -->
	<desc>Created with Sketch.</desc>
	<defs></defs>
	<g id="04_Profile" stroke="none" stroke-width="1" fill="none" fill-rule="evenodd">
		<g id="04_01_Profile" transform="translate(-16.000000, -306.000000)">
			<g id="icon-cc" transform="translate(15.000000, 303.000000)">
				<g id="Page-1" transform="translate(2.000000, 4.000000)">
					<polygon id="Fill-1" fill="#191919" points="4.61552941 10.1538462 7.62729412 10.1538462 7.62729412 9.23076923 4.61552941 9.23076923"></polygon>
					<polygon id="Fill-2" fill="#191919" points="1.60376471 10.1538462 3.61223529 10.1538462 3.61223529 9.23076923 1.60376471 9.23076923"></polygon>
					<polygon id="Fill-3" fill="#191919" points="0.470588235 5.67046154 15.5284706 5.67046154 15.5284706 3.67046154 0.470588235 3.67046154"></polygon>
					<path d="M14.2748235,0.461723077 C14.6192941,0.461723077 14.9157647,0.574338462 15.1604706,0.800492308 C15.4061176,1.02664615 15.5294118,1.29803077 15.5294118,1.61556923 L15.5294118,10.3848 C15.5294118,10.7023385 15.4061176,10.9737231 15.1604706,11.1998769 C14.9157647,11.4251077 14.6192941,11.5386462 14.2748235,11.5386462 L1.72517647,11.5386462 C1.38070588,11.5386462 1.08423529,11.4251077 0.839529412,11.1998769 C0.593882353,10.9737231 0.470588235,10.7023385 0.470588235,10.3848 L0.470588235,1.61556923 C0.470588235,1.29803077 0.593882353,1.02664615 0.839529412,0.800492308 C1.08423529,0.574338462 1.38070588,0.461723077 1.72517647,0.461723077 L14.2748235,0.461723077 Z" id="Stroke-4" stroke="#191919" stroke-linejoin="round"></path>
				</g>
			</g>
		</g>
	</g>
</svg>
