<?xml version="1.0" encoding="UTF-8"?>
<svg width="52px" height="43px" viewBox="0 0 52 43" version="1.1" xmlns="http://www.w3.org/2000/svg" xmlns:xlink="http://www.w3.org/1999/xlink">
    <!-- Generator: Sketch 49.3 (51167) - http://www.bohemiancoding.com/sketch -->
    <title>heart-o - FontAwesome</title>
    <desc>Created with Sketch.</desc>
    <defs>
        <path d="M180,220.75 C180,223.81946 178.296148,226.944429 174.888393,230.125 L160.982143,242.625 C160.714284,242.875001 160.386907,243 160,243 C159.613093,243 159.285716,242.875001 159.017857,242.625 L145.089286,230.083333 C144.940475,229.972222 144.735864,229.791668 144.475446,229.541667 C144.215028,229.291665 143.802086,228.836809 143.236607,228.177083 C142.671128,227.517358 142.165181,226.840281 141.71875,226.145833 C141.272319,225.451385 140.874258,224.611116 140.524554,223.625 C140.174849,222.638884 140,221.68056 140,220.75 C140,217.694429 140.944931,215.305564 142.834821,213.583333 C144.724712,211.861102 147.336293,211 150.669643,211 C151.592267,211 152.533477,211.149304 153.493304,211.447917 C154.45313,211.746529 155.345978,212.149303 156.171875,212.65625 C156.997772,213.163197 157.70833,213.638887 158.303571,214.083333 C158.898812,214.52778 159.464283,214.999997 160,215.5 C160.535717,214.999997 161.101187,214.52778 161.696429,214.083333 C162.29167,213.638887 163.002228,213.163197 163.828125,212.65625 C164.654022,212.149303 165.54687,211.746529 166.506696,211.447917 C167.466523,211.149304 168.407733,211 169.330357,211 C172.663707,211 175.275288,211.861102 177.165179,213.583333 C179.055069,215.305564 180,217.694429 180,220.75 Z" id="path-1"></path>
        <filter x="-21.9%" y="-24.2%" width="143.8%" height="154.7%" filterUnits="objectBoundingBox" id="filter-2">
            <feMorphology radius="0.75" operator="dilate" in="SourceAlpha" result="shadowSpreadOuter1"></feMorphology>
            <feOffset dx="0" dy="1" in="shadowSpreadOuter1" result="shadowOffsetOuter1"></feOffset>
            <feGaussianBlur stdDeviation="2.5" in="shadowOffsetOuter1" result="shadowBlurOuter1"></feGaussianBlur>
            <feComposite in="shadowBlurOuter1" in2="SourceAlpha" operator="out" result="shadowBlurOuter1"></feComposite>
            <feColorMatrix values="0 0 0 0 0   0 0 0 0 0   0 0 0 0 0  0 0 0 0.1 0" type="matrix" in="shadowBlurOuter1"></feColorMatrix>
        </filter>
    </defs>
    <g id="MS-3-(Hashtags,-Lovelist,-Shopping-Bag,-Promo)" stroke="none" stroke-width="1" fill="none" fill-rule="evenodd">
        <g id="00_01_Lovelist-Details-OutofStock" transform="translate(-134.000000, -206.000000)">
            <g id="heart-o---FontAwesome">
                <use fill="black" fill-opacity="1" filter="url(#filter-2)" xlink:href="#path-1"></use>
                <use fill="#FFFFFF" fill-rule="evenodd" xlink:href="#path-1"></use>
            </g>
        </g>
    </g>
</svg>