<?xml version="1.0" encoding="UTF-8"?>
<svg width="20px" height="20px" viewBox="0 0 20 20" version="1.1" xmlns="http://www.w3.org/2000/svg" xmlns:xlink="http://www.w3.org/1999/xlink">
    <!-- Generator: Sketch 48.2 (47327) - http://www.bohemiancoding.com/sketch -->
    <title>mm_ico_newstore</title>
    <desc>Created with Sketch.</desc>
    <defs></defs>
    <g id="Assets" stroke="none" stroke-width="1" fill="none" fill-rule="evenodd">
        <g id="mm_ico_newstore" stroke="#4A4A4A">
            <g id="new-store" transform="translate(2.000000, 2.500000)">
                <path d="M13.72584,6.71000004 L13.72584,14.2172837 C13.72584,14.4889203 13.51864,14.71 13.26504,14.71 L2.71304,14.71 C2.45944,14.71 2.25224,14.4889203 2.25224,14.2172837 L2.25224,6.71000004" id="Stroke-5" fill="#EBEBEB"></path>
                <path d="M14.186,2.83528 L7.9892,2.83528 L1.7924,2.83528 L0.4004,5.41608 C0.4004,6.24168 1.0692,6.91128 1.8948,6.91128 C2.7204,6.91128 3.3892,6.24168 3.3892,5.41608 L3.4476,5.41608 C3.4476,6.24168 4.1164,6.91128 4.942,6.91128 C5.7676,6.91128 6.4364,6.24168 6.4364,5.41608 L6.494,5.41608 C6.494,6.24168 7.1636,6.91128 7.9892,6.91128 C8.8148,6.91128 9.4844,6.24168 9.4844,5.41608 L9.5412,5.41608 C9.5412,6.24168 10.2108,6.91128 11.0364,6.91128 C11.862,6.91128 12.5316,6.24168 12.5316,5.41608 L12.5884,5.41608 C12.5884,6.24168 13.258,6.91128 14.0836,6.91128 C14.9092,6.91128 15.5788,6.24168 15.5788,5.41608 L14.186,2.83528 Z" id="Stroke-1" fill="#EBEBEB"></path>
                <path d="M2.2524,1.90056 L2.2524,0.85976 C2.2524,0.60696 2.4596,0.40056 2.7132,0.40056 L13.2652,0.40056 C13.5188,0.40056 13.726,0.60696 13.726,0.85976 L13.726,1.90056" id="Stroke-3"></path>
                <path d="M3.99656,14.39704 L3.99656,9.08184 C3.99656,8.82904 4.20376,8.62184 4.45656,8.62184 L6.80776,8.62184 L6.80776,14.39704" id="Stroke-7"></path>
                <path d="M11.99808,10.72864 L9.22288,10.72864 C8.80848,10.72864 8.47008,10.39024 8.47008,9.97664 L8.47008,8.62224 L11.29888,8.62224 C11.68368,8.62224 11.99808,8.93664 11.99808,9.32144 L11.99808,10.72864 Z" id="Stroke-9"></path>
            </g>
        </g>
    </g>
</svg>