<?xml version="1.0" encoding="UTF-8"?>
<svg width="32px" height="32px" viewBox="0 0 32 32" version="1.1" xmlns="http://www.w3.org/2000/svg" xmlns:xlink="http://www.w3.org/1999/xlink">
    <!-- Generator: Sketch 50.2 (55047) - http://www.bohemiancoding.com/sketch -->
    <title>icon/fill/instagram/white 32</title>
    <desc>Created with Sketch.</desc>
    <defs></defs>
    <g id="icon/fill/instagram/white-32" stroke="none" stroke-width="1" fill="none" fill-rule="evenodd">
        <path d="M16,12 C13.79136,12 12,13.79136 12,16 C12,18.208 13.79136,20 16,20 C18.208,20 20,18.208 20,16 C20,13.79136 18.208,12 16,12 Z M16,9.33312 C19.68256,9.33312 22.66688,12.31808 22.66688,16 C22.66688,19.68256 19.68256,22.66688 16,22.66688 C12.31808,22.66688 9.33312,19.68256 9.33312,16 C9.33312,12.31808 12.31808,9.33312 16,9.33312 Z M24,6.66688 C24.73408,6.66688 25.33312,7.26592 25.33312,8 C25.33312,8.73408 24.73408,9.33312 24,9.33312 C23.26592,9.33312 22.66688,8.73408 22.66688,8 C22.66688,7.26592 23.26592,6.66688 24,6.66688 Z M10.66688,4 C6.98432,4 4,6.98432 4,10.66688 L4,21.33312 C4,25.01568 6.98432,28 10.66688,28 L21.33312,28 C25.01568,28 28,25.01568 28,21.33312 L28,10.66688 C28,6.98432 25.01568,4 21.33312,4 L10.66688,4 Z" id="Page-1" fill="#FFFFFF"></path>
    </g>
</svg>