<?xml version="1.0" encoding="UTF-8"?>
<svg width="118px" height="35px" viewBox="0 0 118 35" version="1.1" xmlns="http://www.w3.org/2000/svg" xmlns:xlink="http://www.w3.org/1999/xlink">
    <!-- Generator: Sketch 49.1 (51147) - http://www.bohemiancoding.com/sketch -->
    <title>Group 7</title>
    <desc>Created with Sketch.</desc>
    <defs>
        <path d="M0.777,3.952375 L0.777,4.207875 L4.38725,7.819875 L4.4695,7.7735 L8.747375,5.341875 C9.968875,4.648875 9.968875,3.513125 8.747375,2.8175 L4.388125,0.342125 L0.777,3.952375 Z" id="path-1"></path>
        <path d="M0.3815,11.477375 C0.784,11.902625 1.449,11.956 2.198,11.529875 L14.9695,4.2735 L11.277,0.581 L0.3815,11.477375 Z" id="path-3"></path>
        <path d="M0.3815,1.05875 L11.277,11.956 L14.9695,8.262625 L2.198,1.005375 C1.84625,0.80675 1.51375,0.71225 1.218,0.71225 C0.882875,0.71225 0.595,0.833 0.3815,1.05875 Z" id="path-5"></path>
    </defs>
    <g id="Symbols" stroke="none" stroke-width="1" fill="none" fill-rule="evenodd">
        <g id="Footer" transform="translate(-35.000000, -284.000000)">
            <g id="footer">
                <g id="Group-7" transform="translate(35.000000, 284.000000)">
                    <rect id="Rectangle-2" fill="#000000" x="0" y="0" width="118" height="35" rx="4"></rect>
                    <g id="Group-5" transform="translate(6.875000, 5.250000)">
                        <path d="M33.616625,4.0075 C33.616625,4.74075 33.39875,5.32525 32.963875,5.760125 C32.470375,6.278125 31.82725,6.537125 31.035375,6.537125 C30.277625,6.537125 29.633625,6.274625 29.103375,5.747875 C28.573125,5.22375 28.308,4.571875 28.308,3.794875 C28.308,3.016125 28.573125,2.365125 29.103375,1.840125 C29.633625,1.315125 30.277625,1.05175 31.035375,1.05175 C31.411625,1.05175 31.77125,1.12525 32.113375,1.271375 C32.454625,1.41925 32.729375,1.614375 32.934125,1.859375 L32.473,2.319625 C32.12475,1.90575 31.647,1.6975 31.035375,1.6975 C30.482375,1.6975 30.0055,1.890875 29.602125,2.28025 C29.19875,2.669625 28.996625,3.1745 28.996625,3.794875 C28.996625,4.41525 29.19875,4.920125 29.602125,5.30775 C30.0055,5.698 30.482375,5.8905 31.035375,5.8905 C31.621625,5.8905 32.11075,5.69625 32.501875,5.305125 C32.755625,5.0505 32.902625,4.696125 32.942,4.242 L31.035375,4.242 L31.035375,3.612 L33.579875,3.612 C33.604375,3.747625 33.616625,3.87975 33.616625,4.0075" id="Fill-3" fill="#FFFFFF"></path>
                        <path d="M33.616625,4.0075 L33.529125,4.0075 C33.52825,4.72325 33.319125,5.27975 32.902625,5.698 L32.90175,5.698875 L32.900875,5.69975 C32.423125,6.199375 31.808,6.447875 31.035375,6.44875 C30.29775,6.447875 29.680875,6.19675 29.1655,5.686625 C28.651,5.1765 28.396375,4.55175 28.3955,3.794875 C28.396375,3.037125 28.651,2.41325 29.1655,1.903125 C29.680875,1.393 30.29775,1.141 31.035375,1.140125 C31.40025,1.140125 31.747625,1.211 32.078375,1.35275 C32.41,1.495375 32.6725,1.682625 32.867625,1.9145 L32.934125,1.859375 L32.872,1.79725 L32.410875,2.25925 L32.473,2.319625 L32.5395,2.2645 C32.176375,1.82875 31.665375,1.609125 31.035375,1.610875 C30.46225,1.61 29.95825,1.813875 29.540875,2.21725 C29.12,2.622375 28.90825,3.154375 28.909125,3.794875 C28.90825,4.433625 29.12,4.967375 29.540875,5.371625 C29.95825,5.775 30.46225,5.97975 31.035375,5.97975 C31.640875,5.980625 32.157125,5.775 32.564,5.36725 C32.83525,5.09425 32.98925,4.718 33.0295,4.249 L33.037375,4.1545 L31.122875,4.1545 L31.122875,3.69775 L33.579875,3.69775 L33.579875,3.612 L33.49325,3.626 C33.516875,3.759875 33.529125,3.885 33.529125,4.0075 L33.704125,4.0075 C33.704125,3.8745 33.691,3.737125 33.665625,3.595375 L33.6525,3.523625 L30.947875,3.523625 L30.947875,4.328625 L32.942,4.328625 L32.942,4.242 L32.8545,4.235 C32.816,4.675125 32.676,5.00675 32.43975,5.243 C32.0635,5.618375 31.602375,5.803875 31.035375,5.80475 C30.503375,5.803875 30.051875,5.620125 29.6625,5.245625 C29.276625,4.872 29.085,4.396 29.084125,3.794875 C29.085,3.192 29.276625,2.716 29.6625,2.34325 C30.051875,1.969625 30.503375,1.785875 31.035375,1.785875 C31.62775,1.78675 32.074,1.98275 32.405625,2.377375 L32.466875,2.45 L32.99625,1.91975 L33.053125,1.864625 L33.0015,1.801625 C32.78625,1.546125 32.49925,1.34225 32.1475,1.190875 C31.794875,1.040375 31.423,0.96425 31.035375,0.96425 C30.2575,0.963375 29.586375,1.23725 29.042125,1.778 C28.49525,2.317875 28.219625,2.99775 28.2205,3.794875 C28.219625,4.592 28.49525,5.270125 29.042125,5.81175 C29.586375,6.3525 30.2575,6.624625 31.035375,6.62375 C31.845625,6.624625 32.517625,6.356 33.02775,5.819625 L32.963875,5.760125 L33.026,5.821375 C33.47925,5.369 33.704125,4.7565 33.704125,4.0075 L33.616625,4.0075" id="Fill-5" fill="#FFFFFF"></path>
                        <polygon id="Fill-7" fill="#FFFFFF" points="37.6494125 1.8139625 35.2580375 1.8139625 35.2580375 3.4790875 37.4140375 3.4790875 37.4140375 4.1090875 35.2580375 4.1090875 35.2580375 5.7742125 37.6494125 5.7742125 37.6494125 6.4199625 34.5842875 6.4199625 34.5842875 1.1699625 37.6494125 1.1699625"></polygon>
                        <polygon id="Fill-9" fill="#FFFFFF" points="37.6494125 1.8139625 37.6494125 1.7264625 35.1705375 1.7264625 35.1705375 3.5665875 37.3265375 3.5665875 37.3265375 4.0215875 35.1705375 4.0215875 35.1705375 5.8617125 37.5619125 5.8617125 37.5619125 6.3315875 34.6717875 6.3315875 34.6717875 1.2565875 37.5619125 1.2565875 37.5619125 1.8139625 37.6494125 1.8139625 37.6494125 1.7264625 37.6494125 1.8139625 37.7369125 1.8139625 37.7369125 1.0815875 34.4967875 1.0815875 34.4967875 6.5065875 37.7369125 6.5065875 37.7369125 5.6875875 35.3455375 5.6875875 35.3455375 4.1974625 37.5015375 4.1974625 37.5015375 3.3924625 35.3455375 3.3924625 35.3455375 1.9023375 37.7369125 1.9023375 37.7369125 1.8139625"></polygon>
                        <polygon id="Fill-11" fill="#FFFFFF" points="40.4940375 6.4197 39.8185375 6.4197 39.8185375 1.8137 38.3529125 1.8137 38.3529125 1.1697 41.9605375 1.1697 41.9605375 1.8137 40.4940375 1.8137"></polygon>
                        <polygon id="Fill-13" fill="#FFFFFF" points="40.4940375 6.4197 40.4940375 6.331325 39.9060375 6.331325 39.9060375 1.727075 38.4395375 1.727075 38.4395375 1.2572 41.8730375 1.2572 41.8730375 1.727075 40.4065375 1.727075 40.4065375 6.4197 40.4940375 6.4197 40.4940375 6.331325 40.4940375 6.4197 40.5815375 6.4197 40.5815375 1.902075 42.0480375 1.902075 42.0480375 1.081325 38.2645375 1.081325 38.2645375 1.902075 39.7310375 1.902075 39.7310375 6.5072 40.5815375 6.5072 40.5815375 6.4197"></polygon>
                        <polygon id="Fill-15" fill="#FFFFFF" points="44.57075 6.419875 45.245375 6.419875 45.245375 1.169875 44.57075 1.169875"></polygon>
                        <polygon id="Fill-17" fill="#FFFFFF" points="44.57075 6.4197 44.65825 6.4197 44.65825 1.2572 45.157 1.2572 45.157 6.331325 44.57075 6.331325 44.57075 6.4197 44.65825 6.4197 44.57075 6.4197 44.57075 6.5072 45.332875 6.5072 45.332875 1.081325 44.48325 1.081325 44.48325 6.5072 44.57075 6.5072"></polygon>
                        <polygon id="Fill-18" fill="#FFFFFF" points="48.237 6.4197 47.562375 6.4197 47.562375 1.8137 46.095875 1.8137 46.095875 1.1697 49.7035 1.1697 49.7035 1.8137 48.237 1.8137"></polygon>
                        <polygon id="Fill-19" fill="#FFFFFF" points="48.237 6.4197 48.237 6.331325 47.649875 6.331325 47.649875 1.727075 46.183375 1.727075 46.183375 1.2572 49.616 1.2572 49.616 1.727075 48.1495 1.727075 48.1495 6.4197 48.237 6.4197 48.237 6.331325 48.237 6.4197 48.3245 6.4197 48.3245 1.902075 49.791 1.902075 49.791 1.081325 46.008375 1.081325 46.008375 1.902075 47.474875 1.902075 47.474875 6.5072 48.3245 6.5072 48.3245 6.4197"></polygon>
                        <path d="M53.1815375,5.3011875 C53.5709125,5.6949375 54.0460375,5.8909375 54.6077875,5.8909375 C55.1704125,5.8909375 55.6464125,5.6949375 56.0340375,5.3011875 C56.4225375,4.9074375 56.6176625,4.4051875 56.6176625,3.7944375 C56.6176625,3.1836875 56.4225375,2.6814375 56.0340375,2.2876875 C55.6464125,1.8939375 55.1704125,1.6979375 54.6077875,1.6979375 C54.0460375,1.6979375 53.5709125,1.8939375 53.1815375,2.2876875 C52.7939125,2.6814375 52.5987875,3.1836875 52.5987875,3.7944375 C52.5987875,4.4051875 52.7939125,4.9074375 53.1815375,5.3011875 M56.5327875,5.7413125 C56.0174125,6.2715625 55.3751625,6.5366875 54.6077875,6.5366875 C53.8404125,6.5366875 53.1990375,6.2715625 52.6836625,5.7413125 C52.1674125,5.2110625 51.9101625,4.5618125 51.9101625,3.7944375 C51.9101625,3.0270625 52.1674125,2.3778125 52.6836625,1.8475625 C53.1990375,1.3173125 53.8404125,1.0521875 54.6077875,1.0521875 C55.3707875,1.0521875 56.0112875,1.3181875 56.5292875,1.8510625 C57.0472875,2.3839375 57.3062875,3.0314375 57.3062875,3.7944375 C57.3062875,4.5618125 57.0481625,5.2110625 56.5327875,5.7413125" id="Fill-20" fill="#FFFFFF"></path>
                        <path d="M53.1815375,5.3011875 L53.1194125,5.3624375 C53.5227875,5.7719375 54.0250375,5.9801875 54.6077875,5.9793125 C55.1905375,5.9801875 55.6936625,5.7719375 56.0961625,5.3624375 C56.5021625,4.9538125 56.7060375,4.4235625 56.7051625,3.7944375 C56.7060375,3.1653125 56.5021625,2.6359375 56.0961625,2.2264375 C55.6936625,1.8169375 55.1905375,1.6095625 54.6077875,1.6104375 C54.0250375,1.6095625 53.5227875,1.8169375 53.1194125,2.2264375 C52.7151625,2.6359375 52.5104125,3.1653125 52.5112875,3.7944375 C52.5104125,4.4235625 52.7151625,4.9538125 53.1194125,5.3624375 L53.2445375,5.2399375 C52.8726625,4.8628125 52.6871625,4.3868125 52.6862875,3.7944375 C52.6871625,3.2020625 52.8726625,2.7260625 53.2445375,2.3489375 L53.2436625,2.3489375 C53.6190375,1.9709375 54.0661625,1.7863125 54.6077875,1.7854375 C55.1502875,1.7863125 55.5982875,1.9709375 55.9719125,2.3489375 C56.3437875,2.7269375 56.5292875,3.2020625 56.5301625,3.7944375 C56.5292875,4.3868125 56.3437875,4.8619375 55.9719125,5.2399375 C55.5982875,5.6179375 55.1502875,5.8034375 54.6077875,5.8043125 C54.0661625,5.8025625 53.6190375,5.6179375 53.2436625,5.2399375 L53.1815375,5.3011875 Z M56.5327875,5.7413125 L56.4706625,5.6800625 C55.9692875,6.1945625 55.3550375,6.4483125 54.6077875,6.4491875 C53.8605375,6.4483125 53.2471625,6.1945625 52.7466625,5.6800625 L52.7440375,5.6774375 L52.7466625,5.6800625 C52.2461625,5.1646875 51.9985375,4.5425625 51.9976625,3.7944375 C51.9985375,3.0463125 52.2461625,2.4241875 52.7466625,1.9088125 C53.2471625,1.3943125 53.8605375,1.1405625 54.6077875,1.1396875 C55.3506625,1.1405625 55.9622875,1.3960625 56.4671625,1.9123125 C56.9694125,2.4303125 57.2179125,3.0515625 57.2187875,3.7944375 C57.2179125,4.5425625 56.9702875,5.1646875 56.4706625,5.6800625 L56.5957875,5.8016875 C57.1269125,5.2574375 57.3946625,4.5810625 57.3937875,3.7944375 C57.3946625,3.0121875 57.1251625,2.3375625 56.5922875,1.7906875 C56.0594125,1.2411875 55.3909125,0.9638125 54.6077875,0.9646875 C53.8202875,0.9638125 53.1509125,1.2403125 52.6206625,1.7871875 C52.0895375,2.3323125 51.8217875,3.0078125 51.8226625,3.7944375 C51.8217875,4.5810625 52.0895375,5.2574375 52.6206625,5.8016875 L52.6232875,5.8043125 L52.6206625,5.8016875 C53.1509125,6.3494375 53.8202875,6.6250625 54.6077875,6.6241875 C55.3952875,6.6250625 56.0655375,6.3494375 56.5957875,5.8016875 L56.5327875,5.7413125 Z" id="Fill-21" fill="#FFFFFF"></path>
                        <polygon id="Fill-22" fill="#FFFFFF" points="58.25295 6.4197 58.25295 1.1697 59.074575 1.1697 61.626075 5.253325 61.65495 5.253325 61.626075 4.241825 61.626075 1.1697 62.3007 1.1697 62.3007 6.4197 61.596325 6.4197 58.927575 2.136575 58.897825 2.136575 58.927575 3.149825 58.927575 6.4197"></polygon>
                        <polygon id="Fill-23" fill="#FFFFFF" points="58.25295 6.4197 58.34045 6.4197 58.34045 1.2572 59.025575 1.2572 61.577075 5.3417 61.745075 5.3417 61.713575 4.24095 61.713575 1.2572 62.2132 1.2572 62.2132 6.331325 61.645325 6.331325 58.9757 2.04995 58.808575 2.04995 58.840075 3.1507 58.840075 6.331325 58.25295 6.331325 58.25295 6.4197 58.34045 6.4197 58.25295 6.4197 58.25295 6.5072 59.015075 6.5072 59.015075 3.148075 58.985325 2.1357 58.897825 2.136575 58.897825 2.22495 58.927575 2.22495 58.927575 2.136575 58.8532 2.18295 61.5482 6.5072 62.3882 6.5072 62.3882 1.081325 61.538575 1.081325 61.538575 4.243575 61.56745 5.25595 61.65495 5.253325 61.65495 5.165825 61.626075 5.165825 61.626075 5.253325 61.70045 5.20695 59.1227 1.081325 58.16545 1.081325 58.16545 6.5072 58.25295 6.5072"></polygon>
                        <path d="M85.694,21.294875 L87.32675,21.294875 L87.32675,10.3565 L85.694,10.3565 L85.694,21.294875 Z M100.400125,14.296625 L98.5285,19.039125 L98.4725,19.039125 L96.53,14.296625 L94.77125,14.296625 L97.684125,20.92475 L96.023375,24.612 L97.727,24.612 L102.21575,14.296625 L100.400125,14.296625 Z M91.140875,20.052375 C90.605375,20.052375 89.859875,19.784625 89.859875,19.123125 C89.859875,18.279625 90.789125,17.955 91.590625,17.955 C92.309,17.955 92.645875,18.109875 93.0825,18.32075 C92.955625,19.334875 92.08325,20.052375 91.140875,20.052375 Z M91.33775,14.056875 C90.155625,14.056875 88.9315,14.5775 88.424875,15.731625 L89.873875,16.337125 C90.183625,15.731625 90.76025,15.53475 91.36575,15.53475 C92.210125,15.53475 93.0685,16.041375 93.0825,16.94175 L93.0825,17.05375 C92.78675,16.88575 92.154125,16.632875 91.37975,16.632875 C89.817875,16.632875 88.227125,17.490375 88.227125,19.09425 C88.227125,20.558125 89.508125,21.501375 90.943125,21.501375 C92.04125,21.501375 92.645875,21.009625 93.0265,20.43125 L93.0825,20.43125 L93.0825,21.275625 L94.658375,21.275625 L94.658375,17.082625 C94.658375,15.141 93.209375,14.056875 91.33775,14.056875 Z M81.24725,15.6275 L78.925,15.6275 L78.925,11.878125 L81.24725,11.878125 C82.467875,11.878125 83.160875,12.88875 83.160875,13.75325 C83.160875,14.60025 82.467875,15.6275 81.24725,15.6275 Z M81.20525,10.3565 L77.293125,10.3565 L77.293125,21.294875 L78.925,21.294875 L78.925,17.15 L81.20525,17.15 C83.01475,17.15 84.793625,15.83925 84.793625,13.75325 C84.793625,11.666375 83.01475,10.3565 81.20525,10.3565 Z M59.871875,20.054125 C58.744,20.054125 57.799875,19.11 57.799875,17.812375 C57.799875,16.501625 58.744,15.5435 59.871875,15.5435 C60.98575,15.5435 61.859,16.501625 61.859,17.812375 C61.859,19.11 60.98575,20.054125 59.871875,20.054125 Z M61.746125,14.909125 L61.690125,14.909125 C61.3235,14.4725 60.619125,14.077875 59.731,14.077875 C57.869875,14.077875 56.1645,15.712375 56.1645,17.812375 C56.1645,19.898375 57.869875,21.520625 59.731,21.520625 C60.619125,21.520625 61.3235,21.125125 61.690125,20.6745 L61.746125,20.6745 L61.746125,21.209125 C61.746125,22.633625 60.98575,23.394875 59.759,23.394875 C58.758,23.394875 58.137625,22.6765 57.883875,22.070125 L56.46025,22.661625 C56.868875,23.648625 57.95475,24.8605 59.759,24.8605 C61.676125,24.8605 63.2975,23.7335 63.2975,20.98425 L63.2975,14.30275 L61.746125,14.30275 L61.746125,14.909125 Z M64.425375,21.294875 L66.06075,21.294875 L66.06075,10.355625 L64.425375,10.355625 L64.425375,21.294875 Z M68.4705,17.686375 C68.4285,16.247875 69.584375,15.514625 70.415625,15.514625 C71.064875,15.514625 71.614375,15.838375 71.79725,16.30475 L68.4705,17.686375 Z M73.5455,16.445625 C73.23575,15.614375 72.29075,14.077875 70.359625,14.077875 C68.4425,14.077875 66.85,15.584625 66.85,17.79925 C66.85,19.884375 68.4285,21.520625 70.5425,21.520625 C72.24875,21.520625 73.23575,20.47675 73.644375,19.87125 L72.375625,19.02425 C71.953,19.644625 71.374625,20.054125 70.5425,20.054125 C69.71125,20.054125 69.118875,19.672625 68.73825,18.927125 L73.714375,16.86825 L73.5455,16.445625 Z M33.901,15.218875 L33.901,16.797375 L37.678375,16.797375 C37.5655,17.686375 37.26975,18.333875 36.819125,18.78625 C36.26875,19.33575 35.408625,19.94125 33.901,19.94125 C31.57525,19.94125 29.756125,18.066125 29.756125,15.740375 C29.756125,13.414625 31.57525,11.5395 33.901,11.5395 C35.15575,11.5395 36.071875,12.033875 36.74825,12.667375 L37.862125,11.554375 C36.917125,10.65225 35.66325,9.961 33.901,9.961 C30.715125,9.961 28.03675,12.555375 28.03675,15.740375 C28.03675,18.927125 30.715125,21.520625 33.901,21.520625 C35.620375,21.520625 36.917125,20.95625 37.932125,19.898375 C38.975125,18.85625 39.29975,17.390625 39.29975,16.205 C39.29975,15.838375 39.27175,15.5015 39.214875,15.218875 L33.901,15.218875 Z M43.595125,20.054125 C42.46725,20.054125 41.49425,19.123125 41.49425,17.79925 C41.49425,16.45875 42.46725,15.5435 43.595125,15.5435 C44.722125,15.5435 45.695125,16.45875 45.695125,17.79925 C45.695125,19.123125 44.722125,20.054125 43.595125,20.054125 Z M43.595125,14.077875 C41.53625,14.077875 39.858875,15.642375 39.858875,17.79925 C39.858875,19.94125 41.53625,21.520625 43.595125,21.520625 C45.653125,21.520625 47.3305,19.94125 47.3305,17.79925 C47.3305,15.642375 45.653125,14.077875 43.595125,14.077875 Z M51.744,20.054125 C50.616125,20.054125 49.643125,19.123125 49.643125,17.79925 C49.643125,16.45875 50.616125,15.5435 51.744,15.5435 C52.871875,15.5435 53.844,16.45875 53.844,17.79925 C53.844,19.123125 52.871875,20.054125 51.744,20.054125 Z M51.744,14.077875 C49.686,14.077875 48.008625,15.642375 48.008625,17.79925 C48.008625,19.94125 49.686,21.520625 51.744,21.520625 C53.802,21.520625 55.479375,19.94125 55.479375,17.79925 C55.479375,15.642375 53.802,14.077875 51.744,14.077875 Z" id="Fill-24" fill="#FFFFFF"></path>
                        <path d="M1.2557125,1.6482375 C1.0010875,1.9177375 0.8514625,2.3351125 0.8514625,2.8758625 L0.8514625,22.2124875 C0.8514625,22.7541125 1.0010875,23.1714875 1.2557125,23.4409875 L1.3204625,23.5039875 L12.1520875,12.6723625 L12.1520875,12.4168625 L1.3204625,1.5852375 L1.2557125,1.6482375" id="Fill-25" fill="#5BC8F3"></path>
                        <g id="Group-29" transform="translate(11.375000, 8.463875)">
                            <mask id="mask-2" fill="white">
                                <use xlink:href="#path-1"></use>
                            </mask>
                            <g id="Clip-28"></g>
                            <polygon id="Fill-27" fill="#FDDF00" mask="url(#mask-2)" points="0.777 7.819875 9.968875 7.819875 9.968875 0.34125 0.777 0.34125"></polygon>
                        </g>
                        <g id="Group-32" transform="translate(0.875000, 11.963875)">
                            <mask id="mask-4" fill="white">
                                <use xlink:href="#path-3"></use>
                            </mask>
                            <g id="Clip-31"></g>
                            <polygon id="Fill-30" fill="#EE4447" mask="url(#mask-4)" points="20.657 6.268325 7.6755 19.249825 -5.306875 6.268325 7.6755 -6.71405"></polygon>
                        </g>
                        <path d="M15.8445,8.8515875 L3.073,1.5943375 C2.324,1.1699625 1.659,1.2215875 1.255625,1.6485875 L12.152,12.5449625 L15.8445,8.8515875" id="Fill-33" fill="#74C168"></path>
                        <g id="Group-37" transform="translate(0.875000, 0.588875)">
                            <mask id="mask-6" fill="white">
                                <use xlink:href="#path-5"></use>
                            </mask>
                            <g id="Clip-36"></g>
                            <polygon id="Fill-35" fill="#74C168" mask="url(#mask-6)" points="7.6750625 -6.7139625 20.6565625 6.2684125 7.6750625 19.2499125 -5.3064375 6.2684125"></polygon>
                        </g>
                    </g>
                </g>
            </g>
        </g>
    </g>
</svg>