
<svg width="16px" height="16px" viewBox="0 0 16 16" version="1.1" xmlns="http://www.w3.org/2000/svg" xmlns:xlink="http://www.w3.org/1999/xlink">
    <g id="MS-2-(Category,-PCP,-PDP,-Comment,-Seller)" stroke="none" stroke-width="1" fill="none" fill-rule="evenodd">
        <g id="04_02_Seller-GridView-SilverBadge-OrderSuccess" transform="translate(-100.000000, -88.000000)" fill="#3FD0BB">
            <g id="mm_ico_successorder" transform="translate(100.000000, 88.000000)">
                <path d="M8,0.571428571 C10.0561327,0.571428571 11.8082411,1.29548596 13.2563776,2.74362245 C14.704514,4.19175894 15.4285714,5.94386727 15.4285714,8 C15.4285714,10.0561327 14.704514,11.8082411 13.2563776,13.2563776 C11.8082411,14.704514 10.0561327,15.4285714 8,15.4285714 C5.94386727,15.4285714 4.19175894,14.704514 2.74362245,13.2563776 C1.29548596,11.8082411 0.571428571,10.0561327 0.571428571,8 C0.571428571,5.94386727 1.29548596,4.19175894 2.74362245,2.74362245 C4.19175894,1.29548596 5.94386727,0.571428571 8,0.571428571 Z M11.8137755,5.5127551 C11.8358845,5.49064615 11.8469388,5.45748321 11.8469388,5.41326531 C11.8469388,5.34693844 11.8358845,5.3027212 11.8137755,5.28061224 L10.7857143,4.48469388 C10.7636053,4.46258492 10.7193881,4.45153061 10.6530612,4.45153061 C10.6088433,4.45153061 10.5756804,4.46258492 10.5535714,4.48469388 L6.87244898,9.22704082 C5.899655,8.29846474 5.40221099,7.82312936 5.38010204,7.80102041 C5.31377518,7.73469355 5.24744931,7.70153061 5.18112245,7.70153061 C5.15901349,7.70153061 5.11479625,7.73469355 5.04846939,7.80102041 L4.18622449,8.66326531 C4.16411554,8.68537426 4.15306122,8.72959151 4.15306122,8.79591837 C4.15306122,8.84013628 4.16411554,8.87329921 4.18622449,8.89540816 L4.25255102,8.92857143 C5.97704944,10.586743 6.85034003,11.4268706 6.87244898,11.4489796 C6.93877584,11.5153065 6.9940474,11.5484694 7.03826531,11.5484694 C7.08248321,11.5484694 7.13775477,11.5153065 7.20408163,11.4489796 L11.8137755,5.5127551 Z" id="-copy" transform="translate(8.000000, 8.000000) rotate(5.000000) translate(-8.000000, -8.000000) "></path>
            </g>
        </g>
    </g>
</svg>