
<svg width="14px" height="14px" viewBox="0 0 14 14" version="1.1" xmlns="http://www.w3.org/2000/svg" xmlns:xlink="http://www.w3.org/1999/xlink">
    <!-- Generator: Sketch 48.2 (47327) - http://www.bohemiancoding.com/sketch -->
    <g id="01_01_Details" stroke="none" stroke-width="1" fill="none" fill-rule="evenodd">
        <g transform="translate(-296.000000, -582.000000)" fill="#A4A4A4" id="Group-4">
            <g transform="translate(296.000000, 582.000000)">
                <path d="M2.05288462,2.05288462 C3.4214812,0.684288029 5.07050317,0 7,0 C8.92949683,0 10.5785188,0.684288029 11.9471154,2.05288462 C13.315712,3.4214812 14,5.07050317 14,7 C14,8.92949683 13.315712,10.5785188 11.9471154,11.9471154 C10.5785188,13.315712 8.92949683,14 7,14 C5.07050317,14 3.4214812,13.315712 2.05288462,11.9471154 C0.684288029,10.5785188 0,8.92949683 0,7 C0,5.07050317 0.684288029,3.4214812 2.05288462,2.05288462 Z M7.33653846,3.70192308 C7.2019224,3.56730702 7.04487269,3.5 6.86538462,3.5 C6.68589654,3.5 6.52884683,3.56730702 6.39423077,3.70192308 C6.25961471,3.83653913 6.19230769,3.99358885 6.19230769,4.17307692 C6.19230769,4.352565 6.25961471,4.50961471 6.39423077,4.64423077 C6.52884683,4.77884683 6.68589654,4.84615385 6.86538462,4.84615385 C7.04487269,4.84615385 7.2019224,4.77884683 7.33653846,4.64423077 C7.47115452,4.50961471 7.53846154,4.352565 7.53846154,4.17307692 C7.53846154,3.99358885 7.47115452,3.83653913 7.33653846,3.70192308 Z M8.07692308,10.2307692 L8.07692308,9.96153846 L7.53846154,9.96153846 L7.53846154,5.65384615 L5.92307692,5.65384615 L5.92307692,5.92307692 L6.46153846,5.92307692 L6.46153846,9.96153846 L5.92307692,9.96153846 L5.92307692,10.2307692 L8.07692308,10.2307692 Z" id="ion-ios-information---Ionicons"></path>
            </g>
        </g>
    </g>
</svg>