
<svg width="18px" height="21px" viewBox="0 0 18 21" version="1.1" xmlns="http://www.w3.org/2000/svg" xmlns:xlink="http://www.w3.org/1999/xlink">
    <g id="01_01_Details" stroke="none" stroke-width="1" fill="none" fill-rule="evenodd" stroke-linejoin="round">
        <g transform="translate(-288.000000, -30.000000)" id="share" stroke="#191919" stroke-width="1.5">
            <g transform="translate(289.000000, 31.000000)">
                <path d="M5.57994667,9.41175556 C5.58741333,10.7913667 4.46421333,11.9155333 3.07008,11.9218667 C1.67701333,11.9303111 0.541013333,10.8188111 0.533546667,9.4392 C0.52608,8.06064444 1.64821333,6.93647778 3.04234667,6.92908889 C4.43648,6.9217 5.57141333,8.0332 5.57994667,9.41175556 Z" id="Stroke-1"></path>
                <path d="M15.9632,15.8832611 C15.9717333,17.2618167 14.8474667,18.3859833 13.4533333,18.3933722 C12.0613333,18.4018167 10.9242667,17.2903167 10.9178667,15.9107056 C10.9093333,14.53215 12.0325333,13.4079833 13.4266667,13.3995389 C14.8197333,13.39215 15.9557333,14.50365 15.9632,15.8832611 Z" id="Stroke-3"></path>
                <path d="M15.8913067,3.01097222 C15.89984,4.39058333 14.7755733,5.51369444 13.38144,5.52108333 C11.98944,5.52952778 10.8523733,4.41802778 10.8459733,3.03841667 C10.8385067,1.65986111 11.96064,0.535694444 13.3547733,0.52725 C14.7489067,0.520916667 15.88384,1.63241667 15.8913067,3.01097222 Z" id="Stroke-5"></path>
                <path d="M4.93610667,7.76139444 L11.17504,4.25695" id="Stroke-7"></path>
                <path d="M4.95594667,11.2528556 L11.23328,14.6886889" id="Stroke-9"></path>
            </g>
        </g>
    </g>
</svg>