
<svg width="16px" height="17px" viewBox="0 0 16 17" version="1.1" xmlns="http://www.w3.org/2000/svg" xmlns:xlink="http://www.w3.org/1999/xlink">
	<!-- Generator: Sketch 48.2 (47327) - http://www.bohemiancoding.com/sketch -->
	<desc>Created with Sketch.</desc>
	<defs></defs>
	<g id="04_Profile" stroke="none" stroke-width="1" fill="none" fill-rule="evenodd">
		<g id="04_01_Profile" transform="translate(-17.000000, -202.000000)" stroke="#191919">
			<g id="icon-order" transform="translate(15.000000, 200.000000)">
				<g id="Page-1" transform="translate(3.000000, 2.000000)">
					<path d="M6.93665,3.6101 L11.93665,3.6101" id="Stroke-1" stroke-linejoin="round"></path>
					<path d="M6.93665,6.61815 L11.93665,6.61815" id="Stroke-2" stroke-linejoin="round"></path>
					<path d="M6.93665,9.62645 L11.93665,9.62645" id="Stroke-3" stroke-linejoin="round"></path>
					<path d="M4.7897,3.6101 L5.7897,3.6101" id="Stroke-4" stroke-linejoin="round"></path>
					<path d="M4.7897,6.61815 L5.7897,6.61815" id="Stroke-5" stroke-linejoin="round"></path>
					<path d="M4.7897,9.62645 L5.9052,9.62645" id="Stroke-6" stroke-linejoin="round"></path>
					<path d="M2.25015,12.30025 L2.25015,0.74975 L13.99965,0.74975 L13.99965,13.57575 C13.99965,14.64475 13.13315,15.51125 12.06365,15.51125 L11.56365,15.51125" id="Stroke-7"></path>
					<path d="M10.37465,13.5759 L10.37465,12.3004 L0.25015,12.3004 L0.25015,13.5759 C0.25015,14.6449 1.11665,15.5114 2.18565,15.5114 L12.06365,15.5114 C12.10615,15.5114 12.14565,15.5019 12.18715,15.4989 C11.17665,15.4344 10.37465,14.6029 10.37465,13.5759 Z" id="Stroke-9"></path>
				</g>
			</g>
		</g>
	</g>
</svg>
