
<svg width="32px" height="10px" viewBox="0 0 32 10" version="1.1" xmlns="http://www.w3.org/2000/svg" xmlns:xlink="http://www.w3.org/1999/xlink">
    <!-- Generator: Sketch 48.2 (47327) - http://www.bohemiancoding.com/sketch -->
    <g id="01_01_Details" stroke="none" stroke-width="1" fill="none" fill-rule="evenodd">
        <g transform="translate(-10.000000, -586.000000)" fill="#4F2E88" id="Group">
            <g transform="translate(10.000000, 586.000000)">
                <path d="M10.5263158,0 L10.5263158,1.50136304 L11.3434548,1.50136304 L14.9320168,8.96711877 C15.2350709,9.59748258 15.885807,10 16.6008901,10 L16.9098254,10 L20.6315789,1.50136304 L20.6315789,0 L17.5169715,0 L17.5169715,1.50136304 L18.4697238,1.50136304 L16.1549577,7.13155858 L13.6014847,1.50136304 L14.5663453,1.50136304 L14.5663453,0 L10.5263158,0 Z" id="Fill-1"></path>
                <path d="M5.05252449,8.2685731 C3.363816,8.2685731 1.99435274,6.80519819 1.99435274,5.00016285 C1.99435274,3.19512751 3.363816,1.7317526 5.05252449,1.7317526 C6.74123297,1.7317526 8.11036711,3.19512751 8.11036711,5.00016285 C8.11036711,6.80519819 6.74123297,8.2685731 5.05252449,8.2685731 M5.05252449,0 C2.26192631,0 -0.000107093821,2.23854346 -0.000107093821,5.00016285 C-0.000107093821,7.76145654 2.26192631,10 5.05252449,10 C7.84312266,10 10.1051561,7.76145654 10.1051561,5.00016285 C10.1051561,2.23854346 7.84312266,0 5.05252449,0" id="Fill-3"></path>
                <path d="M26.5263158,8.2685731 C24.8376073,8.2685731 23.4684732,6.80519819 23.4684732,5.00016285 C23.4684732,3.19512751 24.8376073,1.7317526 26.5263158,1.7317526 C28.2153534,1.7317526 29.5844875,3.19512751 29.5844875,5.00016285 C29.5844875,6.80519819 28.2153534,8.2685731 26.5263158,8.2685731 M26.5263158,0 C23.7357176,0 21.4736842,2.23854346 21.4736842,5.00016285 C21.4736842,7.76145654 23.7357176,10 26.5263158,10 C29.316914,10 31.5789474,7.76145654 31.5789474,5.00016285 C31.5789474,2.23854346 29.316914,0 26.5263158,0" id="Fill-6"></path>
            </g>
        </g>
    </g>
</svg>