<?xml version="1.0" encoding="UTF-8"?>
<svg width="24px" height="24px" viewBox="0 0 24 24" version="1.1" xmlns="http://www.w3.org/2000/svg" xmlns:xlink="http://www.w3.org/1999/xlink">
    <!-- Generator: Sketch 50.2 (55047) - http://www.bohemiancoding.com/sketch -->
    <title>icon/stroke/bag/24</title>
    <desc>Created with Sketch.</desc>
    <defs></defs>
    <g id="icon/stroke/bag/24" stroke="none" stroke-width="1" fill="none" fill-rule="evenodd">
        <g id="Group" transform="translate(3.000000, 3.000000)" stroke="#111111" stroke-width="1.5">
            <polygon id="Rectangle-2" points="2 4 16 4 18 18 0 18"></polygon>
            <path d="M13,4 C13,1.790861 11.209139,0 9,0 C6.790861,0 5,1.790861 5,4" id="Oval" stroke-linecap="round" stroke-linejoin="round"></path>
        </g>
        <path d="M9,12.375 C8.37867966,12.375 7.875,11.8713203 7.875,11.25 C7.875,10.6286797 8.37867966,10.125 9,10.125 C9.62132034,10.125 10.125,10.6286797 10.125,11.25 C10.125,11.8713203 9.62132034,12.375 9,12.375 Z" id="Oval-2" fill="#111111" fill-rule="nonzero"></path>
        <path d="M15,12.375 C14.3786797,12.375 13.875,11.8713203 13.875,11.25 C13.875,10.6286797 14.3786797,10.125 15,10.125 C15.6213203,10.125 16.125,10.6286797 16.125,11.25 C16.125,11.8713203 15.6213203,12.375 15,12.375 Z" id="Oval-2-Copy" fill="#111111" fill-rule="nonzero"></path>
    </g>
</svg>