<?xml version="1.0" encoding="UTF-8"?>
<svg width="20px" height="16px" viewBox="0 0 20 16" version="1.1" xmlns="http://www.w3.org/2000/svg" xmlns:xlink="http://www.w3.org/1999/xlink">
    <!-- Generator: Sketch 48.2 (47327) - http://www.bohemiancoding.com/sketch -->
    <title>mm_ico_password_show</title>
    <desc>Created with Sketch.</desc>
    <defs></defs>
    <g id="Assets" stroke="none" stroke-width="1" fill="none" fill-rule="evenodd">
        <g id="mm_ico_password_show" fill="#191919">
            <path d="M10,3 C12.9464433,3 15.9464133,4.6796707 19,8.0390625 C18.2767821,8.74219102 17.8147331,9.18489492 17.6138393,9.3671875 C17.4129454,9.54948008 16.924111,9.95312187 16.1473214,10.578125 C15.3705318,11.2031281 14.7410738,11.6328113 14.2589286,11.8671875 C13.7767833,12.1015637 13.140629,12.348957 12.3504464,12.609375 C11.5602639,12.869793 10.7767896,13 10,13 C9.03570946,13 8.15178973,12.8828137 7.34821429,12.6484375 C6.54463884,12.4140613 5.74107545,12.0104195 4.9375,11.4375 C4.13392455,10.8645805 3.50446656,10.3763041 3.04910714,9.97265625 C2.59374772,9.5690084 1.91071884,8.91146289 1,8 C2.74108013,6.3072832 4.28793967,5.05078535 5.640625,4.23046875 C6.99331033,3.41015215 8.4464208,3 10,3 Z M7.42857143,10.5 C8.15178933,11.2031285 9.00892362,11.5546875 10,11.5546875 C10.9910764,11.5546875 11.8415143,11.2031285 12.5513393,10.5 C13.2611643,9.79687148 13.6160714,8.96354648 13.6160714,8 C13.6160714,7.03645352 13.2611643,6.20312852 12.5513393,5.5 C11.8415143,4.79687148 10.9910764,4.4453125 10,4.4453125 C9.00892362,4.4453125 8.15848569,4.79687148 7.44866071,5.5 C6.73883574,6.20312852 6.38392857,7.03645352 6.38392857,8 C6.38392857,8.96354648 6.73213938,9.79687148 7.42857143,10.5 Z M10,6.75 C10,7.11458516 10.1205345,7.41406133 10.3616071,7.6484375 C10.6026798,7.88281367 10.9107124,8 11.2857143,8 C11.5535728,8 11.8214272,7.90885508 12.0892857,7.7265625 L12.0892857,8 C12.0892857,8.57291953 11.8883949,9.0611959 11.4866071,9.46484375 C11.0848194,9.8684916 10.5892887,10.0703125 10,10.0703125 C9.41071134,10.0703125 8.91518058,9.8684916 8.51339286,9.46484375 C8.11160513,9.0611959 7.91071429,8.57291953 7.91071429,8 C7.91071429,7.42708047 8.11160513,6.9388041 8.51339286,6.53515625 C8.91518058,6.1315084 9.41071134,5.9296875 10,5.9296875 L10.3214286,5.9296875 C10.1071418,6.19010547 10,6.46354023 10,6.75 Z" id="ion-eye---Ionicons"></path>
        </g>
    </g>
</svg>