
<svg width="22px" height="18px" viewBox="0 0 22 18" version="1.1" xmlns="http://www.w3.org/2000/svg" xmlns:xlink="http://www.w3.org/1999/xlink">
	<!-- Generator: Sketch 48.2 (47327) - http://www.bohemiancoding.com/sketch -->
	<desc>Created with Sketch.</desc>
	<defs></defs>
	<g id="Assets" stroke="none" stroke-width="1" fill="none" fill-rule="evenodd">
		<g id="icon-hashtags-copy-6" transform="translate(-9.000000, -11.000000)" fill="#FFFFFF" stroke="#191919" stroke-width="1.5">
			<path d="M30,16.875 C30,18.4097299 29.148074,19.9722143 27.4441964,21.5625 L20.4910714,27.8125 C20.3571422,27.9375006 20.1934533,28 20,28 C19.8065467,28 19.6428578,27.9375006 19.5089286,27.8125 L12.5446429,21.5416667 C12.4702377,21.4861108 12.3679322,21.395834 12.2377232,21.2708333 C12.1075142,21.1458327 11.9010431,20.9184044 11.6183036,20.5885417 C11.3355641,20.2586789 11.0825904,19.9201406 10.859375,19.5729167 C10.6361596,19.2256927 10.4371289,18.805558 10.2622768,18.3125 C10.0874247,17.819442 10,17.3402801 10,16.875 C10,15.3472146 10.4724655,14.1527821 11.4174107,13.2916667 C12.3623559,12.4305512 13.6681464,12 15.3348214,12 C15.7961333,12 16.2667387,12.074652 16.7466518,12.2239583 C17.2265649,12.3732646 17.672989,12.5746515 18.0859375,12.828125 C18.498886,13.0815985 18.8541652,13.3194433 19.1517857,13.5416667 C19.4494062,13.76389 19.7321415,13.9999987 20,14.25 C20.2678585,13.9999987 20.5505937,13.76389 20.8482143,13.5416667 C21.1458348,13.3194433 21.501114,13.0815985 21.9140625,12.828125 C22.327011,12.5746515 22.7734351,12.3732646 23.2533482,12.2239583 C23.7332613,12.074652 24.2038667,12 24.6651786,12 C26.3318536,12 27.6376441,12.4305512 28.5825893,13.2916667 C29.5275345,14.1527821 30,15.3472146 30,16.875 Z" id="heart-o---FontAwesome"></path>
		</g>
	</g>
</svg>
