
<svg width="22px" height="18px" viewBox="0 0 22 18" version="1.1" xmlns="http://www.w3.org/2000/svg" xmlns:xlink="http://www.w3.org/1999/xlink">
    <!-- Generator: Sketch 48.2 (47327) - http://www.bohemiancoding.com/sketch -->
    <desc>Created with Sketch.</desc>
    <defs></defs>
    <g id="00_01_Lovelist" stroke="none" stroke-width="1" fill="none" fill-rule="evenodd">
        <g id="00_01_Lovelist-SingleView" transform="translate(-217.000000, -540.000000)" fill="#FFFFFF" stroke="#191919">
            <g id="Group-3" transform="translate(0.000000, 54.000000)">
                <g id="comment" transform="translate(218.000000, 487.000000)">
                    <path d="M17.0454545,2.3180212 C15.1136267,0.772666007 12.7651653,0 10,0 C7.23483466,0 4.87690369,0.763243251 2.92613636,2.28975265 C0.975369034,3.81626205 0,5.65369951 0,7.80212014 C0,9.23440057 0.511358523,10.610123 1.53409091,11.9293286 C1.53409091,12.0047118 1.55303011,12.0612483 1.59090909,12.0989399 L1.70454545,12.2120141 C1.93181932,12.5512384 2.04545455,12.9281487 2.04545455,13.3427562 C2.04545455,13.5689057 1.79924489,14.4546448 1.30681818,16 L3.52272727,15.0388693 C3.82575909,14.8881029 4.03409034,14.8127208 4.14772727,14.8127208 L4.20454545,14.8127208 C4.50757727,14.6996461 4.81060455,14.6431095 5.11363636,14.6431095 C5.26515227,14.6431095 5.53030114,14.6808006 5.90909091,14.7561837 L5.96590909,14.8127208 L6.07954545,14.8127208 C7.29167273,15.1896367 8.61741705,15.3780919 10.0568182,15.3780919 C12.7841045,15.3780919 15.1515051,14.6242714 17.1590909,13.1166078 C19.0530398,11.6466358 20,9.8751576 20,7.80212014 C20,5.65369951 19.0151614,3.82568481 17.0454545,2.3180212 Z" id="ion-ios-chatbubble-outline---Ionicons"></path>
                </g>
            </g>
        </g>
    </g>
</svg>