
<svg width="14px" height="16px" viewBox="0 0 14 16" version="1.1" xmlns="http://www.w3.org/2000/svg" xmlns:xlink="http://www.w3.org/1999/xlink">
	<!-- Generator: Sketch 48.2 (47327) - http://www.bohemiancoding.com/sketch -->
	<desc>Created with Sketch.</desc>
	<defs></defs>
	<g id="04_Profile" stroke="none" stroke-width="1" fill="none" fill-rule="evenodd">
		<g id="04_01_Profile" transform="translate(-19.000000, -357.000000)">
			<g id="icon-address" transform="translate(15.000000, 355.000000)">
				<path d="M5.07286154,14.8657231 L5.07286154,16.1974154 C5.07286154,16.8214154 5.57870769,17.3272615 6.20270769,17.3272615 L15.7239385,17.3272615 C16.3479385,17.3272615 16.8537846,16.8214154 16.8537846,16.1974154 L16.8537846,3.74572308 C16.8537846,3.12172308 16.3479385,2.61464615 15.7239385,2.61464615 L6.20270769,2.61464615 C5.57870769,2.61464615 5.07286154,3.12172308 5.07286154,3.74572308 L5.07286154,5.07618462" id="Stroke-1" stroke="#191919" stroke-width="1" stroke-linejoin="round"></path>
				<path d="M3.99963077,5.49009231 L6.14609231,5.49009231" id="Stroke-3" stroke="#191919" stroke-width="1" stroke-linejoin="round"></path>
				<path d="M5.07286154,7.14818462 L5.07286154,9.29341538" id="Stroke-6" stroke="#191919" stroke-width="1" stroke-linejoin="round"></path>
				<path d="M5.07286154,11.1758769 L5.07286154,13.3223385" id="Stroke-8" stroke="#191919" stroke-width="1" stroke-linejoin="round"></path>
				<path d="M3.99963077,13.3218462 L6.14609231,13.3218462" id="Stroke-10" stroke="#191919" stroke-width="1" stroke-linejoin="round"></path>
				<path d="M3.99963077,9.29366154 L6.14609231,9.29366154" id="Stroke-13" stroke="#191919" stroke-width="1" stroke-linejoin="round"></path>
				<path d="M11.8005346,8.61336898 C11.7601068,8.60759358 11.7182351,8.60326203 11.6763634,8.60037433 C11.6330479,8.59748663 11.5897324,8.59604278 11.5449731,8.59604278 C11.3789303,8.59604278 11.2229945,8.63358289 11.0757217,8.7086631 C10.928449,8.78374332 10.8013902,8.88336898 10.6902137,9.01187166 C10.5804811,9.13893048 10.4938501,9.28620321 10.4303207,9.45368984 C10.3682351,9.62117647 10.3350265,9.7973262 10.3350265,9.98213904 C10.3350265,10.1640642 10.3725667,10.3026738 10.446203,10.3979679 C10.5183955,10.493262 10.6266843,10.5409091 10.7667378,10.5409091 C10.8374864,10.5409091 10.9082351,10.5293583 10.9789838,10.5077005 C11.0482886,10.4860428 11.1161495,10.4485027 11.179679,10.3936364 C11.2446522,10.3387701 11.3024062,10.2680214 11.3543848,10.1770588 C11.4063634,10.0875401 11.449679,9.97491979 11.4843314,9.83631016 L11.8005346,8.61336898 Z M12.4170586,9.70925134 C12.375187,9.88251337 12.3549731,10.0254545 12.3535292,10.1380749 C12.3520854,10.2506952 12.3679677,10.3402139 12.3997324,10.4037433 C12.4314971,10.4687166 12.4777003,10.5134759 12.5383421,10.5380214 C12.5989838,10.5640107 12.6682886,10.5755615 12.7462565,10.5755615 C12.8603207,10.5755615 12.9700533,10.5380214 13.0725667,10.4614973 C13.17508,10.3849733 13.2645987,10.2795722 13.3411228,10.1424064 C13.4176469,10.0066845 13.4768447,9.84497326 13.5201602,9.65871658 C13.5663634,9.47245989 13.5865773,9.26887701 13.5865773,9.04941176 C13.5865773,8.6768984 13.5302672,8.34770053 13.416203,8.06181818 C13.300695,7.77593583 13.1418715,7.53770053 12.933957,7.3471123 C12.7274864,7.15652406 12.4791442,7.01213904 12.1889303,6.91395722 C11.8972725,6.81433155 11.5781816,6.76524064 11.2287699,6.76524064 C10.9746522,6.76524064 10.7320854,6.7984492 10.5010693,6.86342246 C10.2700533,6.92695187 10.0578073,7.01935829 9.85999981,7.13775401 C9.66508002,7.25614973 9.48604259,7.39909091 9.32866291,7.56657754 C9.17128323,7.73406417 9.03556131,7.92032086 8.92438484,8.12534759 C8.81320837,8.33037433 8.72657735,8.55128342 8.66593564,8.78807487 C8.60673778,9.02342246 8.57641692,9.27032086 8.57641692,9.52877005 C8.57641692,10.0037968 8.64860943,10.4210695 8.79588216,10.7820321 C8.94315489,11.1429947 9.14385008,11.4433155 9.40085542,11.6844385 C9.65786077,11.9255615 9.96106933,12.1060428 10.3104811,12.2273262 C10.658449,12.3500535 11.0381816,12.4106952 11.4453474,12.4106952 C11.6734757,12.4106952 11.8857217,12.3977005 12.0806415,12.3731551 C12.2755613,12.3486096 12.4545987,12.3154011 12.61631,12.2749733 C12.7809089,12.2331016 12.9252939,12.1868984 13.0552405,12.1334759 C13.1837431,12.0800535 13.2963634,12.026631 13.3945453,11.9703209 C13.4782886,11.9241176 13.5533688,11.9096791 13.6168982,11.9284492 C13.6789838,11.9486631 13.725187,11.9948663 13.7555078,12.0728342 L13.9215506,12.4987701 C13.6197859,12.6980214 13.2645987,12.8611765 12.8545453,12.9867914 C12.4459356,13.1124064 11.9752405,13.1759358 11.4453474,13.1759358 C10.9053474,13.1759358 10.4057752,13.0921925 9.94951853,12.923262 C9.49037414,12.7543316 9.09620302,12.5132086 8.76267361,12.1970053 C8.43058804,11.882246 8.16925115,11.4996257 7.98155061,11.0491444 C7.79529393,10.5986631 7.69999981,10.0918717 7.69999981,9.52877005 C7.69999981,9.21834225 7.74042762,8.91368984 7.82417093,8.61770053 C7.9064704,8.32171123 8.02197842,8.04304813 8.170695,7.78171123 C8.32085542,7.52181818 8.50278056,7.28213904 8.71502655,7.0626738 C8.92727254,6.84465241 9.16406398,6.65695187 9.42395703,6.49957219 C9.68673778,6.34219251 9.96828858,6.22090909 10.2714971,6.13283422 C10.5747057,6.04475936 10.8952405,6 11.2287699,6 C11.507433,6 11.7803207,6.03176471 12.0503207,6.09529412 C12.317433,6.15737968 12.5715506,6.2497861 12.8112298,6.37251337 C13.049465,6.49379679 13.2703741,6.64395722 13.4710693,6.82010695 C13.6717645,6.99770053 13.8450265,7.19983957 13.9908554,7.42652406 C14.1352405,7.65176471 14.2478608,7.90010695 14.3287164,8.1715508 C14.409572,8.44299465 14.4499998,8.73465241 14.4499998,9.04941176 C14.4499998,9.36417112 14.4037966,9.65727273 14.3085025,9.93160428 C14.2146522,10.2059358 14.0847057,10.445615 13.9172191,10.6506417 C13.7511763,10.8556684 13.5519249,11.0173797 13.3223528,11.1343316 C13.0913367,11.2527273 12.8401068,11.3104813 12.5657752,11.3104813 C12.3722993,11.3104813 12.1961495,11.2671658 12.0387699,11.1790909 C11.8813902,11.091016 11.7658822,10.9451872 11.6965773,10.7430481 C11.5233153,10.9451872 11.3399463,11.0895722 11.1479142,11.1762032 C10.9558822,11.2628342 10.7479677,11.3061497 10.5256148,11.3061497 C10.3364704,11.3061497 10.1733153,11.274385 10.0347057,11.2094118 C9.89609607,11.1444385 9.77914419,11.0549198 9.68529393,10.9394118 C9.59144366,10.8224599 9.520695,10.686738 9.47449179,10.5279144 C9.42684473,10.3690909 9.40374312,10.1972727 9.40374312,10.0124599 C9.40374312,9.84641711 9.42395703,9.67604278 9.46727254,9.5042246 C9.50914419,9.33385027 9.57411746,9.16780749 9.65930462,9.00754011 C9.74304794,8.84727273 9.84989286,8.6971123 9.97983938,8.55561497 C10.1083421,8.4155615 10.2599463,8.29283422 10.4332084,8.18887701 C10.6064704,8.08491979 10.802834,8.00262032 11.0208554,7.94342246 C11.2388768,7.88278075 11.4814437,7.85245989 11.748556,7.85245989 C11.8683955,7.85245989 11.9781282,7.85679144 12.0777538,7.86545455 C12.1788233,7.87411765 12.2712298,7.88855615 12.3607485,7.90588235 C12.4473795,7.92320856 12.5311228,7.94486631 12.6090907,7.97085561 C12.6856148,7.99828877 12.7650265,8.02716578 12.8444383,8.05893048 L12.4170586,9.70925134 Z" id="Fill-16" fill="#000000" fill-rule="evenodd"></path>
			</g>
		</g>
	</g>
</svg>
