<?xml version="1.0" encoding="UTF-8"?>
<svg width="30px" height="30px" viewBox="0 0 30 30" version="1.1" xmlns="http://www.w3.org/2000/svg" xmlns:xlink="http://www.w3.org/1999/xlink">
    <!-- Generator: Sketch 49.1 (51147) - http://www.bohemiancoding.com/sketch -->
    <title>line</title>
    <desc>Created with Sketch.</desc>
    <defs></defs>
    <g id="Symbols" stroke="none" stroke-width="1" fill="none" fill-rule="evenodd">
        <g id="Footer" transform="translate(-204.000000, -209.000000)">
            <g id="footer">
                <g id="line" transform="translate(204.000000, 209.000000)">
                    <rect id="Rectangle" x="0" y="0" width="30" height="30"></rect>
                    <circle id="Oval" stroke="#A4A4A4" stroke-width="1.5" cx="15" cy="15" r="14.25"></circle>
                    <g id="Group-3" transform="translate(6.818182, 8.181818)" fill="#A4A4A4">
                        <path d="M16.3135877,6.80243192 C16.3052123,6.9322314 16.2866274,7.09818453 16.2488464,7.29468229 C16.1488305,7.9214876 15.9355327,8.5197602 15.6253368,9.07724563 C15.4796536,9.34019781 14.7641979,10.3401843 14.5445421,10.6035632 C13.3385441,12.0525132 11.3192143,13.7246647 7.94196762,15.3502371 C7.62651421,15.5019239 7.26710517,15.2492142 7.30580324,14.9024929 L7.47581796,13.3747121 C7.50332843,13.1313304 7.32683347,12.9115432 7.08278501,12.8855711 C3.08514661,12.4685544 0,9.75526351 0,6.47089148 C0,2.89716841 3.65186233,0 8.15716065,0 C12.5354217,0 16.1082373,2.73615364 16.3061904,6.17032245 C16.3116925,6.26988213 16.3276486,6.58807072 16.3135877,6.80243192 Z M6.24548851,4.63999323 L6.06306351,4.63999323 C5.88302276,4.63999323 5.73733952,4.78570519 5.73733952,4.965315 L5.73733952,8.2887671 C5.73733952,8.46825498 5.88302276,8.61402791 6.06306351,8.61402791 L6.24548851,8.61402791 C6.42534586,8.61402791 6.57170157,8.46825498 6.57170157,8.2887671 L6.57170157,4.965315 C6.57170157,4.78570519 6.42534586,4.63999323 6.24548851,4.63999323 Z M10.034891,4.63999323 C9.91928586,4.63999323 9.81517401,4.68663325 9.73997872,4.76192792 C9.66404981,4.83691776 9.61770995,4.94147676 9.61770995,5.05603441 L9.61770995,6.97534751 C9.61770995,6.97534751 7.95130896,4.80765343 7.92599932,4.77954749 C7.84621895,4.69023032 7.72871867,4.63548164 7.59880811,4.64048096 C7.37169388,4.64877252 7.19764429,4.84667254 7.19764429,5.07292237 L7.19764429,8.19798672 C7.19764429,8.42777266 7.38434869,8.61402791 7.61482531,8.61402791 C7.73018589,8.61402791 7.83454228,8.56714402 7.90973757,8.49209321 C7.98542194,8.41710337 8.03200634,8.31254437 8.03200634,8.19798672 L8.03200634,6.28989161 C8.03200634,6.28989161 9.72371697,8.4764246 9.74878207,8.499958 C9.82257127,8.56976561 9.92191464,8.61305243 10.0308561,8.61402791 C10.2627388,8.61597886 10.452072,8.41161631 10.452072,8.18036716 L10.452072,5.05603441 C10.452072,4.82624848 10.2651231,4.63999323 10.034891,4.63999323 Z M4.92345749,7.7814517 L3.67142534,7.7814517 L3.67142534,5.05602832 C3.67142534,4.82624238 3.4846598,4.63998713 3.25424431,4.63998713 C3.13888373,4.63998713 3.03477188,4.68662715 2.95927092,4.76192183 C2.88358655,4.83691167 2.83700215,4.9412268 2.83700215,5.05602832 L2.83700215,8.19798063 C2.83700215,8.42758366 3.02401223,8.61402181 3.25424431,8.61402181 L4.92345749,8.61402181 C5.15393411,8.61402181 5.34069965,8.42758366 5.34069965,8.19798063 C5.34069965,8.08275234 5.29362617,7.97886398 5.21843088,7.9033864 C5.14317446,7.82766495 5.03832899,7.7814517 4.92345749,7.7814517 Z M13.1644517,5.4720756 C13.3946838,5.4720756 13.5816327,5.28563745 13.5816327,5.05603441 C13.5816327,4.82624848 13.3946838,4.63999323 13.1644517,4.63999323 L11.4951774,4.63999323 C11.2647619,4.63999323 11.0779964,4.82624848 11.0779964,5.05603441 L11.0779964,8.19798672 C11.0779964,8.42777266 11.2647619,8.61402791 11.4951774,8.61402791 L13.1644517,8.61402791 C13.3946838,8.61402791 13.5816327,8.42777266 13.5816327,8.19798672 C13.5816327,8.0830023 13.5346204,7.97887007 13.459364,7.90339249 C13.3839241,7.82791492 13.2793232,7.7814578 13.1644517,7.7814578 L11.9124196,7.7814578 L11.9124196,7.0429603 L13.1644517,7.0429603 C13.3946838,7.0429603 13.5816327,6.85670505 13.5816327,6.62691912 C13.5816327,6.51187373 13.5346204,6.40804634 13.459364,6.33275166 C13.3839241,6.25727408 13.2793232,6.21081696 13.1644517,6.21081696 L11.9124196,6.21081696 L11.9124196,5.4720756 L13.1644517,5.4720756 Z" id="Combined-Shape"></path>
                    </g>
                </g>
            </g>
        </g>
    </g>
</svg>