<?xml version="1.0" encoding="UTF-8"?>
<svg width="10px" height="10px" viewBox="0 0 10 10" version="1.1" xmlns="http://www.w3.org/2000/svg" xmlns:xlink="http://www.w3.org/1999/xlink">
    <!-- Generator: Sketch 50.2 (55047) - http://www.bohemiancoding.com/sketch -->
    <title>Page 1</title>
    <desc>Created with Sketch.</desc>
    <defs>
        <polygon id="path-1" points="0 0 9.95842954 0 9.95842954 9.97073608 0 9.97073608"></polygon>
    </defs>
    <g id="Symbols" stroke="none" stroke-width="1" fill="none" fill-rule="evenodd">
        <g id="Header/USP" transform="translate(-303.000000, -10.000000)">
            <g id="Page-1" transform="translate(303.000000, 10.000000)">
                <mask id="mask-2" fill="white">
                    <use xlink:href="#path-1"></use>
                </mask>
                <g id="Clip-2"></g>
                <path d="M9.95842735,4.42421186 C9.9588547,3.92039831 9.89663248,3.47497458 9.73936752,2.9915 C9.51859829,2.31217797 9.15355556,1.71590678 8.63500855,1.22904237 C8.24765812,0.865398305 7.76731624,0.5665 7.19663248,0.347601695 C6.60210256,0.119466102 5.85586325,-0.0514661017 4.86235897,0.0141271186 C3.65483761,0.0937881356 2.56133333,0.535144068 1.60577778,1.42285593 C0.709367521,2.2555678 0.0798803419,3.42607627 0.00594871795,4.85488983 C-0.128666667,7.45590678 2.02398291,10.4400593 5.77680342,9.90870339 C7.13475214,9.7165 7.87321368,9.16836441 8.28398291,8.80624576 C8.64876923,8.48463559 8.57603419,8.05421186 7.95492308,8.47404237 C7.63492308,8.69031356 6.56671795,9.49014407 4.90047863,9.41251695 C3.88030769,9.36488983 2.94671795,9.06836441 2.20201709,8.42844915 C1.39287179,7.73311017 0.80774359,6.75472034 0.892273504,5.07514407 C0.929196581,4.33980508 1.19329915,3.48429661 1.70423932,2.74641525 C2.39611966,1.74709322 3.53782906,0.949974576 5.16201709,0.900567797 C6.59663248,0.856923729 7.55902564,1.30294068 8.18748718,1.88904237 C8.68201709,2.35031356 8.9697094,2.89819492 9.11791453,3.3624322 C9.2245812,3.69633051 9.27398291,4.04827966 9.28449573,4.39777119 C9.29449573,4.73166949 9.27013675,5.07073729 9.19124786,5.39616102 C9.13355556,5.6344661 9.05654701,5.91141525 8.86603419,6.08268644 C8.78073504,6.1594661 8.65586325,6.20387288 8.54782906,6.16421186 C8.43278632,6.12192373 8.36945299,6.00116102 8.32663248,5.88717797 C7.99432479,5.00285593 8.27116239,3.96455085 7.80765812,3.12200847 C7.73475214,2.98955085 7.62825641,2.85768644 7.47851282,2.83099153 C7.28688889,2.79683898 7.11364103,2.94658475 6.9945812,3.09929661 C6.51398291,3.71548305 6.38347009,4.52116102 6.14064957,5.26192373 C6.13705983,5.27302542 6.13312821,5.28438136 6.12509402,5.29285593 C6.08817094,5.33141525 6.03099145,5.27133051 6.01406838,5.22090678 C5.8771453,4.81370339 5.84338462,4.38311017 5.80492308,3.95827966 C5.76740171,3.54260169 5.75099145,3.08811017 5.52757265,2.72158475 C5.44312821,2.58294068 5.31535043,2.45268644 5.15278632,2.43700847 C4.91842735,2.41429661 4.73577778,2.63065254 4.62210256,2.83514407 C4.35338462,3.31870339 4.21082051,3.85633051 4.09680342,4.39319492 C4.01218803,4.7915 3.93090598,5.19073729 3.83381197,5.58633051 C3.75552137,5.90573729 3.70953846,6.29200847 3.45082051,6.52777119 C3.32526496,6.64209322 3.12449573,6.69429661 2.98176068,6.60166949 C2.87671795,6.5335339 2.82774359,6.40683898 2.79996581,6.28539831 C2.77218803,6.16412712 2.75791453,6.03658475 2.69620513,5.92819492 C2.58099145,5.72590678 2.30782906,5.63963559 2.08500855,5.71158475 C1.86218803,5.7835339 1.69876923,5.99141525 1.65082051,6.21878814 C1.60287179,6.44624576 1.6605641,6.6874322 1.77757265,6.88870339 C1.96560684,7.21209322 2.30791453,7.44344915 2.68312821,7.4874322 C3.09338462,7.53548305 3.45928205,7.31717797 3.71133333,7.00836441 C4.19723077,6.41268644 4.37774359,5.60472034 4.608,4.89124576 C4.6622735,4.72319492 4.71406838,4.55421186 4.77688889,4.38904237 C4.81962393,4.2765 4.85953846,4.13277119 4.93278632,4.03565254 C4.95577778,4.00505932 4.99005128,3.98073729 5.02842735,3.9785339 C5.07201709,3.97607627 5.1122735,4.00226271 5.14304274,4.03302542 C5.24868376,4.13887288 5.27347009,4.29302542 5.31064957,4.43116102 C5.35526496,4.59683898 5.39252991,4.76429661 5.4262906,4.9324322 C5.49492308,5.27438136 5.55184615,5.62200847 5.68039316,5.94827966 C5.7122735,6.02921186 5.74842735,6.10844915 5.78988034,6.18497458 C5.86646154,6.32666949 6.00304274,6.47641525 6.16082051,6.43921186 C6.28731624,6.40929661 6.3537265,6.2735339 6.39287179,6.1505678 C6.59834188,5.50463559 6.54355556,4.75726271 6.94919658,4.21234746 C7.00013675,4.14395763 7.06295726,4.07692373 7.1462906,4.05666949 C7.25432479,4.03031356 7.36876923,4.09302542 7.43449573,4.18200847 C7.50030769,4.27099153 7.52748718,4.38175424 7.55090598,4.48963559 C7.63432479,4.87421186 7.69047863,5.26480508 7.79500855,5.64480508 C7.88748718,5.98133051 8.01697436,6.41768644 8.32158974,6.62582203 C8.44167521,6.70802542 8.58671795,6.74955085 8.73261538,6.73726271 C8.92842735,6.72082203 9.10449573,6.6155678 9.24535043,6.48488983 C9.4297094,6.31378814 9.56603419,6.09497458 9.66928205,5.86827966 C9.79953846,5.5824322 9.87962393,5.27514407 9.92201709,4.96488983 C9.94654701,4.78573729 9.95825641,4.60497458 9.95842735,4.42421186" id="Fill-1" fill="#000000" mask="url(#mask-2)"></path>
            </g>
        </g>
    </g>
</svg>