<?xml version="1.0" encoding="UTF-8"?>
<svg width="14px" height="4px" viewBox="0 0 14 4" version="1.1" xmlns="http://www.w3.org/2000/svg" xmlns:xlink="http://www.w3.org/1999/xlink">
    <!-- Generator: Sketch 49.1 (51147) - http://www.bohemiancoding.com/sketch -->
    <title>Options - simple-line-icons</title>
    <desc>Created with Sketch.</desc>
    <defs></defs>
    <g id="MS-5-(Profile,-Checkout,-Payment)" stroke="none" stroke-width="1" fill="none" fill-rule="evenodd">
        <g id="04_05_ShippingAddress" transform="translate(-291.000000, -168.000000)" fill="#191919">
            <path d="M303.291016,171.597656 L302.921875,171.597656 C302.91276,171.597656 302.899089,171.595378 302.880859,171.59082 C302.86263,171.586263 302.848958,171.579427 302.839844,171.570312 C302.447915,171.515625 302.112957,171.342449 301.834961,171.050781 C301.556965,170.759113 301.408854,170.421877 301.390625,170.039062 C301.354166,169.610675 301.44759,169.232424 301.670898,168.904297 C301.894207,168.57617 302.206378,168.352865 302.607422,168.234375 C302.652995,168.216146 302.703125,168.200195 302.757812,168.186523 C302.8125,168.172851 302.867187,168.161458 302.921875,168.152344 L303.291016,168.152344 C303.309245,168.152344 303.322917,168.154622 303.332031,168.15918 L303.373047,168.179688 C303.728517,168.234375 304.036132,168.382486 304.295898,168.624023 C304.555665,168.865561 304.722005,169.164061 304.794922,169.519531 C304.804037,169.546875 304.810872,169.574219 304.81543,169.601562 C304.819987,169.628906 304.826823,169.65625 304.835938,169.683594 L304.835938,170.052734 C304.835938,170.070964 304.833659,170.084635 304.829102,170.09375 L304.808594,170.134766 C304.753906,170.490236 304.608074,170.793293 304.371094,171.043945 C304.134113,171.294598 303.84245,171.460937 303.496094,171.542969 C303.459635,171.552083 303.425456,171.561198 303.393555,171.570312 C303.361653,171.579427 303.327474,171.588542 303.291016,171.597656 Z M292.791016,168.152344 L293.160156,168.152344 C293.169271,168.152344 293.182943,168.154622 293.201172,168.15918 C293.219401,168.163737 293.233073,168.170573 293.242188,168.179688 C293.634117,168.234375 293.969074,168.409829 294.24707,168.706055 C294.525066,169.00228 294.673177,169.341795 294.691406,169.724609 C294.71875,170.143882 294.620769,170.519855 294.397461,170.852539 C294.174153,171.185223 293.861981,171.410807 293.460938,171.529297 C293.415364,171.538412 293.365235,171.549805 293.310547,171.563477 C293.255859,171.577149 293.205729,171.588542 293.160156,171.597656 L292.791016,171.597656 C292.772786,171.597656 292.759115,171.595378 292.75,171.59082 L292.708984,171.570312 C292.353514,171.50651 292.059571,171.372071 291.827148,171.166992 C291.594725,170.961913 291.423829,170.6862 291.314453,170.339844 C291.305338,170.294271 291.293945,170.248698 291.280273,170.203125 C291.266601,170.157552 291.255208,170.111979 291.246094,170.066406 L291.246094,169.683594 C291.246094,169.674479 291.250651,169.663086 291.259766,169.649414 C291.26888,169.635742 291.273438,169.624349 291.273438,169.615234 C291.328125,169.259764 291.473957,168.954428 291.710938,168.699219 C291.947918,168.444009 292.244139,168.275391 292.599609,168.193359 C292.626953,168.193359 292.656575,168.188802 292.688477,168.179688 C292.720378,168.170573 292.754557,168.161458 292.791016,168.152344 Z M297.849609,168.152344 L298.232422,168.152344 C298.241537,168.152344 298.25293,168.154622 298.266602,168.15918 C298.280274,168.163737 298.296224,168.170573 298.314453,168.179688 C298.706382,168.24349 299.04134,168.423501 299.319336,168.719727 C299.597332,169.015952 299.745443,169.355467 299.763672,169.738281 C299.781901,170.175783 299.672527,170.560871 299.435547,170.893555 C299.198567,171.226239 298.879559,171.442708 298.478516,171.542969 C298.442057,171.552083 298.401042,171.561198 298.355469,171.570312 C298.309896,171.579427 298.26888,171.588542 298.232422,171.597656 L297.849609,171.597656 C297.840495,171.597656 297.829102,171.593099 297.81543,171.583984 C297.801758,171.57487 297.785807,171.570312 297.767578,171.570312 C297.375649,171.515625 297.040691,171.337892 296.762695,171.037109 C296.484699,170.736327 296.336589,170.394533 296.318359,170.011719 C296.30013,169.574217 296.409504,169.189129 296.646484,168.856445 C296.883465,168.523761 297.202472,168.307292 297.603516,168.207031 C297.639974,168.197917 297.680989,168.188802 297.726562,168.179688 C297.772136,168.170573 297.813151,168.161458 297.849609,168.152344 Z" id="Options---simple-line-icons"></path>
        </g>
    </g>
</svg>