
<svg width="20px" height="16px" viewBox="0 0 20 16" version="1.1" xmlns="http://www.w3.org/2000/svg" xmlns:xlink="http://www.w3.org/1999/xlink">
    <!-- Generator: Sketch 48.2 (47327) - http://www.bohemiancoding.com/sketch -->
    <desc>Created with Sketch.</desc>
    <defs></defs>
    <g id="00_01_Lovelist" stroke="none" stroke-width="1" fill="none" fill-rule="evenodd">
        <g id="00_01_Lovelist-SingleView" transform="translate(-52.000000, -541.000000)" fill="#CA333F">
            <g id="Group-3" transform="translate(0.000000, 54.000000)">
                <g id="lovelist" transform="translate(52.000000, 487.000000)">
                    <g id="love-on-1x1">
                        <path d="M20,4.875 C20,6.4097299 19.148074,7.97221427 17.4441964,9.5625 L10.4910714,15.8125 C10.3571422,15.9375006 10.1934533,16 10,16 C9.80654665,16 9.64285781,15.9375006 9.50892857,15.8125 L2.54464286,9.54166667 C2.47023772,9.48611083 2.3679322,9.39583396 2.23772321,9.27083333 C2.10751423,9.14583271 1.90104308,8.91840443 1.61830357,8.58854167 C1.33556406,8.25867891 1.0825904,7.92014062 0.859375,7.57291667 C0.636159598,7.22569271 0.43712885,6.80555802 0.262276786,6.3125 C0.087424721,5.81944198 0,5.3402801 0,4.875 C0,3.34721458 0.472465513,2.15278208 1.41741071,1.29166667 C2.36235592,0.43055125 3.66814643,0 5.33482143,0 C5.79613326,0 6.26673867,0.0746520312 6.74665179,0.223958333 C7.2265649,0.373264635 7.67298901,0.57465151 8.0859375,0.828125 C8.49888599,1.08159849 8.85416518,1.31944333 9.15178571,1.54166667 C9.44940625,1.76389 9.73214152,1.99999875 10,2.25 C10.2678585,1.99999875 10.5505937,1.76389 10.8482143,1.54166667 C11.1458348,1.31944333 11.501114,1.08159849 11.9140625,0.828125 C12.327011,0.57465151 12.7734351,0.373264635 13.2533482,0.223958333 C13.7332613,0.0746520312 14.2038667,0 14.6651786,0 C16.3318536,0 17.6376441,0.43055125 18.5825893,1.29166667 C19.5275345,2.15278208 20,3.34721458 20,4.875 Z" id="heart-o---FontAwesome"></path>
                    </g>
                </g>
            </g>
        </g>
    </g>
</svg>