
<svg width="24px" height="14px" viewBox="0 0 24 14" version="1.1" xmlns="http://www.w3.org/2000/svg" xmlns:xlink="http://www.w3.org/1999/xlink">
	<!-- Generator: Sketch 48.2 (47327) - http://www.bohemiancoding.com/sketch -->
	<desc>Created with Sketch.</desc>
	<defs></defs>
	<g id="MS-5-(Profile,-Checkout,-Payment)" stroke="none" stroke-width="1" fill="none" fill-rule="evenodd">
		<g id="04_02_01_Order-Details-LacakPesanan" transform="translate(-15.000000, -101.000000)">
			<g id="Page-1" transform="translate(15.000000, 102.000000)">
				<rect id="Rectangle-3" fill="#FFFFFF" x="5" y="0" width="12" height="11"></rect>
				<polyline id="Stroke-1" stroke="#191919" points="4.64062222 4.46070625 4.64062222 6.70645625 1.82728889 6.70645625"></polyline>
				<polyline id="Stroke-2" stroke="#191919" points="9.97048889 10.8408625 16.9536 10.8408625 16.9536 0.405925 4.64071111 0.405925 4.64071111 4.4603"></polyline>
				<polyline id="Stroke-4" stroke="#191919" points="4.64062222 9.38884375 4.64062222 10.8407813 7.28417778 10.8407813"></polyline>
				<polyline id="Stroke-5" stroke="#191919" fill="#FFFFFF" points="18.5304 10.8408625 16.9544 10.8408625 16.9544 2.8962375 19.5535111 2.8962375 23.4788444 6.8092375 23.4788444 10.8408625 21.1650667 10.8408625"></polyline>
				<path d="M9.75004444,3.4870875 L4.64071111,3.4870875" id="Stroke-7" stroke="#191919"></path>
				<path d="M3.65537778,9.75820625 L0.000266666667,9.75820625" id="Stroke-8" stroke="#191919"></path>
				<path d="M9.97048889,10.644075 C10.0896,11.3217 9.58382222,11.960325 8.8416,12.0683875 C8.10026667,12.1772625 7.40248889,11.7157625 7.28426667,11.037325 C7.16515556,10.3597 7.67004444,9.7218875 8.41226667,9.6130125 C9.1536,9.50495 9.85137778,9.96645 9.97048889,10.644075 Z" id="Stroke-10" stroke="#191919" fill="#FFFFFF"></path>
				<path d="M21.1649778,10.644075 C21.2840889,11.3217 20.7783111,11.960325 20.0360889,12.0683875 C19.2947556,12.1772625 18.5969778,11.7157625 18.4787556,11.037325 C18.3596444,10.3597 18.8645333,9.7218875 19.6067556,9.6130125 C20.3480889,9.50495 21.0458667,9.96645 21.1649778,10.644075 Z" id="Stroke-12" stroke="#191919" fill="#FFFFFF"></path>
				<polyline id="Stroke-14" stroke="#191919" points="8.7648 2.02076875 10.3692444 3.48733125 8.7648 4.95308125"></polyline>
				<path d="M9.75004444,3.4870875 L4.64071111,3.4870875" id="Stroke-16" stroke="#191919"></path>
			</g>
		</g>
	</g>
</svg>
