<?xml version="1.0" encoding="UTF-8"?>
<svg width="172px" height="172px" viewBox="0 0 172 172" version="1.1" xmlns="http://www.w3.org/2000/svg" xmlns:xlink="http://www.w3.org/1999/xlink">
    <!-- Generator: Sketch 48.2 (47327) - http://www.bohemiancoding.com/sketch -->
    <title>mm_ico_no_result</title>
    <desc>Created with Sketch.</desc>
    <defs></defs>
    <g id="Empty-State-Icon" stroke="none" stroke-width="1" fill="none" fill-rule="evenodd">
        <g id="mm_ico_no_result">
            <g id="Group-7" transform="translate(1.000000, 1.000000)">
                <circle id="Oval-2" fill="#F4F4F4" cx="85" cy="85" r="85"></circle>
                <g id="Group-5" transform="translate(94.074367, 48.794061) scale(-1, 1) rotate(-22.000000) translate(-94.074367, -48.794061) translate(70.074367, 32.294061)">
                    <rect id="Rectangle-2" fill="#A7A7A7" x="25.147929" y="14.0828402" width="2.01183432" height="11.0650888" rx="1.00591716"></rect>
                    <g id="Group-6" transform="translate(0.899375, 12.328298)" fill="#A7A7A7">
                        <rect id="Rectangle-2-Copy-3" x="1.6765286" y="0" width="1" height="4.02366864" rx="0.5"></rect>
                        <rect id="Rectangle-2-Copy-4" transform="translate(2.011834, 2.176529) rotate(90.000000) translate(-2.011834, -2.176529) " x="1.51183432" y="0.16469428" width="1" height="4.02366864" rx="0.5"></rect>
                    </g>
                    <g id="Group-6-Copy" transform="translate(43.105531, 5.028783) rotate(-27.000000) translate(-43.105531, -5.028783) translate(39.605531, 1.528783)" fill="#A7A7A7">
                        <rect id="Rectangle-2-Copy-3" x="2.5147929" y="0" width="1.00591716" height="6.03550296" rx="0.50295858"></rect>
                        <rect id="Rectangle-2-Copy-4" transform="translate(3.017751, 3.017751) rotate(90.000000) translate(-3.017751, -3.017751) " x="2.5147929" y="0" width="1.00591716" height="6.03550296" rx="0.50295858"></rect>
                    </g>
                    <rect id="Rectangle-2-Copy" fill="#A7A7A7" transform="translate(13.968876, 25.879634) rotate(-30.000000) translate(-13.968876, -25.879634) " x="12.9629588" y="22.8618823" width="2.01183432" height="6.03550296" rx="1.00591716"></rect>
                    <rect id="Rectangle-2-Copy-2" fill="#A7A7A7" transform="translate(38.802641, 25.484035) rotate(43.000000) translate(-38.802641, -25.484035) " x="37.7967234" y="21.4603663" width="2.01183432" height="8.04733728" rx="1.00591716"></rect>
                    <circle id="Oval-5-Copy" stroke="#979797" stroke-width="2" cx="16.5976331" cy="3.52071006" r="2.5147929"></circle>
                    <circle id="Oval-5-Copy-2" stroke="#979797" cx="3.47999278" cy="31.035355" r="1.50887574"></circle>
                </g>
                <g id="Group-6" transform="translate(56.000000, 68.000000)">
                    <g id="search" transform="translate(0.010152, 0.275212)">
                        <path d="M39.5755826,33.104373 C39.1619587,32.687817 38.4767695,32.687817 38.0637363,33.104373 L36.1849298,34.9959027 L33.6924065,32.4857108 C36.7519829,29.0472283 38.6186805,24.5025898 38.6186805,19.5293493 C38.6186805,8.81013548 29.9591591,0.0892301158 19.3153947,0.0892301158 C8.67103969,0.0892301158 0,8.81013548 0,19.5293493 C0,30.249158 8.65952142,38.9699146 19.3032858,38.9699146 C24.2415211,38.9699146 28.7426529,37.0901335 32.1684512,34.008274 L34.6609745,36.5190608 L32.7827587,38.4105905 C32.5820751,38.6126967 32.4637914,38.8863358 32.4637914,39.1721696 C32.4637914,39.4574085 32.5820751,39.7310475 32.7827587,39.9337486 L49.5462667,56.8159378 C50.2078287,57.482338 51.0823309,57.850561 52.0150152,57.850561 C52.9484378,57.850561 53.8227924,57.482338 54.484502,56.8159378 L56.3390906,54.9477566 C57.0006526,54.2813564 57.3668744,53.40125 57.3668744,52.4613594 C57.3668744,51.5214689 57.0006526,50.6413625 56.3390906,49.9749622 L39.5755826,33.104373 Z" id="Path" fill="#A7A7A7"></path>
                        <path d="M2.14992876,19.5293493 C2.14992876,9.99987036 9.85240036,2.24265024 19.3153947,2.24265024 C28.7777984,2.24265024 36.48027,9.99987036 36.48027,19.5293493 C36.48027,29.0594231 28.7777984,36.8164945 19.3153947,36.8164945 C9.85240036,36.8164945 2.14992876,29.0594231 2.14992876,19.5293493 Z" id="Path" fill="#FFFFFF"></path>
                        <path d="M19.3032858,8.06075123 C13.0185946,8.06075123 7.90330292,13.2117084 7.90330292,19.5415441 C7.90330292,20.1364115 8.38780846,20.6237567 8.9784888,20.6237567 C9.56916914,20.6237567 10.053084,20.1364115 10.053084,19.5415441 C10.053084,14.4014433 14.1999553,10.2257713 19.3032858,10.2257713 C19.8939661,10.2257713 20.3784716,9.73783126 20.3784716,9.14296382 C20.3784716,8.53649646 19.8939661,8.06075123 19.3032858,8.06075123 Z" id="Fill-2" fill="#E3E3E3"></path>
                        <path d="M54.8270966,53.4367933 L52.972065,55.3049745 C52.712461,55.5664187 52.3813847,55.7093356 52.0150152,55.7093356 C51.6493841,55.7093356 51.3183077,55.5664187 51.0587037,55.3049745 L35.0508236,39.1837695 L38.8193641,35.3885152 L54.8270966,51.509869 C55.0867006,51.7713132 55.2286116,52.1047364 55.2286116,52.4729593 C55.2286116,52.8419259 55.0751824,53.186949 54.8270966,53.4367933 Z" id="Path" fill="#CECECE"></path>
                    </g>
                </g>
            </g>
        </g>
    </g>
</svg>