<?xml version="1.0" encoding="UTF-8"?>
<svg width="16px" height="14px" viewBox="0 0 16 14" version="1.1" xmlns="http://www.w3.org/2000/svg" xmlns:xlink="http://www.w3.org/1999/xlink">
    <!-- Generator: Sketch 49.1 (51147) - http://www.bohemiancoding.com/sketch -->
    <title>return-refund</title>
    <desc>Created with Sketch.</desc>
    <defs></defs>
    <g id="MS-5-(Profile,-Checkout,-Payment)" stroke="none" stroke-width="1" fill="none" fill-rule="evenodd">
        <g id="04_01_Profile_login-user" transform="translate(-18.000000, -465.000000)">
            <g id="mm_ico_return" transform="translate(16.000000, 462.000000)">
                <g id="return-refund" transform="translate(1.500000, 3.000000)">
                    <g>
                        <polyline id="Line" stroke="#191919" stroke-linecap="square" transform="translate(2.500000, 9.000000) rotate(90.000000) translate(-2.500000, -9.000000) " points="3.5 7 1.5 8.95918367 3.5 11"></polyline>
                        <path d="M2.5,2 L2.5,12 C2.5,12.8284271 3.17157288,13.5 4,13.5 L14,13.5 C14.8284271,13.5 15.5,12.8284271 15.5,12 L15.5,2 C15.5,1.17157288 14.8284271,0.5 14,0.5 L4,0.5 C3.17157288,0.5 2.5,1.17157288 2.5,2 Z" id="Rectangle-3" stroke="#191919"></path>
                        <rect id="Rectangle" stroke="#191919" x="6.5" y="0.5" width="5" height="5"></rect>
                        <rect id="Rectangle-6" fill="#191919" x="9" y="11" width="2" height="1"></rect>
                        <rect id="Rectangle-6" fill="#191919" x="12" y="11" width="2" height="1"></rect>
                    </g>
                </g>
            </g>
        </g>
    </g>
</svg>