<?xml version="1.0" encoding="UTF-8"?>
<svg width="14px" height="14px" viewBox="0 0 14 14" version="1.1" xmlns="http://www.w3.org/2000/svg" xmlns:xlink="http://www.w3.org/1999/xlink">
    <!-- Generator: Sketch 49 (51002) - http://www.bohemiancoding.com/sketch -->
    <title>mm_ico_edit</title>
    <desc>Created with Sketch.</desc>
    <defs></defs>
    <g id="mm_ico_edit" stroke="none" stroke-width="1" fill="none" fill-rule="evenodd">
        <path d="M11.9090909,7.05785124 L11.9090909,12.286832 C11.9090909,12.4939945 11.8412121,12.6641322 11.7072176,12.7981267 C11.5723416,12.9330028 11.4022039,13 11.1959229,13 L1.71316804,13 C1.50512397,13 1.33498623,12.9330028 1.20187328,12.7981267 C1.0661157,12.6641322 1,12.4939945 1,12.286832 L1,2.80407713 C1,2.59779614 1.0661157,2.42677686 1.20187328,2.29278237 C1.33498623,2.15790634 1.50512397,2.09090909 1.71316804,2.09090909 L6.94214876,2.09090909" id="Stroke-1" stroke="#005BB6"></path>
        <path d="M12.1623232,1.21633736 L12.7833803,1.83446449 C13.074365,2.12448213 13.0717592,2.59630186 12.7781686,2.88372232 L6.22710258,9.30047066 L4.27272727,9.72727273 L4.70008401,7.7793931 L11.1078292,1.22326315 C11.3962081,0.928051175 11.8704698,0.925454003 12.1623232,1.21633736 Z" id="Stroke-3" stroke="#005BB6"></path>
    </g>
</svg>