<?xml version="1.0" encoding="UTF-8"?>
<svg width="16px" height="16px" viewBox="0 0 16 16" version="1.1" xmlns="http://www.w3.org/2000/svg" xmlns:xlink="http://www.w3.org/1999/xlink">
    <!-- Generator: Sketch 48.2 (47327) - http://www.bohemiancoding.com/sketch -->
    <title>mm_ico_ovo_verified</title>
    <desc>Created with Sketch.</desc>
    <defs></defs>
    <g id="Assets" stroke="none" stroke-width="1" fill="none" fill-rule="evenodd">
        <g id="mm_ico_ovo_verified" fill="#4E2688">
            <path d="M8,1 C9.93750969,1 11.5885348,1.68228484 12.953125,3.046875 C14.3177152,4.41146516 15,6.06249031 15,8 C15,9.93750969 14.3177152,11.5885348 12.953125,12.953125 C11.5885348,14.3177152 9.93750969,15 8,15 C6.06249031,15 4.41146516,14.3177152 3.046875,12.953125 C1.68228484,11.5885348 1,9.93750969 1,8 C1,6.06249031 1.68228484,4.41146516 3.046875,3.046875 C4.41146516,1.68228484 6.06249031,1 8,1 Z M11.59375,5.65625 C11.6145834,5.63541656 11.625,5.60416687 11.625,5.5625 C11.625,5.49999969 11.6145834,5.45833344 11.59375,5.4375 L10.625,4.6875 C10.6041666,4.66666656 10.5625003,4.65625 10.5,4.65625 C10.4583331,4.65625 10.4270834,4.66666656 10.40625,4.6875 L6.9375,9.15625 C6.02082875,8.28124563 5.55208344,7.83333344 5.53125,7.8125 C5.46874969,7.74999969 5.40625031,7.71875 5.34375,7.71875 C5.32291656,7.71875 5.28125031,7.74999969 5.21875,7.8125 L4.40625,8.625 C4.38541656,8.64583344 4.375,8.68749969 4.375,8.75 C4.375,8.79166687 4.38541656,8.82291656 4.40625,8.84375 L4.46875,8.875 C6.09375812,10.4375078 6.91666656,11.2291666 6.9375,11.25 C7.00000031,11.3125003 7.05208312,11.34375 7.09375,11.34375 C7.13541688,11.34375 7.18749969,11.3125003 7.25,11.25 L11.59375,5.65625 Z" id="-copy"></path>
        </g>
    </g>
</svg>