
<svg width="22px" height="22px" viewBox="0 0 22 22" version="1.1" xmlns="http://www.w3.org/2000/svg" xmlns:xlink="http://www.w3.org/1999/xlink">
	<!-- Generator: Sketch 48.2 (47327) - http://www.bohemiancoding.com/sketch -->
	<desc>Created with Sketch.</desc>
	<defs></defs>
	<g id="Symbols" stroke="none" stroke-width="1" fill="none" fill-rule="evenodd">
		<g id="home-navbar" transform="translate(-21.000000, -9.000000)" fill="#231F20">
			<path d="M31.9998974,9 C25.9345018,9 21,13.9346044 21,19.9996922 C21,26.0651904 25.9345018,30.9997948 31.9998974,30.9997948 C34.4009178,30.9997948 36.6818924,30.240325 38.5962652,28.8033654 C39.8185787,27.8857838 40.8387635,26.7115914 41.5871522,25.3869824 C41.5345167,25.3901631 41.4813682,25.3932412 41.4282196,25.3932412 C40.0308649,25.3932412 38.8941227,24.2563964 38.8941227,22.8593495 C38.8941227,22.6995961 38.909308,22.5392271 38.9389603,22.3826544 C38.9433723,22.3584401 38.9493233,22.3348413 38.9565055,22.3115503 L39.8432035,18.6349653 C39.9135893,18.3425459 39.8744975,18.0822412 39.7324945,17.9019672 C39.599418,17.7333899 39.3864135,17.6439198 39.1161563,17.6439198 C38.4120923,17.6439198 37.6712963,18.2464066 37.4994357,18.9589867 L36.4743258,23.2090216 C36.3978864,23.5258607 36.1147012,23.7385574 35.8026845,23.7385574 C35.7488177,23.7385574 35.694438,23.7324012 35.6399556,23.719268 C35.2685316,23.6296953 35.0403418,23.2562192 35.1298119,22.8848977 L36.1550243,18.6347601 C36.2256154,18.3425459 36.1864209,18.0822412 36.0442127,17.9019672 C35.911444,17.7333899 35.6983369,17.6439198 35.4282849,17.6439198 C34.7234001,17.6439198 33.9831171,18.2464066 33.8111539,18.9589867 L32.7863519,23.2090216 C32.7772202,23.245138 32.7652156,23.2789971 32.751672,23.312138 C32.7495173,23.3176786 32.7473626,23.3236295 32.7444897,23.3289649 C32.7310487,23.3601563 32.71494,23.3891931 32.6971896,23.417409 C32.6932907,23.4232574 32.6898022,23.428798 32.6858006,23.4342359 C32.6670242,23.4625544 32.6466062,23.4889235 32.6240334,23.5133431 C32.6218788,23.5163186 32.6189033,23.5187811 32.6164408,23.5213462 C32.5939707,23.5447397 32.5704745,23.5666968 32.5450289,23.5864993 C32.541643,23.5890644 32.5385649,23.5921425 32.5352816,23.5947075 C32.5087073,23.6149204 32.4807992,23.6331838 32.4515572,23.6492925 C32.4466323,23.652268 32.4411943,23.6552435 32.4360641,23.6581164 C32.4062066,23.6737121 32.3759386,23.6873583 32.344029,23.6985421 C32.3404378,23.6999785 32.3366415,23.7010046 32.3327426,23.7022358 C32.2659478,23.7246033 32.1953567,23.7369157 32.1229188,23.7378392 C32.1201485,23.7378392 32.117173,23.7385574 32.1144027,23.7385574 C32.1118376,23.7385574 32.1091699,23.7382496 32.1061944,23.7382496 C32.086905,23.7378392 32.067513,23.7366079 32.0480184,23.7345559 C32.0418622,23.7342481 32.0353981,23.7338376 32.0288315,23.7331194 C32.0031807,23.7298361 31.9776325,23.7253216 31.9517764,23.719268 C31.5803524,23.6296953 31.3521626,23.2562192 31.4419405,22.8848977 L32.4669477,18.6347601 C32.5375388,18.3425459 32.4980365,18.082549 32.3561361,17.902275 C32.2227518,17.7333899 32.0098499,17.6439198 31.739798,17.6439198 C31.0352209,17.6439198 30.2950405,18.2464066 30.1228721,18.9589867 L29.0977623,23.2090216 C29.0891436,23.245138 29.0769338,23.2789971 29.0632876,23.3122406 C29.0612355,23.3176786 29.0587731,23.3235269 29.0565158,23.3289649 C29.0428695,23.3601563 29.026453,23.3897061 29.0088052,23.4177168 C29.0051115,23.42336 29.0017256,23.4286954 28.9978267,23.4341333 C28.9789477,23.4622466 28.9585296,23.4890261 28.9356491,23.5139587 C28.9334944,23.516216 28.9311345,23.5180628 28.929185,23.5205253 C28.9062019,23.5447397 28.8818849,23.5670046 28.8561315,23.5876279 C28.853156,23.5895774 28.8504883,23.5924503 28.8474102,23.5945023 C28.8208359,23.6149204 28.7923122,23.633389 28.7629677,23.6499081 C28.7581453,23.6526784 28.7535282,23.6552435 28.7486032,23.657706 C28.7187456,23.6737121 28.6877594,23.6875635 28.6556446,23.6988499 C28.6520535,23.7000811 28.6488728,23.7010046 28.6453842,23.7021332 C28.5782817,23.7246033 28.5073828,23.7369157 28.4344318,23.7378392 C28.4316615,23.7378392 28.4289938,23.7385574 28.4262235,23.7385574 C28.4234533,23.7385574 28.4209908,23.7382496 28.4181179,23.7382496 C28.3988285,23.7378392 28.3794364,23.7366079 28.3599418,23.7345559 C28.3537856,23.7342481 28.3471164,23.7338376 28.340755,23.7331194 C28.3151041,23.7298361 28.2893507,23.7253216 28.2633921,23.719268 C27.8923784,23.6296953 27.6637782,23.2562192 27.7535561,22.8848977 L28.7785634,18.6347601 C28.8491545,18.3425459 28.8098574,18.082549 28.6680596,17.902275 C28.5349831,17.7333899 28.321876,17.6439198 28.0514136,17.6439198 C27.3474522,17.6439198 26.6071692,18.2458935 26.4347956,18.9585762 L26.4347956,18.958884 L26.4347956,18.9592945 L25.4094805,23.2090216 C25.3201131,23.5803431 24.9466369,23.8091485 24.5754181,23.719268 C24.2041993,23.6296953 23.9757017,23.2562192 24.0654796,22.8848977 L25.0903842,18.6352732 L25.0903842,18.6349653 L25.2097119,18.1404173 C25.2468543,17.9836394 25.2304377,17.8494343 25.1621039,17.7631449 C25.0849462,17.6646457 24.9527931,17.6439198 24.85532,17.6439198 C24.4253094,17.6439198 23.955181,18.0286823 23.8492944,18.4670037 C23.7728549,18.7836376 23.4898749,18.9963343 23.1775504,18.9963343 C23.1239915,18.9963343 23.0694065,18.9899729 23.0149241,18.9770448 C22.6435001,18.8871643 22.4153103,18.5136882 22.5051908,18.1426746 C22.7594418,17.0876046 23.7918365,16.2614426 24.85532,16.2614426 C25.416355,16.2614426 25.9236258,16.4963016 26.2469289,16.9059967 C26.7695902,16.5054333 27.4055257,16.2614426 28.0514136,16.2614426 C28.7406001,16.2614426 29.3611451,16.5472955 29.7544236,17.0468711 C29.7554496,17.0485127 29.7568861,17.050257 29.7582199,17.0521038 C30.3101232,16.5652511 31.0184966,16.2614426 31.739798,16.2614426 C32.4288819,16.2614426 33.0494268,16.5472955 33.442295,17.0466659 C33.4439366,17.0485127 33.4451678,17.050257 33.4466043,17.0521038 C33.9985076,16.5652511 34.706881,16.2614426 35.4282849,16.2614426 C36.1171637,16.2614426 36.7379138,16.5472955 37.1302689,17.0466659 C37.1322184,17.0483075 37.1334496,17.0500518 37.1349887,17.0520012 C37.6866868,16.5652511 38.3953679,16.2614426 39.1161563,16.2614426 C39.8054454,16.2614426 40.4257851,16.5472955 40.8190637,17.0466659 C41.223013,17.5594773 41.3571155,18.2564617 41.187307,18.9589867 L40.2947607,22.6620433 C40.2834743,22.7268886 40.2769077,22.7931703 40.2769077,22.8593495 C40.2769077,23.4941563 40.7935155,24.0103536 41.4282196,24.0103536 C41.9245119,24.0103536 42.3611917,23.6960796 42.5192008,23.2269772 C42.838092,22.1856561 43,21.0998051 43,19.9996922 C43,13.9346044 38.065293,9 31.9998974,9" id="Fill-42"></path>
		</g>
	</g>
</svg>
