<?xml version="1.0" encoding="UTF-8"?>
<svg width="40px" height="40px" viewBox="0 0 40 40" version="1.1" xmlns="http://www.w3.org/2000/svg" xmlns:xlink="http://www.w3.org/1999/xlink">
    <!-- Generator: Sketch 48.2 (47327) - http://www.bohemiancoding.com/sketch -->
    <title>mm_ico_home_active</title>
    <desc>Created with Sketch.</desc>
    <defs></defs>
    <g id="Assets" stroke="none" stroke-width="1" fill="none" fill-rule="evenodd">
        <g id="mm_ico_home_active" fill="#191919">
            <g id="Group-2" transform="translate(9.000000, 10.000000)">
                <path d="M16.5372953,0.850150519 C16.4494962,0.850150519 16.3687776,0.902165786 16.324406,0.985910365 L9.1862391,14.609749 L2.20809332,0.987990975 C2.16466577,0.903206091 2.08253106,0.850150519 1.99378782,0.850150519 L0.421899467,0.850150519 L0.421899467,19.5106274 L1.68082626,19.5106274 L1.68082626,2.78043706 L8.62451323,16.3309341 C8.6669967,16.4141586 8.74724326,16.4656537 8.83409835,16.4656537 L9.53177131,16.4656537 C9.61768233,16.4656537 9.69698481,16.4151989 9.73994031,16.3330147 L16.8252388,2.80384393 L16.8252388,19.5106274 L18.0841656,19.5106274 L18.0841656,0.850150519 L16.5372953,0.850150519 Z" id="Fill-27-Copy"></path>
                <path d="M21.5460963,19.3160903 L21.5446802,0.850670672 L20.2234443,0.850150519 C20.134229,0.850150519 20.0525664,0.902685938 20.0091388,0.987990975 L18.8314027,3.2953882 L18.8314027,5.45298145 L20.586442,2.01009096 L20.586442,19.3160903 L21.5460963,19.3160903 Z" id="Fill-29-Copy"></path>
                <polygon id="Fill-31-Copy" points="4.19820781 10.2128985 4.19820781 19.5985332 5.15786217 19.5985332 5.15786217 12.044356"></polygon>
                <path d="M13.128705,15.3348418 L12.3106622,13.7083244 L11.7508245,14.776718 L12.577836,16.4214407 C12.6160712,16.4963427 12.687349,16.5426363 12.7652353,16.5426363 L13.4950069,16.5426363 C13.5724212,16.5426363 13.6441711,16.4963427 13.6819342,16.4219608 L16.0053079,11.8539801 L16.0053079,9.69274582 L13.128705,15.3348418 Z" id="Fill-33-Copy"></path>
                <path d="M10.2369969,9.92837498 L5.74035773,0.989551433 C5.69693019,0.903726244 5.61479548,0.850150519 5.52510816,0.850150519 L4.19820781,0.850150519 L4.19820781,3.0327111 L5.15786217,4.86416863 L5.15786217,2.01269173 L9.67715919,10.9967686 L10.2369969,9.92837498 Z" id="Fill-35-Copy"></path>
            </g>
        </g>
    </g>
</svg>