<?xml version="1.0" encoding="UTF-8"?>
<svg width="10px" height="10px" viewBox="0 0 10 10" version="1.1" xmlns="http://www.w3.org/2000/svg" xmlns:xlink="http://www.w3.org/1999/xlink">
    <!-- Generator: Sketch 50.2 (55047) - http://www.bohemiancoding.com/sketch -->
    <title>Group 12</title>
    <desc>Created with Sketch.</desc>
    <defs></defs>
    <g id="Symbols" stroke="none" stroke-width="1" fill="none" fill-rule="evenodd">
        <g id="Header/USP" transform="translate(-130.000000, -10.000000)" fill="#EC1B2E">
            <g id="Group-12" transform="translate(130.000000, 10.000000)">
                <path d="M5.03083043,2.5 L9.59796121,2.52718989 C9.86051716,2.5154321 9.99701641,2.73956496 9.99477872,2.96075838 L10,3.9686214 L9.70238687,3.97009112 L5.15278468,3.97009112 L5.15278468,3.97890947 C5.11287916,3.97450029 5.0718548,3.97192828 5.03083043,3.97192828 C4.45089508,3.97192828 3.98060666,4.43525867 3.98060666,5.00624633 C3.98060666,5.57796884 4.45089508,6.04129924 5.03083043,6.04129924 C5.45077076,6.04129924 5.81364993,5.7984274 5.98147688,5.44716343 C6.08329189,5.17379483 6.35479861,4.99338624 6.4793635,5.00073486 C6.84000497,5.00293945 7.2002735,5.00073486 7.56091497,4.99963257 C7.57471407,4.99963257 7.5504724,5.2436067 7.54786176,5.268592 C7.41546494,6.52226631 6.33876181,7.5 5.03083043,7.5 C3.63339135,7.5 2.5,6.38337743 2.5,5.00624633 C2.5,3.62948266 3.63339135,2.5 5.03083043,2.5" id="Fill-1"></path>
                <path d="M4.8609794,1.51159705 C3.00458977,1.58378381 1.52182984,3.11490295 1.52182984,4.99175868 C1.52182984,6.91572576 3.07893639,8.47533967 4.99943102,8.47533967 C6.77919812,8.47533967 8.24640595,7.13646527 8.45237644,5.41006194 C8.47361833,5.24973135 8.66593332,4.98112063 8.86052422,4.98529986 L10,4.98605972 L9.99886204,5.0434292 C9.99582749,5.15360899 9.99279293,5.26340885 9.98520654,5.37168898 C9.79137427,7.96015417 7.63342563,10 4.99943102,10 C2.23836437,10 0,7.75765132 0,4.99175868 C0,2.37783815 2.00015173,0.231231912 4.55145469,0.00403358769 C4.77563252,-0.026360837 5.00853469,0.114593307 5.01043129,0.441333373 L5.00853469,1.51273684 L4.8609794,1.51159705 Z" id="Fill-3"></path>
            </g>
        </g>
    </g>
</svg>