<?xml version="1.0" encoding="UTF-8"?>
<svg width="22px" height="22px" viewBox="0 0 22 22" version="1.1" xmlns="http://www.w3.org/2000/svg" xmlns:xlink="http://www.w3.org/1999/xlink">
    <!-- Generator: Sketch 49.1 (51147) - http://www.bohemiancoding.com/sketch -->
    <title>Fill 1</title>
    <desc>Created with Sketch.</desc>
    <defs></defs>
    <g id="Symbols" stroke="none" stroke-width="1" fill="none" fill-rule="evenodd">
        <g id="account-navbar" transform="translate(-21.000000, -9.000000)" fill="#191919">
            <g id="Page-1" transform="translate(21.000000, 9.000000)">
                <path d="M21.9085402,9.7332661 C21.9094803,8.62487627 21.7725915,7.64494407 21.4266085,6.5813 C20.9409162,5.08679153 20.1378222,3.77499492 18.9970188,2.70389322 C18.1448479,1.90387627 17.0880957,1.2463 15.8325915,0.764723729 C14.5246256,0.262825424 12.8828991,-0.113225424 10.6971897,0.031079661 C8.04064274,0.206333898 5.63493333,1.17731695 3.53271111,3.13028305 C1.56060855,4.96224915 0.175736752,7.5373678 0.0130871795,10.6807576 C-0.283066667,16.4029949 4.45276239,22.9681305 12.7089675,21.7991475 C15.6964547,21.3763 17.3210701,20.1704017 18.2247624,19.3737407 C19.0272923,18.6661983 18.8672752,17.7192661 17.5008308,18.6428932 C16.7968308,19.1186898 14.4467795,20.8783169 10.781053,20.7075373 C8.53667692,20.6027576 6.48277949,19.9504017 4.84443761,18.5425881 C3.06431795,17.0128424 1.7770359,14.8603847 1.96300171,11.1653169 C2.04423248,9.54757119 2.62525812,7.66545254 3.7493265,6.04211356 C5.27146325,3.84360508 7.78322393,2.08994407 11.3564376,1.98124915 C14.5125915,1.8852322 16.6298564,2.86646949 18.0124718,4.15589322 C19.1004376,5.17068983 19.7333607,6.37602881 20.059412,7.39735085 C20.2940786,8.13192712 20.4027624,8.90621525 20.4258906,9.67509661 C20.4478906,10.4096729 20.3943009,11.155622 20.2207453,11.8715542 C20.0938222,12.3958254 19.9244034,13.0051136 19.5052752,13.3819102 C19.3176171,13.5508254 19.0428991,13.6485203 18.8052239,13.5612661 C18.5521299,13.4682322 18.4127966,13.2025542 18.3185915,12.9517915 C17.5875145,11.0062831 18.1965573,8.72201186 17.1768479,6.86841864 C17.0164547,6.57701186 16.7821641,6.28691017 16.4527282,6.22818136 C16.0311556,6.15304576 15.6500103,6.48248644 15.3880786,6.81845254 C14.3307624,8.17406271 14.0436342,9.94655424 13.5094291,11.5762322 C13.5015316,11.6006559 13.4928821,11.625639 13.4752068,11.6442831 C13.3939761,11.7291136 13.2681812,11.5969271 13.2309504,11.4859949 C12.9297197,10.5901475 12.8554462,9.64284237 12.7708308,8.70821525 C12.6882838,7.79372373 12.6521812,6.79384237 12.1606598,5.98748644 C11.9748821,5.68246949 11.6937709,5.39591017 11.3361299,5.36141864 C10.8205402,5.31145254 10.4187111,5.78743559 10.1686256,6.23731695 C9.57744615,7.30114746 9.26380513,8.48392712 9.01296752,9.66502881 C8.82681368,10.5413 8.64799316,11.419622 8.43438632,12.2899271 C8.26214701,12.992622 8.16098462,13.8424186 7.59180513,14.3610966 C7.31558291,14.6126051 6.8738906,14.7274525 6.5598735,14.5236729 C6.32877949,14.3737746 6.2210359,14.0950458 6.15992479,13.8278763 C6.09881368,13.5610797 6.06741197,13.2804864 5.93165128,13.0420288 C5.6781812,12.5969949 5.07722393,12.4071983 4.5870188,12.5654864 C4.09681368,12.7237746 3.73729231,13.1811136 3.63180513,13.6813339 C3.52631795,14.1817407 3.65324103,14.7123508 3.91065983,15.1551475 C4.32433504,15.8666051 5.07741197,16.3755881 5.90288205,16.4723508 C6.80544615,16.5780627 7.61042051,16.0977915 8.16493333,15.4184017 C9.23390769,14.1079102 9.6310359,12.3303847 10.1376,10.7607407 C10.2570017,10.3910288 10.3709504,10.0192661 10.5091556,9.65589322 C10.6031726,9.4083 10.6909846,9.09209661 10.8521299,8.87843559 C10.9027111,8.81113051 10.9781128,8.75762203 11.0625402,8.75277458 C11.1584376,8.7473678 11.2470017,8.80497797 11.314694,8.87265593 C11.5471043,9.10552034 11.6016342,9.44465593 11.6834291,9.74855424 C11.7815829,10.1130458 11.8635658,10.4814525 11.9378393,10.8513508 C12.0888308,11.603639 12.2140615,12.3684186 12.496865,13.0862153 C12.5670017,13.2642661 12.6465402,13.4385881 12.7377368,13.6069441 C12.9062154,13.9186729 13.206694,14.2481136 13.5538051,14.1662661 C13.8320957,14.1004525 13.9781983,13.8017746 14.0643179,13.5312492 C14.5163521,12.1101983 14.3958222,10.465978 15.2882325,9.26716441 C15.4003009,9.11670678 15.538506,8.9692322 15.7218393,8.92467288 C15.9595145,8.86668983 16.2112923,9.00465593 16.3558906,9.20041864 C16.5006769,9.39618136 16.5604718,9.63985932 16.6119932,9.87719831 C16.7955145,10.7232661 16.919053,11.5825712 17.1490188,12.4185712 C17.3524718,13.1589271 17.6373436,14.1189102 18.3074974,14.5768085 C18.5716855,14.7576559 18.8907795,14.8490119 19.2117538,14.821978 C19.6425402,14.7858085 20.0298906,14.5542492 20.3397709,14.2667576 C20.7453607,13.8903339 21.0452752,13.4089441 21.2724205,12.9102153 C21.5589846,12.2813508 21.7351726,11.6053169 21.8284376,10.9227576 C21.8824034,10.528622 21.9081641,10.1309441 21.9085402,9.7332661" id="Fill-1"></path>
            </g>
        </g>
    </g>
</svg>