<?xml version="1.0" encoding="UTF-8"?>
<svg width="18px" height="18px" viewBox="0 0 18 18" version="1.1" xmlns="http://www.w3.org/2000/svg" xmlns:xlink="http://www.w3.org/1999/xlink">
    <!-- Generator: Sketch 48.2 (47327) - http://www.bohemiancoding.com/sketch -->
    <title>mm_ico_review_reply</title>
    <desc>Created with Sketch.</desc>
    <defs>
        <circle id="path-1" cx="7" cy="7" r="7"></circle>
        <filter x="-23.2%" y="-23.2%" width="146.4%" height="146.4%" filterUnits="objectBoundingBox" id="filter-2">
            <feMorphology radius="0.25" operator="dilate" in="SourceAlpha" result="shadowSpreadOuter1"></feMorphology>
            <feOffset dx="0" dy="0" in="shadowSpreadOuter1" result="shadowOffsetOuter1"></feOffset>
            <feGaussianBlur stdDeviation="1" in="shadowOffsetOuter1" result="shadowBlurOuter1"></feGaussianBlur>
            <feComposite in="shadowBlurOuter1" in2="SourceAlpha" operator="out" result="shadowBlurOuter1"></feComposite>
            <feColorMatrix values="0 0 0 0 0   0 0 0 0 0   0 0 0 0 0  0 0 0 0.2 0" type="matrix" in="shadowBlurOuter1"></feColorMatrix>
        </filter>
    </defs>
    <g id="Assets" stroke="none" stroke-width="1" fill="none" fill-rule="evenodd">
        <g id="mm_ico_review_reply">
            <g id="reply-icon" transform="translate(2.000000, 2.000000)">
                <g id="Mask">
                    <use fill="black" fill-opacity="1" filter="url(#filter-2)" xlink:href="#path-1"></use>
                    <use stroke="#191919" stroke-width="0.5" fill="#FFFFFF" fill-rule="evenodd" xlink:href="#path-1"></use>
                </g>
                <path d="M11,10 C10.4861085,9.11110667 9.8854201,8.53472354 9.19791667,8.27083333 C8.51041323,8.00694313 7.55556167,7.875 6.33333333,7.875 L6.33333333,9.79166667 L3,7 L6.33333333,4 L6.33333333,5.66666667 C7.05555917,5.66666667 7.7118026,5.81597073 8.30208333,6.11458333 C8.89236406,6.41319594 9.34722063,6.77430344 9.66666667,7.19791667 C9.98611271,7.6215299 10.2534711,8.04513677 10.46875,8.46875 C10.6840289,8.89236323 10.8263885,9.24999854 10.8958333,9.54166667 L11,10 Z" id="ion-reply---Ionicons" fill="#191919" transform="translate(7.000000, 7.000000) scale(-1, -1) translate(-7.000000, -7.000000) "></path>
            </g>
        </g>
    </g>
</svg>