<?xml version="1.0" encoding="UTF-8"?>
<svg width="13px" height="13px" viewBox="0 0 13 13" version="1.1" xmlns="http://www.w3.org/2000/svg" xmlns:xlink="http://www.w3.org/1999/xlink">
    <!-- Generator: Sketch 48.2 (47327) - http://www.bohemiancoding.com/sketch -->
    <title>mm_ico_badgegold</title>
    <desc>Created with Sketch.</desc>
    <defs></defs>
    <g id="Assets" stroke="none" stroke-width="1" fill="none" fill-rule="evenodd">
        <g id="mm_ico_badgegold">
            <g id="Group-12" transform="translate(1.000000, 1.000000)">
                <polygon id="Fill-5" fill="#E6BC30" points="4.91075676 0.696792105 4.17137838 0.156634211 3.77418919 0.969476316 2.92302703 0.617476316 2.73751351 1.49921316 1.82481081 1.35563421 1.86137838 2.25502895 0.940054054 2.32826579 1.19632432 3.19321316 0.319594595 3.47892368 0.781 4.25905526 0 4.74073947 0.640081081 5.39060789 0 6.04018684 0.781 6.52216053 0.319594595 7.30200263 1.19632432 7.58800263 0.940054054 8.45266053 1.86137838 8.52589737 1.82481081 9.42558158 2.73751351 9.28200263 2.92302703 10.1637395 3.77418919 9.81145 4.17137838 10.6245816 4.91075676 10.0844237 5.49613514 10.7811868 5.49613514 2.89473684e-05"></polygon>
                <polygon id="Fill-7" fill="#D3A62F" points="10.3521 5.39057895 10.9921811 4.74071053 10.2108838 4.25902632 10.6725865 3.47889474 9.79615405 3.19318421 10.0524243 2.32823684 9.1311 2.255 9.16766757 1.35560526 8.25466757 1.49918421 8.06885676 0.617447368 7.21828919 0.969736842 6.8211 0.156605263 6.08142432 0.696763158 5.49604595 0 5.49604595 10.7811579 6.08142432 10.0843947 6.8211 10.6245526 7.21828919 9.81142105 8.06885676 10.1637105 8.25466757 9.28197368 9.16766757 9.42555263 9.1311 8.52615789 10.0524243 8.45292105 9.79615405 7.58797368 10.6725865 7.30226316 10.2108838 6.52213158 10.9921811 6.04044737"></polygon>
            </g>
            <path d="M10,6.50001629 C10,4.5701233 8.42990928,3 6.50001629,3 C4.57009072,3 3,4.5701233 3,6.50001629 C3,8.42984412 4.57009072,9.99990225 6.50001629,9.99990225 C7.44860666,9.99990225 8.33662721,9.62667622 9.00041891,8.94897204 C9.07597641,8.87188319 9.07467313,8.74813701 8.9975517,8.67261209 C8.92046285,8.59702201 8.79671667,8.59835787 8.72119175,8.6754793 C8.13149137,9.27746308 7.3426828,9.6090494 6.50001629,9.6090494 C4.7856202,9.6090494 3.39088544,8.21431464 3.39088544,6.50001629 C3.39088544,4.7856202 4.7856202,3.39088544 6.50001629,3.39088544 C8.2143798,3.39088544 9.60911456,4.7856202 9.60911456,6.50001629 C9.60911456,6.81084792 9.56340211,7.11757423 9.47328049,7.41178907 C9.42874099,7.54452786 9.30528805,7.63350912 9.16485992,7.63350912 C8.9854638,7.63350912 8.83949675,7.48757465 8.83949675,7.30817853 C8.83949675,7.2894765 8.84128876,7.27096996 8.84435146,7.25288699 L9.09679627,6.20573628 C9.14472429,6.00714941 9.10676634,5.81012646 8.99263183,5.66516945 C8.88156002,5.52408968 8.70620407,5.44318875 8.51146186,5.44318875 C8.30766187,5.44318875 8.10738074,5.52913988 7.95137845,5.66673338 C7.95098747,5.66621207 7.95062906,5.66569076 7.95023808,5.66516945 C7.83916627,5.52412227 7.66377774,5.44322133 7.46903553,5.44322133 C7.26517038,5.44322133 7.06488924,5.52917247 6.90885437,5.66676596 C6.90849597,5.66627724 6.90813757,5.66575592 6.90774659,5.66523461 C6.7966422,5.52412227 6.62122108,5.44322133 6.42647887,5.44322133 C6.2226463,5.44322133 6.02239775,5.52917247 5.86642804,5.66673338 C5.86603706,5.66624465 5.86567866,5.66572334 5.86532026,5.66520203 C5.75421587,5.52412227 5.57876217,5.44322133 5.38398738,5.44322133 C5.20139823,5.44322133 5.02170888,5.51222986 4.87404756,5.62541949 C4.78262266,5.50965589 4.63929474,5.44322133 4.4806859,5.44322133 C4.18008499,5.44322133 3.88824863,5.6768012 3.81627514,5.97499104 C3.79095898,6.07990486 3.85550379,6.1855029 3.96041761,6.21081906 C3.97582886,6.2145334 3.99124011,6.21632541 4.0064233,6.21632541 C4.09462258,6.21629283 4.17464381,6.15621175 4.19627821,6.0666766 C4.22615584,5.94280009 4.35905754,5.83413935 4.4806859,5.83413935 C4.50815246,5.83413935 4.54549136,5.83993893 4.56738642,5.86773132 C4.5867075,5.89226551 4.5913993,5.93038638 4.58064726,5.97499104 C4.57673743,5.99131459 4.57520608,6.00760555 4.57543415,6.02363586 C4.56442146,6.05325284 4.55448397,6.0832608 4.54705529,6.11405073 L4.25733675,7.31537914 C4.23205317,7.42032554 4.29659798,7.525891 4.4015118,7.55120716 C4.50636046,7.57652332 4.61202366,7.51197851 4.63733982,7.40703211 L4.92705836,6.20573628 C4.97563802,6.0042822 5.18491177,5.83410677 5.38398738,5.83410677 C5.46039201,5.83410677 5.520636,5.85932518 5.55820297,5.90705771 C5.59827874,5.95795069 5.60942176,6.0313252 5.58964453,6.11372491 L5.58954679,6.11405073 L5.35606466,7.08189701 L5.29976308,7.31534656 C5.29660264,7.32847707 5.29481063,7.34164017 5.29438706,7.35460778 C5.29435448,7.35565041 5.29445223,7.35666045 5.29441965,7.35770307 C5.2943219,7.36314425 5.2943219,7.36858543 5.29464772,7.37396145 C5.29471288,7.37451534 5.29481063,7.37510182 5.29487579,7.37568829 C5.29529936,7.38148788 5.29591841,7.38725488 5.29683071,7.39292414 C5.29709136,7.39445549 5.29751493,7.39588909 5.29780817,7.39738786 C5.31165549,7.47059946 5.36678412,7.53260288 5.44390555,7.55120716 C5.4593168,7.5549215 5.47472806,7.55671351 5.48991124,7.55671351 C5.50092393,7.55671351 5.51183888,7.55576863 5.52249317,7.55394404 C5.59720354,7.54123709 5.66083605,7.48539166 5.67973357,7.40706469 L5.96954986,6.2057037 C5.96958244,6.20560595 5.96958244,6.20550821 5.96961502,6.20541046 C6.01835759,6.00411929 6.22750101,5.83410677 6.42647887,5.83410677 C6.50285092,5.83410677 6.56306233,5.85932518 6.6006293,5.90705771 C6.64067249,5.95791811 6.65184809,6.0313252 6.6320057,6.11372491 C6.6320057,6.11382265 6.63194053,6.11395298 6.63190795,6.11405073 L6.34222199,7.31537914 C6.31693842,7.42032554 6.38148322,7.525891 6.48642963,7.55120716 C6.49359765,7.552934 6.50076568,7.55417212 6.5079337,7.55505183 C6.51031218,7.55537765 6.51269066,7.55547539 6.51510173,7.55567089 C6.51985869,7.55612703 6.52461565,7.55645285 6.52937261,7.55651802 C6.53038265,7.5565506 6.53139269,7.55671351 6.53240273,7.55671351 C6.53347794,7.55671351 6.53452056,7.55645285 6.53562834,7.55642027 C6.54537034,7.55625736 6.55507976,7.55557314 6.56452852,7.55397662 C6.56518015,7.55387888 6.56579921,7.55368339 6.56641827,7.55358564 C6.57557379,7.55195655 6.58450124,7.54957806 6.5932332,7.54667827 C6.59476455,7.54618954 6.59626332,7.54576598 6.59776209,7.54524467 C6.60642888,7.54214938 6.61480244,7.53836988 6.62291534,7.53410165 C6.62467476,7.53318935 6.6264016,7.53224448 6.62812845,7.53126702 C6.63611102,7.52673813 6.64386552,7.52178568 6.65119646,7.51618158 C6.65230424,7.51530187 6.65334686,7.514357 6.65445465,7.5134447 C6.6613946,7.50790577 6.66797615,7.5019107 6.67413414,7.49539431 C6.67488352,7.49457976 6.67573065,7.49383038 6.67651262,7.49301583 C6.68283351,7.48607588 6.68856793,7.47858203 6.69387879,7.47069721 C6.69495399,7.46913327 6.69606178,7.46756934 6.69707182,7.46594024 C6.70212201,7.45799025 6.7066509,7.44964928 6.71056074,7.44091732 C6.71124496,7.43935339 6.71186401,7.43775687 6.71251565,7.43616036 C6.7163929,7.42680934 6.71978142,7.41716509 6.72222507,7.40703211 L7.01194361,6.20573628 C7.01197619,6.20560595 7.01197619,6.20550821 7.01200877,6.20541046 C7.0608165,6.00411929 7.27002509,5.83410677 7.46903553,5.83410677 C7.54537499,5.83410677 7.6055864,5.8592926 7.64312079,5.90699255 C7.68319657,5.95785294 7.69430701,6.03129262 7.67449719,6.11375749 C7.67446461,6.11385523 7.67443203,6.11395298 7.67439945,6.11405073 L7.38464832,7.31537914 C7.35933216,7.42029296 7.42387697,7.525891 7.52879079,7.55120716 C7.5359914,7.552934 7.54319201,7.55417212 7.55032745,7.55505183 C7.55273851,7.55537765 7.55508441,7.55547539 7.55746289,7.55567089 C7.56225244,7.55612703 7.5670094,7.55645285 7.57179894,7.55651802 C7.5727764,7.5565506 7.57381902,7.55671351 7.57479648,7.55671351 C7.57590426,7.55671351 7.57694689,7.55645285 7.57802209,7.55642027 C7.58779667,7.55625736 7.5974735,7.55557314 7.60695485,7.55397662 C7.6075739,7.55387888 7.60816038,7.55368339 7.60877943,7.55358564 C7.61796754,7.55195655 7.62692757,7.54954548 7.63572469,7.54667827 C7.63719088,7.54618954 7.63865707,7.54576598 7.64012325,7.54524467 C7.64882263,7.54214938 7.65722877,7.53836988 7.66537425,7.53410165 C7.66710109,7.53318935 7.66879535,7.53224448 7.67045703,7.5312996 C7.67853735,7.52677071 7.68629185,7.52178568 7.69362279,7.516149 C7.69473057,7.51530187 7.69570803,7.51438958 7.69681581,7.51350987 C7.70375577,7.50793835 7.7103699,7.5019107 7.71652788,7.49539431 C7.71730985,7.49457976 7.71815698,7.49383038 7.71890636,7.49301583 C7.72522726,7.48610846 7.7309291,7.47861462 7.73623995,7.47079495 C7.73734774,7.46916586 7.73845552,7.46753676 7.73953073,7.46587508 C7.74451576,7.45799025 7.74901207,7.44974702 7.75288932,7.44108023 C7.7536387,7.43938597 7.75429034,7.43759396 7.75500714,7.43586712 C7.75872148,7.42687451 7.76201226,7.41758866 7.76439074,7.40784666 C7.76445591,7.40755342 7.76458623,7.40732535 7.7646514,7.40703211 L7.92938564,6.72401707 L8.05440252,6.20573628 C8.0544351,6.20563854 8.0544351,6.20554079 8.05446768,6.20544304 C8.10327542,6.00411929 8.312484,5.83407418 8.51146186,5.83407418 C8.58780132,5.83407418 8.64798015,5.85926002 8.68551454,5.90695997 C8.72565548,5.95791811 8.73676592,6.03145553 8.71682578,6.11408331 L8.46636846,7.15299079 C8.46434838,7.15960492 8.46258896,7.16638196 8.46128568,7.1733545 C8.45287954,7.21747043 8.44861131,7.26282448 8.44861131,7.30817853 C8.44861131,7.70310413 8.76993432,8.02436198 9.16485992,8.02436198 C9.47644094,8.02436198 9.75029207,7.82535154 9.84631103,7.52911661 C9.84676717,7.52765042 9.84706041,7.52615165 9.84751656,7.52465289 C9.94865088,7.19375079 10,6.84909911 10,6.50001629" id="Fill-25-Copy" stroke="#FFFFFF" stroke-width="0.100000001" fill="#FFFFFF"></path>
        </g>
    </g>
</svg>