<?xml version="1.0" encoding="UTF-8"?>
<svg width="220px" height="220px" viewBox="0 0 220 220" version="1.1" xmlns="http://www.w3.org/2000/svg" xmlns:xlink="http://www.w3.org/1999/xlink">
    <!-- Generator: Sketch 50.2 (55047) - http://www.bohemiancoding.com/sketch -->
    <title>IMG-Filter No Result</title>
    <desc>Created with Sketch.</desc>
    <defs></defs>
    <g id="Symbols" stroke="none" stroke-width="1" fill="none" fill-rule="evenodd">
        <g id="Graphic/Empty-Bag">
            <g id="IMG-Filter-No-Result">
                <rect id="Rectangle-2" fill="#FFFFFF" x="0" y="0" width="220" height="220"></rect>
                <g id="Group" transform="translate(4.000000, 12.000000)" fill="#F4F4F4">
                    <g id="Group-9">
                        <path d="M101.172781,197.925358 C53.4622859,208.364689 10.4338424,140.534596 13.230983,90.227396 C16.0281236,39.920196 58.0691929,1.34017074 107.13313,4.05746337 C195.698333,8.96124232 199.356488,57.6517244 175.633478,100.45851 C150.858444,145.163545 137.603197,189.954884 101.172781,197.925358" id="Fill-1" style="mix-blend-mode: multiply;"></path>
                        <path d="M210.166347,97.6320813 C224.315353,144.594405 153.522466,191.226599 98.9389727,191.226599 C44.35464,191.226599 0.105832079,151.472683 0.105832079,102.433637 C0.105832079,13.9125718 52.5542123,7.57012758 100.277721,28.8367339 C150.118711,51.0468097 199.362323,61.7731192 210.166347,97.6320813" id="Fill-3" style="mix-blend-mode: multiply;"></path>
                        <path d="M208.517071,79.0956712 C221.261839,126.057995 157.495598,172.690189 108.329649,172.690189 C59.1632808,172.690189 19.3060214,132.936273 19.3060214,83.8972269 C19.3060214,-4.62383832 66.5484372,-10.9662825 109.53574,10.3003238 C154.429364,32.5103996 198.785221,43.2367091 208.517071,79.0956712" id="Fill-6" style="mix-blend-mode: multiply;"></path>
                    </g>
                </g>
                <g id="Group" transform="translate(15.000000, 66.000000)">
                    <polygon id="Fill-1" fill="#B9A384" points="131.58505 29.3721624 143.87455 29.3721624 154.89255 117.485888 118.87205 117.485888"></polygon>
                    <polygon id="Fill-2" fill="#9E8C71" points="118.87215 117.486039 136.88265 99.1981992 154.89265 117.486039"></polygon>
                    <g id="Group-9" transform="translate(0.000000, 117.737194)" stroke="#242021" stroke-linecap="round" stroke-width="3.5">
                        <polyline id="Stroke-3" points="182.23105 0.25095443 184.03355 0.25095443 189.99055 0.25095443"></polyline>
                        <path d="M174.47225,0.25095443 L176.86625,0.25095443" id="Stroke-5"></path>
                        <path d="M0.2501,0.25095443 L169.3666,0.25095443" id="Stroke-7"></path>
                    </g>
                    <polygon id="Fill-10" fill="#CFB593" points="118.87215 117.486039 26.28565 117.486039 38.99865 29.3723131 131.58515 29.3723131"></polygon>
                    <path d="M47.8912,101.751477 L98.4252,101.751477" id="Stroke-11" stroke="#242021" stroke-width="4.4495" stroke-linecap="round" stroke-linejoin="round"></path>
                    <polyline id="Stroke-12" stroke="#242021" stroke-width="4.4495" stroke-linecap="round" stroke-linejoin="round" points="84.75885 56.4301515 94.23885 64.2013034 100.33235 69.1967928"></polyline>
                    <polyline id="Stroke-13" stroke="#242021" stroke-width="4.4495" stroke-linecap="round" stroke-linejoin="round" points="100.3326 56.4301515 90.8526 64.2013034 84.7591 69.1967928"></polyline>
                    <polyline id="Stroke-14" stroke="#242021" stroke-width="4.4495" stroke-linecap="round" stroke-linejoin="round" points="47.8912 56.4301515 57.3712 64.2013034 63.4642 69.1967928"></polyline>
                    <polyline id="Stroke-15" stroke="#242021" stroke-width="4.4495" stroke-linecap="round" stroke-linejoin="round" points="63.46445 56.4301515 53.98495 64.2013034 47.89145 69.1967928"></polyline>
                    <path d="M41.64365,0.272344304 L41.64365,9.42178734" id="Stroke-16" stroke="#242021" stroke-width="2.5425" stroke-linecap="round"></path>
                    <path d="M46.1993,4.84721646 L37.0883,4.84721646" id="Stroke-18" stroke="#242021" stroke-width="2.5425" stroke-linecap="round"></path>
                    <path d="M6.36825,9.42163671 L6.17475,17.5051008" id="Stroke-19" stroke="#242021" stroke-width="2.5425" stroke-linecap="round"></path>
                    <g id="Group-34" transform="translate(2.000000, 13.298376)">
                        <path d="M8.29595,0.262201688 L0.24695,0.0673831224" id="Stroke-20" stroke="#242021" stroke-width="2.5425" stroke-linecap="round"></path>
                        <path d="M25.85605,3.96676709 C25.85605,6.06658987 24.16055,7.76823966 22.07005,7.76823966 C19.97905,7.76823966 18.28405,6.06658987 18.28405,3.96676709 C18.28405,1.8669443 19.97905,0.164792405 22.07005,0.164792405 C24.16055,0.164792405 25.85605,1.8669443 25.85605,3.96676709 Z" id="Stroke-22" stroke="#242021" stroke-width="2.5425" stroke-linecap="round"></path>
                        <path d="M114.15585,52.5708861 C113.77935,52.5708861 113.41735,52.6130633 113.07035,52.684865 C112.32385,52.2068565 111.39485,51.9236667 110.37185,51.9236667 C107.85885,51.9236667 105.89035,53.61427 105.89035,55.7723376 C105.89035,57.9304051 107.85885,59.6210084 110.37185,59.6210084 C110.74835,59.6210084 111.10985,59.5788312 111.45735,59.5070295 C112.20385,59.985038 113.13285,60.2682278 114.15585,60.2682278 C116.66885,60.2682278 118.63785,58.5776245 118.63785,56.419557 C118.63785,54.2614895 116.66885,52.5708861 114.15585,52.5708861" id="Fill-24" fill="#B9A384"></path>
                        <path d="M104.8834,16.5945249 C104.8834,16.5945249 112.8769,20.7439595 112.7379,53.2987443" id="Stroke-26" stroke="#B9A384" stroke-width="3.814"></path>
                        <polygon id="Stroke-28" stroke="#242021" stroke-width="4.4495" stroke-linecap="round" stroke-linejoin="round" points="141.8746 16.0732848 129.5851 16.0732848 36.9986 16.0732848 24.2856 104.187513 116.8721 104.187513 152.8926 104.187513"></polygon>
                        <path d="M94.48105,15.5383371 C94.48105,15.5383371 109.31305,-7.0475616 113.55055,34.8695608 L115.28555,56.391489" id="Stroke-30" stroke="#242021" stroke-width="3.814" stroke-linecap="round"></path>
                        <path d="M117.33405,55.1240637 C116.95755,55.1240637 116.59555,55.1662409 116.24855,55.2380426 C115.50205,54.7600342 114.57305,54.4768443 113.55005,54.4768443 C111.03705,54.4768443 109.06855,56.1674477 109.06855,58.3255152 C109.06855,60.4835827 111.03705,62.1741861 113.55005,62.1741861 C113.92655,62.1741861 114.28805,62.1320089 114.63605,62.0602072 C115.38205,62.5382156 116.31105,62.8214055 117.33405,62.8214055 C119.84705,62.8214055 121.81605,61.1313042 121.81605,58.9727346 C121.81605,56.8146671 119.84705,55.1240637 117.33405,55.1240637" id="Fill-32" fill="#242021"></path>
                    </g>
                </g>
            </g>
        </g>
    </g>
</svg>