
<svg width="18px" height="18px" viewBox="0 0 18 18" version="1.1" xmlns="http://www.w3.org/2000/svg" xmlns:xlink="http://www.w3.org/1999/xlink">
	<!-- Generator: Sketch 48.2 (47327) - http://www.bohemiancoding.com/sketch -->
	<desc>Created with Sketch.</desc>
	<defs></defs>
	<g id="04_Profile" stroke="none" stroke-width="1" fill="none" fill-rule="evenodd">
		<g id="04_01_Profile" transform="translate(-16.000000, -443.000000)">
			<g id="icon-help" transform="translate(15.000000, 442.000000)">
				<g id="help" transform="translate(2.000000, 2.000000)">
					<path d="M7.6072,10.4505778 C7.6072,10.4505778 7.3592,10.0559111 7.6072,9.47635556 C7.99297778,8.09857778 10.5840889,7.7128 10.5840889,6.00257778 C10.5840889,4.62391111 9.31564444,3.85413333 7.99297778,3.85413333 C6.67031111,3.85413333 5.40275556,4.46035556 5.40275556,5.94924444" id="Stroke-1" stroke="#191919"></path>
					<path d="M6.96346667,11.6615111 C6.96346667,12.0348444 7.26657778,12.3379556 7.63991111,12.3379556 C8.01324444,12.3379556 8.31546667,12.0348444 8.31546667,11.6615111 C8.31546667,11.2881778 8.01324444,10.9850667 7.63991111,10.9850667 C7.26657778,10.9850667 6.96346667,11.2881778 6.96346667,11.6615111" id="Fill-3" fill="#191919"></path>
					<path d="M15.5411556,7.99271111 C15.5411556,12.1616 12.1616,15.5411556 7.99271111,15.5411556 C3.82382222,15.5411556 0.444266667,12.1616 0.444266667,7.99271111 C0.444266667,3.82382222 3.82382222,0.444266667 7.99271111,0.444266667 C12.1616,0.444266667 15.5411556,3.82382222 15.5411556,7.99271111 Z" id="Stroke-5" stroke="#191919"></path>
				</g>
			</g>
		</g>
	</g>
</svg>
