<?xml version="1.0" encoding="UTF-8"?>
<svg width="40px" height="40px" viewBox="0 0 40 40" version="1.1" xmlns="http://www.w3.org/2000/svg" xmlns:xlink="http://www.w3.org/1999/xlink">
    <!-- Generator: Sketch 49 (51002) - http://www.bohemiancoding.com/sketch -->
    <title>mm_ico_cc-mc-jcb</title>
    <desc>Created with Sketch.</desc>
    <defs></defs>
    <g id="mm_ico_cc-mc-jcb" stroke="none" stroke-width="1" fill="none" fill-rule="evenodd">
        <g id="Group" transform="translate(9.000000, 11.500000)">
            <path d="M2.65596078,-0.00017254902 C1.27168627,-0.00017254902 0.00647058824,1.24908235 0.00647058824,2.64974902 C0.00647058824,3.42061176 0.00560784314,6.4717098 0.00517647059,9.5046902 C0.258823529,9.66386667 1.47917647,10.0559843 1.9705098,10.0904941 C3.0454902,10.1664157 3.71196078,9.81096471 3.8154902,8.91500392 L3.80988235,5.58739608 L6.18803922,5.58739608 L6.18803922,8.83908235 C6.06294118,10.701749 4.42890196,11.0804941 1.94203922,10.9553961 C1.29843137,10.9226118 0.423176471,10.7569647 0.00474509804,10.6482588 C0.00431372549,13.6838275 0.00388235294,16.4019059 0.00388235294,16.4019059 L4.14247059,16.4019059 C5.27137255,16.4019059 6.7414902,15.3467686 6.7414902,13.7416314 L6.7414902,-0.00017254902 L2.65596078,-0.00017254902 Z" id="Fill-1" fill="#2F67B2"></path>
            <path d="M10.2490235,-0.00017254902 C8.86474902,-0.00017254902 7.59953333,1.24908235 7.59953333,2.64974902 C7.59953333,3.13763137 7.59910196,4.54131765 7.59867059,6.27629804 C8.42949412,5.62708235 9.76847451,5.30916078 11.4723961,5.44029804 C12.4416902,5.51492549 13.1590627,5.65037647 13.5498863,5.76598431 L13.5498863,6.91688627 C13.1189451,6.70206275 12.2687098,6.38198431 11.5595333,6.33065098 C9.95223922,6.21461176 9.10890588,6.96778824 9.10890588,8.18555294 C9.10890588,9.28080784 9.76027843,10.2181804 11.5522,10.0930824 C12.1431804,10.052102 13.1267098,9.70786667 13.5451412,9.50857255 L13.5498863,10.6253961 C13.1896902,10.7392784 12.0694157,10.9830039 11.0142784,10.9912 C9.42682745,11.0045725 8.30655294,10.6672392 7.59780784,10.1202588 C7.59737647,13.3611608 7.5969451,16.4019059 7.5969451,16.4019059 L11.735102,16.4019059 C12.8644353,16.4019059 14.3345529,15.3467686 14.3345529,13.7416314 L14.3345529,-0.00017254902 L10.2490235,-0.00017254902 Z" id="Fill-6" fill="#E41B24"></path>
            <path d="M16.4820118,8.53375686 L16.4794235,9.98316863 L18.0996588,9.9883451 C18.4149922,9.9883451 18.8109922,9.71873725 18.8109922,9.24854118 C18.8109922,8.83269804 18.4689137,8.53073725 18.1026784,8.53418824 C17.6493059,8.53850196 16.6610314,8.52944314 16.4820118,8.53375686" id="Fill-8" fill="#39B54A"></path>
            <path d="M17.9696863,6.39121569 C17.5025098,6.402 16.6604706,6.37956863 16.4767059,6.39596078 L16.471098,7.71509804 L18.0024706,7.72631373 C18.2569804,7.72070588 18.6145882,7.48733333 18.6145882,7.07968627 C18.6145882,6.66384314 18.3018431,6.38301961 17.9696863,6.39121569" id="Fill-10" fill="#39B54A"></path>
            <path d="M17.8068863,-0.00017254902 C16.4221804,-0.00017254902 15.1569647,1.24908235 15.1569647,2.64974902 C15.1569647,3.06904314 15.1569647,4.16472941 15.1565333,5.56496471 L19.0910824,5.56496471 C19.8735922,5.56496471 20.7954353,5.90014118 20.7954353,6.85174902 C20.7954353,7.36206275 20.5236706,7.94053333 19.5440235,8.12774902 L19.5440235,8.14974902 C20.1160235,8.14974902 21.107749,8.48449412 21.107749,9.49433725 C21.107749,10.5369647 20.0362196,10.8264157 19.4629255,10.8264157 L15.1556706,10.830298 C15.1552392,13.7916706 15.1548078,16.4019059 15.1548078,16.4019059 L19.2929647,16.4019059 C20.422298,16.4019059 21.8924157,15.3467686 21.8924157,13.7416314 L21.8924157,-0.00017254902 L17.8068863,-0.00017254902 Z" id="Fill-12" fill="#39B54A"></path>
        </g>
    </g>
</svg>