<?xml version="1.0" encoding="UTF-8"?>
<svg width="193px" height="39px" viewBox="0 0 193 39" version="1.1" xmlns="http://www.w3.org/2000/svg" xmlns:xlink="http://www.w3.org/1999/xlink">
    <!-- Generator: Sketch 50.2 (55047) - http://www.bohemiancoding.com/sketch -->
    <title>Logo/361 Header</title>
    <desc>Created with Sketch.</desc>
    <defs></defs>
    <g id="Symbols" stroke="none" stroke-width="1" fill="none" fill-rule="evenodd">
        <g id="Header/Desktop" transform="translate(-131.000000, -20.000000)" fill="#F9A01B">
            <g id="Logo/Desktop-Landscape-361-Header" transform="translate(130.000000, 19.000000)">
                <g id="Group-4" transform="translate(1.000000, 1.000000)">
                    <g id="Group-3">
                        <path d="M57.861576,4.87205197 C57.8835115,7.51391811 60.095235,9.62851654 62.7898525,9.60763465 C65.5211336,9.5858315 67.7084147,7.43591811 67.6867926,4.79374488 C67.6648571,2.16508346 65.4421659,0.0385086614 62.7105714,0.0600047244 C60.0162673,0.0811937008 57.8399539,2.24277638 57.861576,4.87205197 Z M59.8282488,4.85608346 C59.8150876,3.29239843 61.1177419,2.00693386 62.7268664,1.99403622 C64.3494654,1.98113858 65.6706083,3.24602835 65.6834562,4.81002047 C65.6966175,6.39765827 64.39647,7.6702252 62.773871,7.68312283 C61.1650599,7.69571339 59.8414101,6.44402835 59.8282488,4.85608346 Z M0.000156682028,4.93193386 L0.000156682028,7.79582362 L9.25285714,7.79582362 L2.12476498,19.6585795 C2.12476498,19.6585795 8.17143779,19.5412724 9.45967742,19.670863 C10.7723594,19.823485 11.3401751,20.7336898 10.8958249,21.8723669 C9.40201843,25.8343984 0.674829493,38.8711465 0.674829493,38.8711465 L7.79289401,38.8711465 C7.79289401,38.8711465 17.0383871,24.8253118 16.687106,21.2244142 C16.4527097,18.897926 14.6185899,17.6830913 12.8286544,17.4887055 C11.5153456,17.3717055 9.36817512,17.3658709 9.36817512,17.3658709 L16.8973733,4.93193386 L0.000156682028,4.93193386 Z M43.0902212,8.39587087 L45.8227558,8.37376063 L45.8227558,38.8711465 L52.4923963,38.8711465 L52.4923963,4.53210709 L43.0729862,6.33439843 L43.0902212,8.39587087 Z" id="Fill-77"></path>
                        <path d="M35.4408793,19.2013583 C32.8064276,17.9112874 29.3434415,18.8331614 29.3434415,18.8331614 L28.6455797,21.0859488 C28.6455797,21.0859488 31.0284,20.7413976 32.1803263,21.5671535 C33.847423,22.7113583 34.0909069,26.1630118 33.7509069,29.8741535 C33.3902249,33.7695472 32.2702618,36.8364213 29.4424645,36.5938228 C26.6381696,36.3269646 24.5448977,31.3601457 26.278741,24.6159094 C27.9304829,18.1486654 33.0088608,4.9335 33.0088608,4.9335 L27.3206765,4.9335 C27.3206765,4.9335 21.8499668,19.7482795 21.0242525,22.3158307 C19.0475521,28.4839724 21.0903724,38.8963583 29.8188147,38.8269567 C38.5356627,38.7578622 38.8797364,29.9484685 39.0044553,27.7813583 C39.1426488,25.5902953 38.5773401,20.7982087 35.4408793,19.2013583" id="Fill-79"></path>
                    </g>
                </g>
                <g id="Group-2" transform="translate(74.000000, 15.000000)">
                    <path d="M1.95791652,8.95954778 C1.95791652,9.83218513 2.21041739,10.2526055 2.99965505,10.2526055 C3.78958261,10.2526055 4.04208348,9.83218513 4.04208348,8.95954778 L4.04208348,3.03974563 C4.04208348,2.16710828 3.78958261,1.74668786 2.99965505,1.74668786 C2.21041739,1.74668786 1.95791652,2.16710828 1.95791652,3.03974563 L1.95791652,8.95954778 Z M0,2.99240417 C0,1.34251899 0.94722318,0 2.99965505,0 C5.05277682,0 6,1.34251899 6,2.99240417 L6,9.00759583 C6,10.6567744 5.05277682,12 2.99965505,12 C0.94722318,12 0,10.6567744 0,9.00759583 L0,2.99240417 Z" id="Fill-41"></path>
                    <polygon id="Fill-44" points="8 12 8 0 9.81579855 0 12.200069 6.8638867 12.2318041 6.8638867 12.2318041 0 14 0 14 12 12.2945843 12 9.79993101 4.50354052 9.76819593 4.50354052 9.76819593 12"></polygon>
                    <polygon id="Fill-46" points="15 12 15 0 19.7973229 0 19.7973229 1.7938631 16.7918929 1.7938631 16.7918929 4.88555347 19.1040535 4.88555347 19.1040535 6.68086909 16.7918929 6.68086909 16.7918929 10.2046844 20 10.2046844 20 12"></polygon>
                    <path d="M27.9579165,10.3042847 L28.6367713,10.3042847 C29.6791997,10.3042847 30.0420835,9.88961511 30.0420835,8.62527233 L30.0420835,3.37327524 C30.0420835,2.11111111 29.6791997,1.69571532 28.6367713,1.69571532 L27.9579165,1.69571532 L27.9579165,10.3042847 Z M26,0 L28.9051397,0 C30.9265264,0 32,1.16267248 32,3.6238199 L32,8.37690632 C32,10.8358751 30.9265264,12 28.9051397,12 L26,12 L26,0 Z" id="Fill-48"></path>
                    <polygon id="Fill-50" points="33 12 33 0 37.7973229 0 37.7973229 1.7938631 34.7918929 1.7938631 34.7918929 4.88555347 37.1040535 4.88555347 37.1040535 6.68086909 34.7918929 6.68086909 34.7918929 10.2046844 38 10.2046844 38 12"></polygon>
                    <path d="M42.7434579,5.91944412 L46,5.91944412 L46,11.8388882 L45.0376168,11.8388882 L44.6682243,10.9661995 C44.0752336,11.6770698 43.5936916,12 42.6635514,12 C41.0913551,12 40,10.8679779 40,9.00812625 L40,2.99187375 C40,1.34259804 40.9630841,0 42.9200935,0 C44.9093458,0 45.903972,1.45636556 45.903972,3.20244965 L45.903972,3.94653162 L44.0107477,3.94653162 C44.0107477,2.1997409 43.6581776,1.74749735 42.871729,1.74749735 C42.3901869,1.74749735 41.9892523,2.03862914 41.9892523,3.02437875 L41.9892523,9.02508538 C41.9892523,9.76846072 42.2303738,10.2546225 42.9200935,10.2546225 C43.7219626,10.2546225 44.0107477,9.80096573 44.0107477,8.63714521 L44.0107477,7.50441644 L42.7434579,7.50441644 L42.7434579,5.91944412 Z" id="Fill-52"></path>
                    <path d="M49.8506684,5.3848947 L50.5073362,5.3848947 C51.5070101,5.3848947 51.8806651,4.97022513 51.8806651,3.54030501 C51.8806651,2.11038489 51.5070101,1.69498911 50.5073362,1.69498911 L49.8506684,1.69498911 L49.8506684,5.3848947 Z M49.8506684,12 L48,12 L48,0 L50.5966743,0 C52.6716661,0 53.7313336,0.981118373 53.7313336,3.54030501 C53.7313336,5.46840959 53.0596674,6.24909223 52.4323443,6.56499637 L54,12 L52.1193349,12 L50.8059993,7.03122731 C50.5673296,7.06463326 50.1786762,7.08061002 49.8506684,7.08061002 L49.8506684,12 Z" id="Fill-54"></path>
                    <polygon id="Fill-56" points="55 12 55 0 59.7973229 0 59.7973229 1.7938631 56.7918929 1.7938631 56.7918929 4.88555347 59.1040535 4.88555347 59.1040535 6.68086909 56.7918929 6.68086909 56.7918929 10.2046844 60 10.2046844 60 12"></polygon>
                    <polygon id="Fill-58" points="62 12 62 0 66.7973229 0 66.7973229 1.7938631 63.7918929 1.7938631 63.7918929 4.88555347 66.1040535 4.88555347 66.1040535 6.68086909 63.7918929 6.68086909 63.7918929 10.2046844 67 10.2046844 67 12"></polygon>
                    <path d="M73.9076854,10.3042847 L74.7075958,10.3042847 C75.7232803,10.3042847 76.0923146,9.67320261 76.0923146,8.45969499 C76.0923146,7.2302106 75.6614385,6.6151053 74.5227425,6.6151053 L73.9076854,6.6151053 L73.9076854,10.3042847 Z M73.9076854,4.91938998 L74.6000448,4.91938998 C75.3233251,4.91938998 75.8772126,4.38779956 75.8772126,3.38997821 C75.8772126,2.27668845 75.4772575,1.69571532 74.6309657,1.69571532 L73.9076854,1.69571532 L73.9076854,4.91938998 Z M72,0 L74.8306072,0 C76.8767645,0 77.7848981,1.12926652 77.7848981,3.17501816 C77.7848981,4.20551924 77.3842707,5.28540305 76.4613489,5.68409586 C77.430652,6.14887436 78,6.98111837 78,8.5265069 C78,10.5039942 77.1846292,12 75.0154605,12 L72,12 L72,0 Z" id="Fill-60"></path>
                    <polygon id="Fill-62" points="80 12 80 0 84.7973229 0 84.7973229 1.7938631 81.7918929 1.7938631 81.7918929 4.88555347 84.1040535 4.88555347 84.1040535 6.68086909 81.7918929 6.68086909 81.7918929 10.2046844 85 10.2046844 85 12"></polygon>
                    <polygon id="Fill-64" points="89.8773702 12 88.1226298 12 88.1226298 7.01349634 86 0 87.7831822 0 89.0142209 4.57035647 89.0426628 4.57035647 90.2168178 0 92 0 89.8773702 7.01349634"></polygon>
                    <path d="M94.9579165,8.95954778 C94.9579165,9.83218513 95.2104174,10.2526055 95.9996551,10.2526055 C96.7895826,10.2526055 97.0420835,9.83218513 97.0420835,8.95954778 L97.0420835,3.03974563 C97.0420835,2.16710828 96.7895826,1.74668786 95.9996551,1.74668786 C95.2104174,1.74668786 94.9579165,2.16710828 94.9579165,3.03974563 L94.9579165,8.95954778 Z M93,2.99240417 C93,1.34251899 93.9472232,0 95.9996551,0 C98.0527768,0 99,1.34251899 99,2.99240417 L99,9.00759583 C99,10.6567744 98.0527768,12 95.9996551,12 C93.9472232,12 93,10.6567744 93,9.00759583 L93,2.99240417 Z" id="Fill-66"></path>
                    <polygon id="Fill-69" points="101 12 101 0 102.815799 0 105.200069 6.8638867 105.231804 6.8638867 105.231804 0 107 0 107 12 105.294584 12 102.799931 4.50354052 102.768196 4.50354052 102.768196 12"></polygon>
                    <path d="M110.957917,10.3042847 L111.636771,10.3042847 C112.6792,10.3042847 113.042083,9.88961511 113.042083,8.62527233 L113.042083,3.37327524 C113.042083,2.11111111 112.6792,1.69571532 111.636771,1.69571532 L110.957917,1.69571532 L110.957917,10.3042847 Z M109,0 L111.90514,0 C113.926526,0 115,1.16267248 115,3.6238199 L115,8.37690632 C115,10.8358751 113.926526,12 111.90514,12 L109,12 L109,0 Z" id="Fill-71"></path>
                    <polygon id="Fill-73" points="116.756833 1.182 116.756833 2.94266667 116.552267 2.94266667 116.552267 1.182 116 1.182 116 1 117.3091 1 117.3091 1.182"></polygon>
                    <polygon id="Fill-75" points="119.393333 2.94333333 119.393333 1.16733333 119.385733 1.16733333 118.868933 2.94333333 118.7106 2.94333333 118.1919 1.16733333 118.183667 1.16733333 118.183667 2.94333333 118 2.94333333 118 1 118.316667 1 118.787233 2.57133333 118.7923 2.57133333 119.255267 1 119.577633 1 119.577633 2.94333333"></polygon>
                </g>
            </g>
        </g>
    </g>
</svg>