<?xml version="1.0" encoding="UTF-8"?>
<svg width="40px" height="40px" viewBox="0 0 40 40" version="1.1" xmlns="http://www.w3.org/2000/svg" xmlns:xlink="http://www.w3.org/1999/xlink">
    <!-- Generator: Sketch 49 (51002) - http://www.bohemiancoding.com/sketch -->
    <title>mm_ico_cc-mc-visa</title>
    <desc>Created with Sketch.</desc>
    <defs>
        <polygon id="path-1" points="8.70504194 11.2411765 0.455654839 11.2411765 0.455654839 0.532992353 8.70504194 0.532992353"></polygon>
        <polygon id="path-3" points="1.15813339e-16 5.76613471 1.15813339e-16 0.182481765 6.63696452 0.182481765 6.63696452 5.76613471 0 5.76613471"></polygon>
    </defs>
    <g id="mm_ico_cc-mc-visa" stroke="none" stroke-width="1" fill="none" fill-rule="evenodd">
        <g id="Page-1-Copy-2" transform="translate(3.000000, 14.000000)">
            <polygon id="Fill-1" fill="#0066B2" points="13.6244032 0.720612941 11.8997258 11.0657071 14.6586613 11.0657071 16.3838871 0.720612941"></polygon>
            <g id="Group-12" transform="translate(0.000000, 0.002623)">
                <path d="M9.57840323,0.717936471 L6.94779032,7.83306588 L6.63685484,6.30105412 L6.63685484,6.30158941 L5.70843548,1.64934824 C5.70843548,1.64934824 5.59601613,0.717936471 4.39943548,0.717936471 L0.0507258065,0.717936471 L0.000274193548,0.892977647 C0.000274193548,0.892977647 1.3301129,1.16276588 2.8858871,2.07544235 L5.28343548,11.0630306 L8.15808065,11.0630306 L12.5484677,0.717936471 L9.57840323,0.717936471 Z" id="Fill-2" fill="#0066B2"></path>
                <path d="M28.2452258,7.40338529 L29.6951613,3.53213824 L30.5106129,7.40338529 L28.2452258,7.40338529 Z M31.2816452,11.0631912 L33.8151935,11.0631912 L31.6057419,0.718097059 L29.3875161,0.718097059 C28.363129,0.718097059 28.1136129,1.48892059 28.1136129,1.48892059 L23.9990645,11.0631912 L26.8748065,11.0631912 L27.4500645,9.52636176 L30.9575484,9.52636176 L31.2816452,11.0631912 Z" id="Fill-4" fill="#0066B2"></path>
                <g id="Group-8" transform="translate(15.903226, 0.000000)">
                    <mask id="mask-2" fill="white">
                        <use xlink:href="#path-1"></use>
                    </mask>
                    <g id="Clip-7"></g>
                    <path d="M8.3113,3.20571588 L8.70504194,0.98371 C8.70504194,0.98371 7.48981613,0.532992353 6.22359032,0.532992353 C4.85426774,0.532992353 1.60233226,1.11753353 1.60233226,3.95726882 C1.60233226,6.62999235 5.41910645,6.66371588 5.41910645,8.06672176 C5.41910645,9.47026294 1.99607419,9.21921 0.866396774,8.33436882 L0.455654839,10.6564747 C0.455654839,10.6564747 1.68788065,11.2415512 3.57049355,11.2415512 C5.45310645,11.2415512 8.2943,10.2887276 8.2943,7.69951 C8.2943,5.00965706 4.44352581,4.75913941 4.44352581,3.59005706 C4.44352581,2.41990412 7.13062258,2.57032176 8.3113,3.20571588" id="Fill-6" fill="#0066B2" mask="url(#mask-2)"></path>
                </g>
                <g id="Group-11" transform="translate(0.000000, 0.535294)">
                    <mask id="mask-4" fill="white">
                        <use xlink:href="#path-3"></use>
                    </mask>
                    <g id="Clip-10"></g>
                    <path d="M6.63696452,5.76613471 L5.70854516,1.11442882 C5.70854516,1.11442882 5.59612581,0.182481765 4.39954516,0.182481765 L0.0508354839,0.182481765 L-0.000164516129,0.357522941 C-0.000164516129,0.357522941 2.0902871,0.780940588 4.09519032,2.36487588 C6.01180323,3.87922294 6.63696452,5.76613471 6.63696452,5.76613471" id="Fill-9" fill="#F9A533" mask="url(#mask-4)"></path>
                </g>
            </g>
        </g>
    </g>
</svg>