<?xml version="1.0" encoding="UTF-8"?>
<svg width="52px" height="38px" viewBox="0 0 52 38" version="1.1" xmlns="http://www.w3.org/2000/svg" xmlns:xlink="http://www.w3.org/1999/xlink">
    <!-- Generator: Sketch 50.2 (55047) - http://www.bohemiancoding.com/sketch -->
    <title>Logo/Mobile 361 Header</title>
    <desc>Created with Sketch.</desc>
    <defs></defs>
    <g id="Symbols" stroke="none" stroke-width="1" fill="none" fill-rule="evenodd">
        <g id="Header/Mobile/Home" transform="translate(-134.000000, -6.000000)" fill="#F9A01B">
            <g id="Logo/Mobile-361-Header" transform="translate(133.000000, 5.000000)">
                <g id="Group-4" transform="translate(1.000000, 1.000000)">
                    <g id="Group-2" transform="translate(0.000000, 33.440000)">
                        <path d="M0.75104951,3.41830267 C0.75104951,3.73116933 0.839678922,3.88190267 1.11670637,3.88190267 C1.39397598,3.88190267 1.48260539,3.73116933 1.48260539,3.41830267 L1.48260539,1.295876 C1.48260539,0.983009333 1.39397598,0.832276 1.11670637,0.832276 C0.839678922,0.832276 0.75104951,0.983009333 0.75104951,1.295876 L0.75104951,3.41830267 Z M0.0638083333,1.27890267 C0.0638083333,0.687369333 0.396289706,0.206036 1.11670637,0.206036 C1.8373652,0.206036 2.16984657,0.687369333 2.16984657,1.27890267 L2.16984657,3.43552933 C2.16984657,4.02680933 1.8373652,4.508396 1.11670637,4.508396 C0.396289706,4.508396 0.0638083333,4.02680933 0.0638083333,3.43552933 L0.0638083333,1.27890267 Z" id="Fill-41"></path>
                        <polygon id="Fill-44" points="2.83517255 4.45018 2.83517255 0.264353333 3.47252941 0.264353333 4.30942353 2.65860667 4.32056275 2.65860667 4.32056275 0.264353333 4.94121078 0.264353333 4.94121078 4.45018 4.34259902 4.45018 3.4669598 1.83527333 3.45582059 1.83527333 3.45582059 4.45018"></polygon>
                        <polygon id="Fill-46" points="5.60660941 4.45018 5.60660941 0.264353333 7.44651725 0.264353333 7.44651725 0.890086667 6.29385059 0.890086667 6.29385059 1.96852667 7.18062902 1.96852667 7.18062902 2.59476667 6.29385059 2.59476667 6.29385059 3.82394 7.52424961 3.82394 7.52424961 4.45018"></polygon>
                        <path d="M9.98519294,3.858672 L10.2234753,3.858672 C10.5893743,3.858672 10.7167488,3.71401867 10.7167488,3.27296533 L10.7167488,1.44085867 C10.7167488,1.00056533 10.5893743,0.855658667 10.2234753,0.855658667 L9.98519294,0.855658667 L9.98519294,3.858672 Z M9.29795176,0.264125333 L10.3176743,0.264125333 C11.0271939,0.264125333 11.40399,0.669712 11.40399,1.52825867 L11.40399,3.18632533 C11.40399,4.044112 11.0271939,4.45020533 10.3176743,4.45020533 L9.29795176,4.45020533 L9.29795176,0.264125333 Z" id="Fill-48"></path>
                        <polygon id="Fill-50" points="12.0692918 4.45018 12.0692918 0.264353333 13.9091996 0.264353333 13.9091996 0.890086667 12.7565329 0.890086667 12.7565329 1.96852667 13.6433114 1.96852667 13.6433114 2.59476667 12.7565329 2.59476667 12.7565329 3.82394 13.986932 3.82394 13.986932 4.45018"></polygon>
                        <path d="M15.4779402,2.328032 L16.603001,2.328032 L16.603001,4.45020533 L16.2705196,4.45020533 L16.1429029,4.13733867 C15.9380382,4.392192 15.7716765,4.50796533 15.4503343,4.50796533 C14.9071765,4.50796533 14.5301382,4.10212533 14.5301382,3.435352 L14.5301382,1.278472 C14.5301382,0.687192 14.8628618,0.205858667 15.5389637,0.205858667 C16.2262049,0.205858667 16.5698255,0.727978667 16.5698255,1.35396533 L16.5698255,1.62072533 L15.9157598,1.62072533 C15.9157598,0.994485333 15.7939549,0.832352 15.5222549,0.832352 C15.3558931,0.832352 15.2173794,0.936725333 15.2173794,1.29012533 L15.2173794,3.441432 C15.2173794,3.70793867 15.3006814,3.882232 15.5389637,3.882232 C15.8159912,3.882232 15.9157598,3.719592 15.9157598,3.302352 L15.9157598,2.89625867 L15.4779402,2.89625867 L15.4779402,2.328032 Z" id="Fill-52"></path>
                        <path d="M17.9888889,2.14246533 L18.2327409,2.14246533 C18.6039674,2.14246533 18.7427232,1.997812 18.7427232,1.49899867 C18.7427232,1.00018533 18.6039674,0.855278667 18.2327409,0.855278667 L17.9888889,0.855278667 L17.9888889,2.14246533 Z M17.9888889,4.45007867 L17.3016477,4.45007867 L17.3016477,0.263998667 L18.2659164,0.263998667 C19.0364595,0.263998667 19.4299644,0.606252 19.4299644,1.49899867 C19.4299644,2.17159867 19.1805428,2.443932 18.9475879,2.554132 L19.529733,4.45007867 L18.8313526,4.45007867 L18.3436487,2.716772 C18.2550193,2.72842533 18.1106938,2.73399867 17.9888889,2.73399867 L17.9888889,4.45007867 Z" id="Fill-54"></path>
                        <polygon id="Fill-56" points="20.073012 4.45018 20.073012 0.264353333 21.9129198 0.264353333 21.9129198 0.890086667 20.7602531 0.890086667 20.7602531 1.96852667 21.6470316 1.96852667 21.6470316 2.59476667 20.7602531 2.59476667 20.7602531 3.82394 21.9906522 3.82394 21.9906522 4.45018"></polygon>
                        <polygon id="Fill-58" points="22.5339553 4.45018 22.5339553 0.264353333 24.3738631 0.264353333 24.3738631 0.890086667 23.2211965 0.890086667 23.2211965 1.96852667 24.1079749 1.96852667 24.1079749 2.59476667 23.2211965 2.59476667 23.2211965 3.82394 24.4515955 3.82394 24.4515955 4.45018"></polygon>
                        <path d="M26.9125146,3.858672 L27.2006813,3.858672 C27.5665803,3.858672 27.6995244,3.63852533 27.6995244,3.21520533 C27.6995244,2.786312 27.5443019,2.57173867 27.1340881,2.57173867 L26.9125146,2.57173867 L26.9125146,3.858672 Z M26.9125146,1.98020533 L27.1619362,1.98020533 C27.422497,1.98020533 27.6220342,1.79476533 27.6220342,1.44668533 C27.6220342,1.05832533 27.4779509,0.855658667 27.1730754,0.855658667 L26.9125146,0.855658667 L26.9125146,1.98020533 Z M26.2252734,0.264125333 L27.244996,0.264125333 C27.9821215,0.264125333 28.3092754,0.658058667 28.3092754,1.37169867 C28.3092754,1.73117867 28.1649499,2.10788533 27.8324685,2.24696533 C28.1816587,2.40909867 28.3867656,2.69941867 28.3867656,3.238512 C28.3867656,3.92833867 28.0930293,4.45020533 27.3115891,4.45020533 L26.2252734,4.45020533 L26.2252734,0.264125333 Z" id="Fill-60"></path>
                        <polygon id="Fill-62" points="28.9967345 4.45018 28.9967345 0.264353333 30.8366424 0.264353333 30.8366424 0.890086667 29.6839757 0.890086667 29.6839757 1.96852667 30.5707541 1.96852667 30.5707541 2.59476667 29.6839757 2.59476667 29.6839757 3.82394 30.9143747 3.82394 30.9143747 4.45018"></polygon>
                        <polygon id="Fill-64" points="32.699095 4.45018 32.0118538 4.45018 32.0118538 2.71079333 31.1805293 0.264353333 31.8789097 0.264353333 32.361044 1.85858 32.3721832 1.85858 32.8320391 0.264353333 33.5304195 0.264353333 32.699095 2.71079333"></polygon>
                        <path d="M34.6057171,3.41830267 C34.6057171,3.73116933 34.6943465,3.88190267 34.9713739,3.88190267 C35.2486435,3.88190267 35.3372729,3.73116933 35.3372729,3.41830267 L35.3372729,1.295876 C35.3372729,0.983009333 35.2486435,0.832276 34.9713739,0.832276 C34.6943465,0.832276 34.6057171,0.983009333 34.6057171,1.295876 L34.6057171,3.41830267 Z M33.9184759,1.27890267 C33.9184759,0.687369333 34.2509573,0.206036 34.9713739,0.206036 C35.6920327,0.206036 36.0245141,0.687369333 36.0245141,1.27890267 L36.0245141,3.43552933 C36.0245141,4.02680933 35.6920327,4.508396 34.9713739,4.508396 C34.2509573,4.508396 33.9184759,4.02680933 33.9184759,3.43552933 L33.9184759,1.27890267 Z" id="Fill-66"></path>
                        <polygon id="Fill-69" points="36.6899612 4.45018 36.6899612 0.264353333 37.327318 0.264353333 38.1642122 2.65860667 38.1753514 2.65860667 38.1753514 0.264353333 38.7959994 0.264353333 38.7959994 4.45018 38.1973876 4.45018 37.3217484 1.83527333 37.3106092 1.83527333 37.3106092 4.45018"></polygon>
                        <path d="M40.1484939,3.858672 L40.3867763,3.858672 C40.7526753,3.858672 40.8800498,3.71401867 40.8800498,3.27296533 L40.8800498,1.44085867 C40.8800498,1.00056533 40.7526753,0.855658667 40.3867763,0.855658667 L40.1484939,0.855658667 L40.1484939,3.858672 Z M39.4612527,0.264125333 L40.4809753,0.264125333 C41.1904949,0.264125333 41.567291,0.669712 41.567291,1.52825867 L41.567291,3.18632533 C41.567291,4.044112 41.1904949,4.45020533 40.4809753,4.45020533 L39.4612527,4.45020533 L39.4612527,0.264125333 Z" id="Fill-71"></path>
                        <polygon id="Fill-73" points="42.4654266 0.888921333 42.4654266 1.55797467 42.3872099 1.55797467 42.3872099 0.888921333 42.1760491 0.888921333 42.1760491 0.819761333 42.6765874 0.819761333 42.6765874 0.888921333"></polygon>
                        <polygon id="Fill-75" points="43.3367312 1.55787333 43.3367312 0.882993333 43.3338253 0.882993333 43.1362253 1.55787333 43.0756861 1.55787333 42.8773596 0.882993333 42.8742116 0.882993333 42.8742116 1.55787333 42.8039861 1.55787333 42.8039861 0.819406667 42.9250645 0.819406667 43.1049871 1.41651333 43.1069243 1.41651333 43.283941 0.819406667 43.4071988 0.819406667 43.4071988 1.55787333"></polygon>
                    </g>
                    <g id="Group-3">
                        <path d="M44.2470876,3.7027595 C44.2638618,5.71057776 45.9551797,7.31767257 48.0157696,7.30180233 C50.1043963,7.28523194 51.777023,5.65129776 51.7604885,3.64324611 C51.7437143,1.64546343 50.0440092,0.0292665827 47.9551429,0.0456035906 C45.8947926,0.0617072126 44.230553,1.70451005 44.2470876,3.7027595 Z M45.7510138,3.69062343 C45.7409493,2.5022228 46.7370968,1.52526973 47.9676037,1.51546753 C49.2084147,1.50566532 50.2187005,2.46698154 50.2285253,3.65561556 C50.2385899,4.86222028 49.2443594,5.82937115 48.0035484,5.83917335 C46.7732811,5.84874217 45.7610783,4.89746154 45.7510138,3.69062343 Z M0.000119815668,3.74826973 L0.000119815668,5.92482595 L7.07571429,5.92482595 L1.62482028,14.9405204 C1.62482028,14.9405204 6.24874654,14.8513671 7.23387097,14.9498559 C8.23768664,15.0658486 8.67189862,15.7576042 8.33210138,16.6229989 C7.1897788,19.6341428 0.516046083,29.5420713 0.516046083,29.5420713 L5.95927189,29.5420713 C5.95927189,29.5420713 13.0293548,18.867237 12.7607281,16.1305548 C12.5814839,14.3624237 11.1789217,13.4391494 9.81014747,13.2914162 C8.80585253,13.2024962 7.16389862,13.1980619 7.16389862,13.1980619 L12.9215207,3.74826973 L0.000119815668,3.74826973 Z M32.9513456,6.38086186 L35.0409309,6.36405808 L35.0409309,29.5420713 L40.1412442,29.5420713 L40.1412442,3.44440139 L32.9381659,4.8141428 L32.9513456,6.38086186 Z" id="Fill-77"></path>
                        <path d="M27.1018488,14.5930323 C25.0872682,13.6125784 22.4391023,14.3132027 22.4391023,14.3132027 L21.9054433,16.0253211 C21.9054433,16.0253211 23.7276,15.7634622 24.6084848,16.3910367 C25.8833235,17.2606323 26.0695171,19.883889 25.8095171,22.7043567 C25.5337014,25.6648559 24.677259,27.9956802 22.5148258,27.8113054 C20.370365,27.6084931 18.7696276,23.8337107 20.0955078,18.7080912 C21.3586046,13.7929857 25.24207,3.74946 25.24207,3.74946 L20.892282,3.74946 C20.892282,3.74946 16.7087982,15.0086924 16.0773696,16.9600313 C14.5657751,21.6478191 16.1279318,29.5612323 22.802623,29.5084871 C29.4684479,29.4559753 29.7315631,22.7608361 29.8269364,21.1138323 C29.9326138,19.4486244 29.5003189,15.8066386 27.1018488,14.5930323" id="Fill-79"></path>
                    </g>
                </g>
            </g>
        </g>
    </g>
</svg>