<?xml version="1.0" encoding="UTF-8"?>
<svg width="170px" height="170px" viewBox="0 0 170 170" version="1.1" xmlns="http://www.w3.org/2000/svg" xmlns:xlink="http://www.w3.org/1999/xlink">
    <!-- Generator: Sketch 49.1 (51147) - http://www.bohemiancoding.com/sketch -->
    <title>Group 10</title>
    <desc>Created with Sketch.</desc>
    <defs>
        <circle id="path-1" cx="85" cy="85" r="85"></circle>
    </defs>
    <g id="Page-1" stroke="none" stroke-width="1" fill="none" fill-rule="evenodd">
        <g id="mm_ico_no_order_shoppingbag" transform="translate(-1.000000, -1.000000)">
            <g id="Group-10" transform="translate(1.000000, 1.000000)">
                <mask id="mask-2" fill="white">
                    <use xlink:href="#path-1"></use>
                </mask>
                <use id="Oval-2-Copy" fill="#F4F4F4" xlink:href="#path-1"></use>
                <g id="Group-8" mask="url(#mask-2)">
                    <g transform="translate(26.000000, 21.000000)">
                        <polygon id="Rectangle-2" fill="#D2D2D2" points="0 62 19 48 99 48 117 62 117 100 0 100"></polygon>
                        <polygon id="Rectangle-3" fill="#A7A7A7" points="19 48 19 62 0 62"></polygon>
                        <polygon id="Rectangle-3" fill="#A7A7A7" transform="translate(108.000000, 55.000000) scale(-1, 1) translate(-108.000000, -55.000000) " points="117 48 117 62 99 62"></polygon>
                        <rect id="Rectangle" fill="#E3E3E3" x="0" y="62" width="117" height="87"></rect>
                        <g id="Group" stroke-width="1" fill="none" transform="translate(47.000000, 57.000000)">
                            <circle id="Oval" fill="#B8B8B8" cx="3" cy="14" r="3"></circle>
                            <circle id="Oval-Copy" fill="#B8B8B8" cx="20" cy="14" r="3"></circle>
                            <path d="M3,14 C3,4.66666667 5.83333333,0 11.5,0 C17.1666667,0 20,4.66666667 20,14" id="Path-3" stroke="#FFFFFF" stroke-width="2" stroke-linecap="round" stroke-linejoin="round"></path>
                        </g>
                        <g id="Group-9" stroke-width="1" fill="none" transform="translate(25.000000, 0.000000)">
                            <g id="Group-6" transform="translate(62.000000, 9.000000)" stroke="#A4A4A4" stroke-linecap="round" stroke-width="1.5">
                                <path d="M2.5,0.5 L2.5,6.5" id="Line-4"></path>
                                <path d="M6,4 L0,4" id="Line-4"></path>
                            </g>
                            <g id="Group-5" transform="translate(0.000000, 16.000000)" stroke="#A4A4A4" stroke-linecap="round" stroke-width="1.5">
                                <path d="M3.5,0.5 L3.5,6.5" id="Line-4-Copy"></path>
                                <path d="M6,4 L0,4" id="Line-4-Copy-2"></path>
                            </g>
                            <path d="M17.5,29.5 L21.5,36.5" id="Line" stroke="#A4A4A4" stroke-width="1.5" stroke-linecap="round"></path>
                            <path d="M32.5,24.5 L32.5,36.5" id="Line-2" stroke="#A4A4A4" stroke-width="1.5" stroke-linecap="round"></path>
                            <path d="M49.5,32.5 L45.5,36.5" id="Line-3" stroke="#A4A4A4" stroke-width="1.5" stroke-linecap="round"></path>
                            <circle id="Oval-3" stroke="#A4A4A4" stroke-width="1.5" fill-opacity="0" fill="#FFFFFF" cx="66.5" cy="36.5" r="1.5"></circle>
                            <circle id="Oval-3-Copy-2" stroke="#979797" stroke-width="1.5" fill-opacity="0" fill="#FFFFFF" cx="25" cy="3" r="3"></circle>
                            <circle id="Oval-3-Copy-3" stroke="#979797" stroke-width="1.5" fill-opacity="0" fill="#FFFFFF" cx="49" cy="14" r="2"></circle>
                            <circle id="Oval-3-Copy" stroke="#A4A4A4" stroke-width="1.5" fill-opacity="0" fill="#FFFFFF" cx="2.5" cy="37.5" r="1.5"></circle>
                        </g>
                    </g>
                </g>
            </g>
        </g>
    </g>
</svg>