<?xml version="1.0" encoding="UTF-8"?>
<svg width="170px" height="170px" viewBox="0 0 170 170" version="1.1" xmlns="http://www.w3.org/2000/svg" xmlns:xlink="http://www.w3.org/1999/xlink">
    <!-- Generator: Sketch 49.1 (51147) - http://www.bohemiancoding.com/sketch -->
    <title>Group 5</title>
    <desc>Created with Sketch.</desc>
    <defs></defs>
    <g id="Page-1" stroke="none" stroke-width="1" fill="none" fill-rule="evenodd">
        <g id="mm_ico_no_cc" transform="translate(-1.000000, -1.000000)">
            <g id="Group-5" transform="translate(1.000000, 1.000000)">
                <circle id="Oval-2" fill="#F4F4F4" cx="85" cy="85" r="85"></circle>
                <g id="Group-3" transform="translate(70.000000, 40.000000)" stroke="#979797" stroke-linecap="round" stroke-width="1.5">
                    <path d="M5,3 L0,3" id="Line-2"></path>
                    <path d="M2.5,0.5 L2.5,5.5" id="Line-2"></path>
                </g>
                <g id="Group-3-Copy" transform="translate(111.882325, 63.894665) rotate(44.000000) translate(-111.882325, -63.894665) translate(109.382325, 60.894665)" stroke="#979797" stroke-linecap="round" stroke-width="1.5">
                    <path d="M5,3 L0,3" id="Line-2"></path>
                    <path d="M2.5,0.5 L2.5,5.5" id="Line-2"></path>
                </g>
                <circle id="Oval-4-Copy" stroke="#979797" fill-opacity="0" fill="#D8D8D8" cx="94.5" cy="37.5" r="2.5"></circle>
                <g id="Group-2" transform="translate(84.052099, 102.767734) rotate(1.000000) translate(-84.052099, -102.767734) translate(41.052099, 74.767734)">
                    <rect id="Rectangle-2" fill="#D8D8D8" x="0" y="0" width="86" height="56" rx="7.80000043"></rect>
                    <rect id="Rectangle-4" fill="#F5F5F5" x="6.51515152" y="28.6511628" width="39.0909091" height="13.0232558"></rect>
                    <rect id="Rectangle-3" fill="#A4A4A4" x="0" y="9.11627907" width="86" height="11.7209302"></rect>
                </g>
                <path d="M84.5,66.5 L84.5,48.4722436" id="Line" stroke="#A4A4A4" stroke-width="1.5" stroke-linecap="round"></path>
                <path d="M73.0138782,66.612495 L67,59" id="Line-Copy" stroke="#A4A4A4" stroke-width="1.5" stroke-linecap="round"></path>
                <path d="M97,66.1589893 L101,61" id="Line-Copy-2" stroke="#A4A4A4" stroke-width="1.5" stroke-linecap="round"></path>
            </g>
        </g>
    </g>
</svg>