<?xml version="1.0" encoding="UTF-8"?>
<svg width="66px" height="12px" viewBox="0 0 66 12" version="1.1" xmlns="http://www.w3.org/2000/svg" xmlns:xlink="http://www.w3.org/1999/xlink">
    <!-- Generator: Sketch 48.2 (47327) - http://www.bohemiancoding.com/sketch -->
    <title>mm_ico_gojek</title>
    <desc>Created with Sketch.</desc>
    <defs></defs>
    <g id="Assets" stroke="none" stroke-width="1" fill="none" fill-rule="evenodd" opacity="0.849999964">
        <g id="mm_ico_gojek">
            <g id="Page-1" transform="translate(1.000000, 1.000000)">
                <path d="M18.6745469,8.14601543 L21.5501932,9.13720971 L20.5801796,8.80218114 L20.5801796,2.643784 L18.6745469,1.98680114 L18.6745469,8.14601543 Z M21.6390095,9.16785257 L23.8615946,9.933924 L23.8615946,3.77511829 L21.6385741,3.00822971 L21.6390095,9.16785257 Z M21.6390095,9.16785257 L21.5501932,9.13720971 L21.6390095,9.16785257 Z" id="Fill-1" fill="#8BC340"></path>
                <polygon id="Fill-2" fill="#8BC340" points="23.9674776 4.08571429e-05 18.7804299 1.78794943 20.7422259 2.46413514 25.9789061 0.695429429"></polygon>
                <polygon id="Fill-3" fill="#8BC340" points="29.1542639 1.78794943 26.8803048 1.00430943 21.6619102 2.78159514 23.9676517 3.57626657"></polygon>
                <path d="M24.0736653,3.77499571 L24.0736653,9.93380143 L29.2598422,8.14589286 L29.2598422,1.98667857 L24.0736653,3.77499571 Z M26.5592163,4.23668143 L28.2014476,3.67571286 L27.1957333,5.47465286 L28.0830259,5.18538429 L26.0311075,8.44333286 L26.574019,6.59454714 L25.6610395,6.94632714 L26.5592163,4.23668143 Z" id="Fill-4" fill="#8BC340"></path>
                <g id="Group-17" transform="translate(0.000000, 0.128128)" fill="#221F1F">
                    <path d="M6.90468571,2.05482829 C6.86942041,2.07525686 6.82152925,2.08547114 6.7601415,2.08547114 L6.72095782,2.08547114 C6.40574694,2.06912829 6.01216871,2.04829114 5.53935238,2.02418543 C5.06697143,1.99926257 4.55061769,1.98700543 3.99072653,1.98700543 C3.72819592,1.98700543 3.48961088,2.01969114 3.2754068,2.08547114 C3.06076735,2.15125114 2.87921633,2.26442543 2.73031837,2.42417686 C2.58142041,2.58433686 2.46778776,2.80006257 2.38898503,3.07094543 C2.31018231,3.34182829 2.27099864,3.67889971 2.27099864,4.08134257 L2.27099864,5.62124829 C2.27099864,6.04820543 2.31671293,6.39712543 2.40857687,6.66800829 C2.50044082,6.93929971 2.61886259,7.15298257 2.7634068,7.30864829 C2.90751565,7.46472257 3.06729796,7.57176829 3.24231837,7.62937686 C3.41733878,7.68657686 3.5836517,7.71517686 3.74125714,7.71517686 C4.10000544,7.71517686 4.43698503,7.70291971 4.75219592,7.67840543 L4.75219592,4.84496257 C4.75219592,4.77918257 4.77570612,4.721574 4.82403265,4.67254543 C4.87235918,4.62310829 4.93113469,4.598594 5.00122993,4.598594 L6.68177415,4.598594 C6.75143401,4.598594 6.81282177,4.62310829 6.86550204,4.67254543 C6.91774694,4.721574 6.94430476,4.77918257 6.94430476,4.84496257 L6.94430476,8.98419971 C6.94430476,9.140274 6.85679456,9.234654 6.68177415,9.26733971 C6.32259048,9.33311971 5.90724354,9.39277114 5.43486259,9.446294 C4.96204626,9.49940829 4.39780136,9.52596543 3.74125714,9.52596543 C3.4961415,9.52596543 3.23099864,9.50185971 2.94713469,9.452014 C2.6624,9.40298543 2.38245442,9.32086257 2.10686259,9.20564543 C1.83127075,9.09124543 1.56656327,8.93476257 1.31274014,8.73783114 C1.05891701,8.54049114 0.833828571,8.29820829 0.636604082,8.01098257 C0.439814966,7.72375686 0.284386395,7.38055686 0.170753741,6.98260829 C0.0566857143,6.58425114 8.70748299e-05,6.12624257 8.70748299e-05,5.60858257 L8.70748299e-05,4.08134257 C8.70748299e-05,3.29279971 0.118073469,2.64603114 0.354481633,2.14103686 C0.590889796,1.63604257 0.899134694,1.23564257 1.28008707,0.939836857 C1.66060408,0.644439714 2.08901224,0.438928286 2.56661769,0.324119714 C3.04335238,0.208902571 3.5179102,0.151702571 3.99072653,0.151702571 C4.64683537,0.151702571 5.20672653,0.186431143 5.67083537,0.256296857 C6.13450884,0.326162571 6.4889034,0.385405429 6.73401905,0.434842571 C6.88291701,0.459356857 6.95736599,0.521051143 6.95736599,0.619516857 L6.95736599,1.92571971 C6.95736599,1.99149971 6.93951565,2.03439971 6.90468571,2.05482829" id="Fill-5"></path>
                    <path d="M14.019483,4.10246571 C14.019483,3.35192 13.8858231,2.81178857 13.6189388,2.48166286 C13.3520544,2.15194571 12.9428027,1.98688286 12.391619,1.98688286 C11.8404354,1.98688286 11.4333605,2.15194571 11.1708299,2.48166286 C10.9082993,2.81178857 10.7772517,3.35192 10.7772517,4.10246571 L10.7772517,5.57495714 C10.7772517,6.32550286 10.9082993,6.86604286 11.1708299,7.19576 C11.4333605,7.52588571 11.8404354,7.69054 12.391619,7.69054 C12.9428027,7.69054 13.3520544,7.52588571 13.6189388,7.19576 C13.8858231,6.86604286 14.019483,6.32550286 14.019483,5.57495714 L14.019483,4.10246571 Z M16.2642721,5.57209714 C16.2642721,6.28628 16.1637007,6.89423429 15.9625578,7.39514286 C15.761415,7.89605143 15.4866939,8.30462286 15.1370884,8.62085714 C14.787483,8.93709143 14.3769252,9.16711714 13.905415,9.31052571 C13.4334694,9.45434286 12.9266939,9.52584286 12.3850884,9.52584286 C11.843483,9.52584286 11.3367075,9.45434286 10.8647619,9.31052571 C10.3932517,9.16711714 9.98269388,8.93709143 9.63308844,8.62085714 C9.28348299,8.30462286 9.00832653,7.89605143 8.80761905,7.39514286 C8.60647619,6.89423429 8.50590476,6.28628 8.50590476,5.57209714 L8.50590476,4.10573429 C8.50590476,3.39155143 8.60647619,2.78359714 8.80761905,2.28268857 C9.00832653,1.78178 9.28348299,1.37320857 9.63308844,1.05697429 C9.98269388,0.74074 10.3932517,0.510714286 10.8647619,0.366897143 C11.3367075,0.223488571 11.843483,0.15158 12.3850884,0.15158 C12.9266939,0.15158 13.4334694,0.223488571 13.905415,0.366897143 C14.3769252,0.510714286 14.787483,0.74074 15.1370884,1.05697429 C15.4866939,1.37320857 15.761415,1.78178 15.9625578,2.28268857 C16.1637007,2.78359714 16.2642721,3.39155143 16.2642721,4.10573429 L16.2642721,5.57209714 Z" id="Fill-7"></path>
                    <path d="M37.9599673,6.82841343 C37.9599673,7.15690486 37.8981442,7.48131057 37.7758041,7.80163057 C37.6534639,8.121542 37.4497088,8.40917629 37.1658449,8.66371629 C36.8806748,8.91825629 36.5114776,9.12581057 36.0565116,9.28597057 C35.6011102,9.44613057 35.041219,9.52621057 34.3764027,9.52621057 C33.8509061,9.52621057 33.3894095,9.50169629 32.9914776,9.45225914 C32.5926748,9.40323057 32.2273959,9.33745057 31.8952054,9.25491914 C31.8246748,9.23857629 31.7641578,9.20997629 31.7110422,9.16911914 C31.6587973,9.12785343 31.6326748,9.07473914 31.6326748,9.00895914 L31.6326748,7.80163057 C31.6326748,7.71092771 31.6544435,7.649642 31.697981,7.61695629 C31.7419537,7.58427057 31.7989878,7.56751914 31.869083,7.56751914 L31.9082667,7.56751914 C32.0393143,7.58427057 32.2208653,7.60061343 32.4533551,7.61695629 C32.6849741,7.63329914 32.9235592,7.64759914 33.1682395,7.65985629 C33.4133551,7.67211343 33.6475864,7.68477914 33.870498,7.69703629 C34.0938449,7.70888486 34.2710422,7.715422 34.4025252,7.715422 C34.8570558,7.715422 35.1657361,7.64555629 35.3276952,7.50582486 C35.4896544,7.36609343 35.570634,7.14873343 35.570634,6.85292771 C35.570634,6.67233914 35.5118585,6.51830771 35.3934367,6.391242 C35.2754503,6.26376771 35.0455728,6.10565057 34.7038041,5.91689057 L32.8926476,4.90649343 C32.5861442,4.73407629 32.3349333,4.55757343 32.1381442,4.37698486 C31.9413551,4.19639629 31.7833143,4.00722771 31.6653279,3.80988771 C31.5473415,3.61336486 31.4637497,3.40989629 31.4162939,3.20029914 C31.367532,2.990702 31.3440218,2.77538486 31.3440218,2.55353057 C31.3440218,2.21686771 31.3984435,1.90267629 31.5081578,1.61095629 C31.6174367,1.32005343 31.8029061,1.06551343 32.0658721,0.847336286 C32.3284027,0.629976286 32.6736544,0.459193429 33.1029333,0.336213429 C33.5313415,0.213233429 34.0655456,0.151539143 34.7038041,0.151539143 C34.9402122,0.151539143 35.1962122,0.159710571 35.4722395,0.176053429 C35.7478313,0.192804857 36.0121034,0.213233429 36.2663619,0.237747714 C36.520185,0.262670571 36.7561578,0.291270571 36.975151,0.323956286 C37.1937088,0.356642 37.3643755,0.389736286 37.487151,0.422422 C37.5398313,0.438764857 37.585981,0.463687714 37.6247293,0.496373429 C37.6643483,0.529467714 37.6839401,0.578496286 37.6839401,0.644276286 L37.6839401,1.88837629 C37.6839401,1.94598486 37.668702,1.995422 37.6382259,2.03627914 C37.6073143,2.07754486 37.5485388,2.09797343 37.4610286,2.09797343 L37.4349061,2.09797343 C37.3382531,2.089802 37.1832599,2.07958771 36.9686204,2.06733057 C36.753981,2.05466486 36.5114776,2.04036486 36.2402395,2.024022 C35.9690014,2.00767914 35.6907973,1.99297057 35.4069333,1.981122 C35.1217633,1.96845629 34.870117,1.96232771 34.6515592,1.96232771 C34.2753959,1.96232771 34.0106884,2.01585057 33.8574367,2.12248771 C33.7046204,2.22912486 33.6279946,2.39377914 33.6279946,2.61522486 C33.6279946,2.70551914 33.6410558,2.78396486 33.6676136,2.84933629 C33.6933007,2.91511629 33.7394503,2.97844486 33.8051918,3.04054771 C33.870498,3.10183343 33.960185,3.16761343 34.0742531,3.23747914 C34.1878857,3.30734486 34.3319946,3.38742486 34.507015,3.47771914 L36.1879946,4.32754771 C36.8702259,4.67279057 37.3360762,5.05031057 37.585981,5.46092486 C37.835015,5.87153914 37.9599673,6.32750486 37.9599673,6.82841343" id="Fill-9"></path>
                    <path d="M45.1402449,9.36600971 C44.9129796,9.39869543 44.6086531,9.43383257 44.2277007,9.470604 C43.8471837,9.507784 43.3025306,9.52616971 42.5933061,9.52616971 C42.1736054,9.52616971 41.770449,9.493484 41.3834014,9.42729543 C40.9963537,9.361924 40.6558912,9.23485829 40.3607075,9.04568971 C40.0663946,8.85692971 39.8308571,8.58808971 39.6545306,8.23876114 C39.4786395,7.88984114 39.3906939,7.43591829 39.3906939,6.87740114 L39.3906939,2.78760114 C39.3906939,2.229084 39.4786395,1.77761257 39.6545306,1.43277829 C39.8308571,1.08753543 40.0663946,0.821146857 40.3607075,0.631978286 C40.6558912,0.443218286 40.9985306,0.316152571 41.3903673,0.249964 C41.780898,0.184184 42.1866667,0.151498286 42.6068027,0.151498286 C42.9564082,0.151498286 43.2650884,0.157626857 43.5324082,0.169884 C43.7992925,0.182141143 44.0330884,0.196849714 44.2346667,0.213192571 C44.4358095,0.229944 44.6086531,0.245878286 44.7527619,0.262629714 C44.8973061,0.278972571 45.0261769,0.295315429 45.1402449,0.311658286 C45.3152653,0.336172571 45.4027755,0.418704 45.4027755,0.558026857 L45.4027755,1.70366114 C45.4027755,1.76944114 45.3766531,1.82704971 45.3239728,1.87607829 C45.2717279,1.92551543 45.2099048,1.95002971 45.1402449,1.95002971 L42.4757551,1.95002971 C42.1692517,1.95002971 41.9524354,2.00968114 41.8257415,2.12857543 C41.6990476,2.24787829 41.6350476,2.46728114 41.6350476,2.78760114 L41.6350476,3.90872114 L45.0353197,3.90872114 C45.105415,3.90872114 45.1668027,3.93323543 45.2190476,3.98267257 C45.2717279,4.03170114 45.297415,4.08930971 45.297415,4.15508971 L45.297415,5.32523829 C45.297415,5.39101829 45.2717279,5.44862686 45.2190476,5.49765543 C45.1668027,5.54709257 45.105415,5.57201543 45.0353197,5.57201543 L41.6350476,5.57201543 L41.6350476,6.87740114 C41.6350476,7.19772114 41.6990476,7.41753257 41.8257415,7.53642686 C41.9524354,7.65572971 42.1692517,7.71538114 42.4757551,7.71538114 L45.1402449,7.71538114 C45.2099048,7.71538114 45.2717279,7.740304 45.3239728,7.78933257 C45.3766531,7.83876971 45.4027755,7.89596971 45.4027755,7.96134114 L45.4027755,9.107384 C45.4027755,9.25528686 45.3152653,9.34108686 45.1402449,9.36600971" id="Fill-11"></path>
                    <path d="M54.6240871,9.279842 C54.5235156,9.37054486 54.402917,9.41548771 54.2631619,9.41548771 L52.9766313,9.41548771 C52.8368762,9.41548771 52.7141007,9.39260771 52.6091755,9.34766486 C52.5042503,9.302722 52.3993252,9.19771914 52.2939646,9.03306486 L49.3012027,4.18005343 C49.2576653,4.11386486 49.2180463,4.08117914 49.1832163,4.08117914 C49.1388082,4.08117914 49.1174748,4.11386486 49.1174748,4.18005343 L49.1174748,9.16911914 C49.1174748,9.23489914 49.0913524,9.29209914 49.0386721,9.34112771 C48.9864272,9.39056486 48.9250395,9.41548771 48.8549442,9.41548771 L47.305883,9.41548771 C47.2357878,9.41548771 47.1748354,9.39056486 47.1225905,9.34112771 C47.0694748,9.29209914 47.0433524,9.23489914 47.0433524,9.16911914 L47.0433524,0.730484857 C47.0433524,0.599333429 47.0912435,0.488202 47.1878966,0.397907714 C47.2841143,0.307613429 47.4021007,0.262670571 47.5418558,0.262670571 L48.8680054,0.262670571 C48.9994884,0.262670571 49.1044136,0.293313429 49.1832163,0.354599143 C49.262019,0.416293429 49.3403864,0.513124857 49.4191891,0.644276286 L52.5303728,5.71955057 C52.5743456,5.78533057 52.6091755,5.81801629 52.6357333,5.81801629 C52.6792707,5.81801629 52.7010395,5.78124486 52.7010395,5.70729343 L52.7010395,0.496373429 C52.7010395,0.431002 52.7275973,0.375436286 52.7798422,0.330084857 C52.8325224,0.284733429 52.8934748,0.262670571 52.9640054,0.262670571 L54.5126313,0.262670571 C54.5822912,0.262670571 54.6441143,0.284733429 54.6963592,0.330084857 C54.7490395,0.375436286 54.7751619,0.431002 54.7751619,0.496373429 L54.7751619,8.94726486 C54.7751619,9.07882486 54.7246585,9.18954771 54.6240871,9.279842" id="Fill-13"></path>
                    <path d="M61.7324844,4.04420343 C61.7324844,3.62541771 61.6867701,3.28058343 61.5949061,3.009292 C61.5026068,2.73840914 61.3711238,2.52268343 61.2004571,2.362932 C61.0302259,2.20236343 60.8264707,2.09164057 60.5900626,2.02994629 C60.3540898,1.96866057 60.0872054,1.93801771 59.7894095,1.93801771 C59.6230966,1.93801771 59.4502531,1.94006057 59.2713143,1.94373771 C59.0919401,1.948232 58.9534912,1.95436057 58.8572735,1.96212343 L58.8572735,7.71521771 C58.9534912,7.72379771 59.0919401,7.72992629 59.2713143,7.73360343 C59.4502531,7.73809771 59.6230966,7.74014057 59.7894095,7.74014057 C60.0872054,7.74014057 60.3540898,7.70908914 60.5900626,7.64739486 C60.8264707,7.58610914 61.0302259,7.47497771 61.2004571,7.31481771 C61.3711238,7.15465771 61.5026068,6.93934057 61.5949061,6.66804914 C61.6867701,6.39716629 61.7324844,6.052332 61.7324844,5.63354629 L61.7324844,4.04420343 Z M63.9768381,5.63354629 C63.9768381,6.28235771 63.8806204,6.85108914 63.688185,7.339332 C63.4957497,7.828392 63.2201578,8.23492057 62.8614095,8.55932629 C62.5026612,8.883732 62.0651102,9.12601486 61.5483211,9.28576629 C61.0324027,9.44633486 60.4459537,9.52600629 59.7894095,9.52600629 C59.5181714,9.52600629 59.2447565,9.51987771 58.9687293,9.50762057 C58.6935728,9.49536343 58.4310422,9.48106343 58.1815728,9.46472057 C57.9321034,9.44796914 57.7044027,9.42958343 57.4989061,9.40915486 C57.2934095,9.38872629 57.1244844,9.36584629 56.9934367,9.341332 C56.8706612,9.32498914 56.7770558,9.28372343 56.7113143,9.21794343 C56.6455728,9.152572 56.6129197,9.05002057 56.6129197,8.91028914 L56.6129197,0.767052 C56.6129197,0.628137714 56.6455728,0.525586286 56.7113143,0.459397714 C56.7770558,0.393617714 56.8706612,0.352760571 56.9934367,0.336417714 C57.1244844,0.311494857 57.2934095,0.289432 57.4989061,0.268594857 C57.7044027,0.248166286 57.9321034,0.229780571 58.1815728,0.213029143 C58.4310422,0.196686286 58.6935728,0.182386286 58.9687293,0.170129143 C59.2447565,0.157463429 59.5181714,0.151743429 59.7894095,0.151743429 C60.4459537,0.151743429 61.0324027,0.231414857 61.5483211,0.391983429 C62.0651102,0.551734857 62.5026612,0.794017714 62.8614095,1.11842343 C63.2201578,1.44323771 63.4957497,1.84935771 63.688185,2.33800914 C63.8806204,2.82706914 63.9768381,3.395392 63.9768381,4.04420343 L63.9768381,5.63354629 Z" id="Fill-15"></path>
                </g>
            </g>
        </g>
    </g>
</svg>