<?xml version="1.0" encoding="UTF-8"?>
<svg width="170px" height="170px" viewBox="0 0 170 170" version="1.1" xmlns="http://www.w3.org/2000/svg" xmlns:xlink="http://www.w3.org/1999/xlink">
    <!-- Generator: Sketch 49.1 (51147) - http://www.bohemiancoding.com/sketch -->
    <title>Group 2</title>
    <desc>Created with Sketch.</desc>
    <defs></defs>
    <g id="Page-1" stroke="none" stroke-width="1" fill="none" fill-rule="evenodd">
        <g id="mm_ico_no_address" transform="translate(-1.000000, -1.000000)">
            <g id="Group-2" transform="translate(1.000000, 1.000000)">
                <g id="Group-7">
                    <circle id="Oval-2" fill="#F4F4F4" cx="85" cy="85" r="85"></circle>
                    <g id="Group-5" transform="translate(94.074367, 36.794061) scale(-1, 1) rotate(-22.000000) translate(-94.074367, -36.794061) translate(70.074367, 20.294061)">
                        <rect id="Rectangle-2" fill="#A7A7A7" x="25.147929" y="14.0828402" width="2.01183432" height="11.0650888" rx="1.00591716"></rect>
                        <g id="Group-6" transform="translate(0.899375, 12.328298)" fill="#A7A7A7">
                            <rect id="Rectangle-2-Copy-3" x="1.6765286" y="0" width="1" height="4.02366864" rx="0.5"></rect>
                            <rect id="Rectangle-2-Copy-4" transform="translate(2.011834, 2.176529) rotate(90.000000) translate(-2.011834, -2.176529) " x="1.51183432" y="0.16469428" width="1" height="4.02366864" rx="0.5"></rect>
                        </g>
                        <g id="Group-6-Copy" transform="translate(43.105531, 5.028783) rotate(-27.000000) translate(-43.105531, -5.028783) translate(39.605531, 1.528783)" fill="#A7A7A7">
                            <rect id="Rectangle-2-Copy-3" x="2.5147929" y="0" width="1.00591716" height="6.03550296" rx="0.50295858"></rect>
                            <rect id="Rectangle-2-Copy-4" transform="translate(3.017751, 3.017751) rotate(90.000000) translate(-3.017751, -3.017751) " x="2.5147929" y="0" width="1.00591716" height="6.03550296" rx="0.50295858"></rect>
                        </g>
                        <rect id="Rectangle-2-Copy" fill="#A7A7A7" transform="translate(13.968876, 25.879634) rotate(-30.000000) translate(-13.968876, -25.879634) " x="12.9629588" y="22.8618823" width="2.01183432" height="6.03550296" rx="1.00591716"></rect>
                        <rect id="Rectangle-2-Copy-2" fill="#A7A7A7" transform="translate(38.802641, 25.484035) rotate(43.000000) translate(-38.802641, -25.484035) " x="37.7967234" y="21.4603663" width="2.01183432" height="8.04733728" rx="1.00591716"></rect>
                        <circle id="Oval-5-Copy" stroke="#979797" stroke-width="2" cx="16.5976331" cy="3.52071006" r="2.5147929"></circle>
                        <circle id="Oval-5-Copy-2" stroke="#979797" cx="3.47999278" cy="31.035355" r="1.50887574"></circle>
                    </g>
                    <g id="notebook" transform="translate(86.094229, 96.109053) rotate(-25.000000) translate(-86.094229, -96.109053) translate(52.594229, 52.109053)">
                        <g id="Group-4">
                            <path d="M4.0938856,74.4347023 L55.0779882,74.4347023 L55.0779882,0.950270679 L4.0938856,0.950270679 C1.8847466,0.950270679 0.0938856016,2.74113168 0.0938856016,4.95027068 L0.0938856016,70.4347023 C0.0938856016,72.6438413 1.8847466,74.4347023 4.0938856,74.4347023 Z" id="Fill-1" fill="#E3E3E3"></path>
                            <path d="M4.0938856,74.4347023 L10.0113346,74.4347023 L10.0113346,0.950270679 L4.0938856,0.950270679 C1.8847466,0.950270679 0.0938856016,2.74113168 0.0938856016,4.95027068 L0.0938856016,70.4347023 C0.0938856016,72.6438413 1.8847466,74.4347023 4.0938856,74.4347023 Z" id="Fill-3" fill="#A7A7A7"></path>
                        </g>
                        <polygon id="Fill-5" fill="#CECECE" points="18.7771203 28.8280448 46.3200263 28.8280448 46.3200263 13.6205464 18.7771203 13.6205464"></polygon>
                        <polygon id="Fill-6" fill="#E3E3E3" points="23.7827876 19.9556843 41.3065352 19.9556843 41.3065352 17.4184615 23.7827876 17.4184615"></polygon>
                        <polygon id="Fill-7" fill="#E3E3E3" points="23.7827876 25.0237945 41.3065352 25.0237945 41.3065352 22.492907 23.7827876 22.492907"></polygon>
                        <g id="Group-3" transform="translate(41.242604, 62.366864)">
                            <path d="M21.6137735,12.0787534 C21.6137735,17.1161383 17.5100949,21.1985011 12.4522944,21.1985011 C7.39449383,21.1985011 3.29558586,17.1161383 3.29558586,12.0787534 C3.29558586,7.04136858 7.39449383,2.95425439 12.4522944,2.95425439 C17.5100949,2.95425439 21.6137735,7.04136858 21.6137735,12.0787534 Z" id="Fill-8" fill="#A7A7A7" transform="translate(12.454680, 12.076378) rotate(24.000000) translate(-12.454680, -12.076378) "></path>
                            <path d="M13.5333146,12.0787534 L16.2315715,9.39138797 C16.5302117,9.09395324 16.5302117,8.61121574 16.2315715,8.31473129 C15.9338854,8.01729657 15.4491915,8.01729657 15.1505513,8.31473129 L12.4522944,11.0020968 L9.75403746,8.31473129 C9.4563514,8.01729657 8.97547393,8.01729657 8.67301727,8.31473129 C8.37533121,8.61121574 8.37533121,9.09395324 8.67301727,9.39138797 L11.3750907,12.0787534 L8.67301727,14.7661189 C8.37533121,15.0626034 8.37533121,15.5415398 8.67301727,15.8427756 C8.82281442,15.9872167 9.02031766,16.0651389 9.21400442,16.0651389 C9.41150767,16.0651389 9.60519443,15.9872167 9.75403746,15.8427756 L12.4522944,13.151609 L15.1505513,15.8427756 C15.3003485,15.9872167 15.4978517,16.0651389 15.6915385,16.0651389 C15.8890417,16.0651389 16.0827285,15.9872167 16.2315715,15.8427756 C16.5302117,15.5415398 16.5302117,15.0626034 16.2315715,14.7661189 L13.5333146,12.0787534 Z" id="Fill-9" fill="#FFFFFF" transform="translate(12.452652, 12.078397) rotate(24.000000) translate(-12.452652, -12.078397) "></path>
                        </g>
                    </g>
                </g>
            </g>
        </g>
    </g>
</svg>