<?xml version="1.0" encoding="UTF-8"?>
<svg width="170px" height="170px" viewBox="0 0 170 170" version="1.1" xmlns="http://www.w3.org/2000/svg" xmlns:xlink="http://www.w3.org/1999/xlink">
    <!-- Generator: Sketch 49.1 (51147) - http://www.bohemiancoding.com/sketch -->
    <title>Group 2</title>
    <desc>Created with Sketch.</desc>
    <defs></defs>
    <g id="Page-1" stroke="none" stroke-width="1" fill="none" fill-rule="evenodd">
        <g id="mm_ico_no_ulasan" transform="translate(-1.000000, -1.000000)">
            <g id="Group-2" transform="translate(1.000000, 1.000000)">
                <g id="Group-5">
                    <circle id="Oval-2" fill="#F4F4F4" cx="85" cy="85" r="85"></circle>
                    <g id="Group-3-Copy" transform="translate(112.745797, 90.623993) rotate(13.000000) translate(-112.745797, -90.623993) translate(87.745797, 71.123993)">
                        <rect id="Rectangle-3" fill="#A7A7A7" x="-4.54747351e-13" y="0" width="50" height="33.1914894" rx="4.11462366"></rect>
                        <path d="M23.1937459,32.1708193 C26.0733928,30.9095561 36.5467235,25.8110755 31.3724895,32.1708193 C26.1982555,38.5305632 16.3934426,38.7315282 16.3934426,38.7315282 C16.3934426,38.7315282 25.0167745,33.6644769 23.1937459,32.1708193 Z" id="Rectangle-5" fill="#A7A7A7"></path>
                        <ellipse id="Oval-4" fill="#E3E3E3" transform="translate(14.093173, 16.418739) rotate(13.000000) translate(-14.093173, -16.418739) " cx="14.0931726" cy="16.4187386" rx="2.1375" ry="2.12903226"></ellipse>
                        <ellipse id="Oval-4-Copy" fill="#E3E3E3" transform="translate(25.493173, 16.418739) rotate(13.000000) translate(-25.493173, -16.418739) " cx="25.4931726" cy="16.4187386" rx="2.1375" ry="2.12903226"></ellipse>
                        <ellipse id="Oval-4-Copy-2" fill="#E3E3E3" transform="translate(36.893173, 16.418739) rotate(13.000000) translate(-36.893173, -16.418739) " cx="36.8931726" cy="16.4187386" rx="2.1375" ry="2.12903226"></ellipse>
                    </g>
                    <polygon id="Star-Copy" stroke="#979797" transform="translate(76.719993, 31.542393) rotate(-19.000000) translate(-76.719993, -31.542393) " points="76.7199932 33.6270791 74.9566375 34.2559187 75.0097926 32.3845456 73.8668237 30.9018167 75.6630311 30.3740842 76.7199932 28.8288677 77.7769553 30.3740842 79.5731628 30.9018167 78.4301938 32.3845456 78.483349 34.2559187"></polygon>
                    <polygon id="Star-Copy-2" stroke="#979797" transform="translate(38.653309, 57.640830) rotate(-36.000000) translate(-38.653309, -57.640830) " points="38.6533085 60.767859 36.0082749 61.7111185 36.0880076 58.9040588 34.3735542 56.6799655 37.0678654 55.8883667 38.6533085 53.570542 40.2387517 55.8883667 42.9330629 56.6799655 41.2186095 58.9040588 41.2983422 61.7111185"></polygon>
                    <polygon id="Star-Copy-3" stroke="#979797" transform="translate(124.228766, 53.632227) rotate(34.000000) translate(-124.228766, -53.632227) " points="124.228766 56.7592559 121.583732 57.7025154 121.663465 54.8954557 119.949012 52.6713624 122.643323 51.8797636 124.228766 49.5619389 125.814209 51.8797636 128.50852 52.6713624 126.794067 54.8954557 126.8738 57.7025154"></polygon>
                    <g id="Group-3-Copy-2" transform="translate(55.894361, 87.592247) rotate(-26.000000) translate(-55.894361, -87.592247) translate(33.394361, 70.092247)">
                        <rect id="Rectangle-3" fill="#CECECE" x="-4.54747351e-13" y="0" width="45" height="29.787234" rx="3.70316129"></rect>
                        <path d="M20.8743713,28.8712481 C23.4660535,27.7393452 32.8920512,23.1637857 28.2352406,28.8712481 C23.57843,34.5787105 14.7540984,34.7590638 14.7540984,34.7590638 C14.7540984,34.7590638 22.5150971,30.21171 20.8743713,28.8712481 Z" id="Rectangle-5" fill="#A7A7A7"></path>
                        <ellipse id="Oval-4" fill="#A7A7A7" transform="translate(12.683855, 14.734765) rotate(13.000000) translate(-12.683855, -14.734765) " cx="12.6838553" cy="14.7347654" rx="1.92375" ry="1.91066998"></ellipse>
                        <ellipse id="Oval-4-Copy" fill="#A7A7A7" transform="translate(22.943855, 14.734765) rotate(13.000000) translate(-22.943855, -14.734765) " cx="22.9438553" cy="14.7347654" rx="1.92375" ry="1.91066998"></ellipse>
                        <ellipse id="Oval-4-Copy-2" fill="#A7A7A7" transform="translate(33.203855, 14.734765) rotate(13.000000) translate(-33.203855, -14.734765) " cx="33.2038553" cy="14.7347654" rx="1.92375" ry="1.91066998"></ellipse>
                    </g>
                    <g id="Group-3" transform="translate(60.000000, 88.000000)">
                        <rect id="Rectangle-3" fill="#E3E3E3" x="0" y="0" width="57" height="37.4468085" rx="4.65274102"></rect>
                        <ellipse id="Oval-4" fill="#A7A7A7" cx="16.3875" cy="17.7419355" rx="2.1375" ry="2.12903226"></ellipse>
                        <ellipse id="Oval-4-Copy" fill="#A7A7A7" cx="27.7875" cy="17.7419355" rx="2.1375" ry="2.12903226"></ellipse>
                        <ellipse id="Oval-4-Copy-2" fill="#A7A7A7" cx="39.1875" cy="17.7419355" rx="2.1375" ry="2.12903226"></ellipse>
                        <path d="M26.4408703,36.2952834 C29.7236678,34.8723197 41.6632648,29.1201878 35.7646381,36.2952834 C29.8660113,43.4703789 18.6885246,43.6971087 18.6885246,43.6971087 C18.6885246,43.6971087 28.519123,37.9804355 26.4408703,36.2952834 Z" id="Rectangle-5" fill="#E3E3E3"></path>
                    </g>
                </g>
            </g>
        </g>
    </g>
</svg>